<svg id="Calque_1" data-name="Calque 1" xmlns="http://www.w3.org/2000/svg" xmlns:xlink="http://www.w3.org/1999/xlink" viewBox="0 0 1149.78 957.39"><defs><style>.cls-1{fill:url(#Degradado_sin_nombre_6);}.cls-2{fill:#fff;}.cls-3{fill:url(#Degradado_sin_nombre_6-2);}.cls-4{clip-path:url(#clip-path);}.cls-12,.cls-5{opacity:0.74;}.cls-5{fill:url(#Degradado_sin_nombre_6-4);}.cls-6{fill:url(#Degradado_sin_nombre_29);}.cls-11,.cls-7{opacity:0.56;}.cls-8{fill:url(#Degradado_sin_nombre_6-5);}.cls-9{fill:url(#Degradado_sin_nombre_6-6);}.cls-10{fill:url(#Degradado_sin_nombre_6-7);}.cls-11{fill:url(#Degradado_sin_nombre_6-8);}.cls-12{fill:url(#Degradado_sin_nombre_6-9);}.cls-13{opacity:0.91;fill:url(#Degradado_sin_nombre_6-10);}.cls-14{fill:#a01f24;}.cls-15{fill:#be3421;}.cls-16{fill:#de3013;}.cls-17{fill:#24a7b1;}</style><linearGradient id="Degradado_sin_nombre_6" x1="-6699.8" y1="-10110.8" x2="-6053.93" y2="-10110.8" gradientTransform="matrix(0, -1, -1, 0, -9535.59, -6053.93)" gradientUnits="userSpaceOnUse"><stop offset="0" stop-color="#00c2c3"/><stop offset="0.77" stop-color="#0f8"/></linearGradient><linearGradient id="Degradado_sin_nombre_6-2" x1="7419.53" y1="4227.67" x2="8536.77" y2="4227.67" gradientTransform="translate(-7386.35 -3904.74)" xlink:href="#Degradado_sin_nombre_6"/><clipPath id="clip-path"><rect class="cls-1" width="1150.42" height="645.87"/></clipPath><linearGradient id="Degradado_sin_nombre_6-4" x1="2688.39" y1="-9381.43" x2="2016.61" y2="-10545" gradientTransform="translate(-9535.59 -2216.31) rotate(90)" xlink:href="#Degradado_sin_nombre_6"/><linearGradient id="Degradado_sin_nombre_29" x1="2504.51" y1="-9491.04" x2="2504.51" y2="-10565.04" gradientTransform="translate(-9535.59 -2216.31) rotate(90)" gradientUnits="userSpaceOnUse"><stop offset="0" stop-color="#00c2c3"/><stop offset="0.18" stop-color="#00c8be"/><stop offset="0.41" stop-color="#00d8ae"/><stop offset="0.67" stop-color="#00f294"/><stop offset="0.77" stop-color="#0f8"/></linearGradient><linearGradient id="Degradado_sin_nombre_6-5" x1="7929.77" y1="4276.64" x2="8847.87" y2="4276.64" gradientTransform="translate(-7386.35 -3904.74)" xlink:href="#Degradado_sin_nombre_6"/><linearGradient id="Degradado_sin_nombre_6-6" x1="7937.86" y1="4305.04" x2="8855.97" y2="4305.04" gradientTransform="translate(-7386.35 -3904.74)" xlink:href="#Degradado_sin_nombre_6"/><linearGradient id="Degradado_sin_nombre_6-7" x1="7351.06" y1="4078.84" x2="8246.51" y2="4078.84" gradientTransform="translate(-7386.35 -3904.74)" xlink:href="#Degradado_sin_nombre_6"/><linearGradient id="Degradado_sin_nombre_6-8" x1="7365.9" y1="4104.92" x2="8261.34" y2="4104.92" gradientTransform="translate(-7386.35 -3904.74)" xlink:href="#Degradado_sin_nombre_6"/><linearGradient id="Degradado_sin_nombre_6-9" x1="7302.94" y1="4084.63" x2="8198.38" y2="4084.63" gradientTransform="translate(-7386.35 -3904.74)" xlink:href="#Degradado_sin_nombre_6"/><linearGradient id="Degradado_sin_nombre_6-10" x1="7266.96" y1="4064.35" x2="8162.41" y2="4064.35" gradientTransform="translate(-7386.35 -3904.74)" xlink:href="#Degradado_sin_nombre_6"/></defs><rect class="cls-2" y="589.75" width="1149.78" height="367.65" rx="77.17"/><rect class="cls-3" x="33.18" width="1117.24" height="645.87"/><rect class="cls-1" width="1150.42" height="645.87"/><g class="cls-4"><path class="cls-5" d="M1104-35.85S704.56,193,630.94,441.67C532.44,774.36-139.28,804.73-51.37,576.54c39.68-103,97.2-743.8,97.2-743.8Z"/><path class="cls-6" d="M1029.44-1.91S660.66,209.39,592.69,439C501.75,746.12-118.42,774.16-37.25,563.48c36.63-95.1,89.73-686.72,89.73-686.72Z"/><g class="cls-7"><path class="cls-8" d="M543.42,772.2S648.11,438,967.09,458,1291.55,53.6,1309.25-28.4h152.27V772.2Z"/></g><path class="cls-9" d="M551.51,800.6S656.2,466.44,975.18,486.42,1299.64,82,1317.34,0h152.28V800.6Z"/><path class="cls-10" d="M-35.29-81.3V418.81S162,550.51,370,250.26,662.1-13.66,860.16-99.37Z"/><path class="cls-11" d="M-20.46-55.22V444.9S176.85,576.59,384.79,276.34,676.94,12.42,875-73.29Z"/><path class="cls-12" d="M-83.41-75.5V424.61s197.3,131.7,405.24-168.56S614-7.86,812-93.57Z"/><path class="cls-13" d="M-119.39-95.79V404.32S77.92,536,285.85,235.77,578-28.15,776.06-113.86Z"/></g><path class="cls-14" d="M1006.65,737.16s36.86-63.41,36.86-91.42c8.11,44.23-17.69,207.17-202.74,219,24.33,8.11,75.2-2.21,84.05-6.63S854,923,784.74,884.61c-33.92-22.86-11.06-109.12,5.16-131.23-23.6,37.6-40.55,83.31-39.82,95.84S714,757.8,834.87,664.9c73.73-50.13,119.44-32.43,119.44-37.6s-58.25-11-84.79,6.64,56-63.4,134.92-33.91C1044.25,616.25,1027.29,698.08,1006.65,737.16Z"/><path class="cls-15" d="M979.71,632.33S966.43,655.18,941.37,653s-130.5,43.5-132.71,73.73,11.06,25.06,0,42.76-31,89.21-5.9,91.42.74-26.54,31.7-26.54,115-14,145.25-74.47c14-31.7-8.11-28,6.63-52.34S1008.88,612,979.71,632.33Z"/><ellipse class="cls-2" cx="895.08" cy="744.86" rx="55.52" ry="34.65" transform="translate(-268.86 779.84) rotate(-41.49)"/><circle class="cls-15" cx="986.76" cy="872.1" r="6.24"/><circle class="cls-16" cx="1083.75" cy="703.56" r="6.85"/><circle class="cls-17" cx="1083.75" cy="909.96" r="6.85"/><circle class="cls-2" cx="999.5" cy="498.61" r="6.85"/><circle class="cls-2" cx="1117.99" cy="818.4" r="6.85"/><circle class="cls-17" cx="699.21" cy="692.18" r="6.85"/><circle class="cls-2" cx="902.18" cy="926.7" r="7.77"/><circle class="cls-16" cx="890.76" cy="563.08" r="11.42"/><circle class="cls-17" cx="763.32" cy="657.15" r="2.39"/><circle class="cls-2" cx="719.98" cy="828.45" r="8.07"/><circle class="cls-16" cx="692.99" cy="814.16" r="6.22"/><circle class="cls-17" cx="1046.92" cy="835.49" r="11.42"/><circle class="cls-2" cx="810.26" cy="607.32" r="9.11"/><path class="cls-2" d="M161.7,103.14v27.73q0,15.82-6.4,27.88a45.24,45.24,0,0,1-18.12,18.65Q125.47,184,110,184t-27.4-6.2a44.42,44.42,0,0,1-18.36-17.53Q57.79,148.93,57.79,134V92.1q0-15.82,6.4-27.83A45.27,45.27,0,0,1,82.3,45.67q11.72-6.6,27.15-6.6a53,53,0,0,1,23.44,5.23,48.75,48.75,0,0,1,17.92,14.79,54.3,54.3,0,0,1,9.71,22.17h-28.9a18.79,18.79,0,0,0-4.84-7.76,22.63,22.63,0,0,0-7.91-5,26.49,26.49,0,0,0-9.42-1.71A24.71,24.71,0,0,0,96.9,69.93a21.4,21.4,0,0,0-8.4,8.89,28.59,28.59,0,0,0-3,13.28V134a22.4,22.4,0,0,0,3,11.71,20,20,0,0,0,8.6,7.82A28.9,28.9,0,0,0,110,156.26a25.78,25.78,0,0,0,12.64-3,20.09,20.09,0,0,0,8.35-8.64A28.77,28.77,0,0,0,134,131.26v-2.34H112.48V103.14Z"/><path class="cls-2" d="M224.78,40.54h17l54.3,142H267.26l-34-97-34,97H170.48ZM196.56,134h74.71v25.78H196.56Z"/><path class="cls-2" d="M403,40.54h35.26v142H413.94V72.28l1,6.25-27.15,88.18H364.14L337,80.48l1-8.2V182.53H313.65v-142H348.9L376,136.24Z"/><path class="cls-2" d="M558.86,40.54h35.26v142H569.8V72.28l1,6.25-27.15,88.18H520L492.85,80.48l1-8.2V182.53H469.51v-142h35.25l27,95.7Z"/><path class="cls-2" d="M625.37,40.54h26.76v142H625.37Zm9.67,0h85.44V66.32H635Zm0,58.59h74.7v25.78H635Zm0,57.62h85.44v25.78H635Z"/><path class="cls-2" d="M60.72,222.44H87.48V364.53H60.72Zm10.64,59.18h49.42a12.83,12.83,0,0,0,7.22-2.05,13.3,13.3,0,0,0,4.84-5.86,22.45,22.45,0,0,0,1.81-8.79,21.44,21.44,0,0,0-1.71-8.79,13.3,13.3,0,0,0-4.84-5.86,13.08,13.08,0,0,0-7.32-2.05H71.36V222.44h51.57a39.64,39.64,0,0,1,20.6,5.27,35.78,35.78,0,0,1,13.77,14.9q4.89,9.62,4.88,22.31t-4.88,22.32a35.61,35.61,0,0,1-13.82,14.89,39.71,39.71,0,0,1-20.55,5.27H71.36ZM101.25,303l28.61-4.49,38.28,66H135.72Z"/><path class="cls-2" d="M208.91,359.5a45.22,45.22,0,0,1-18.21-18.36q-6.45-11.86-6.45-27.49V273.42q0-15.63,6.45-27.49a45.22,45.22,0,0,1,18.21-18.36q11.78-6.49,27.2-6.5t27.2,6.5a45.22,45.22,0,0,1,18.21,18.36Q288,257.8,288,273.42v40.23q0,15.63-6.45,27.49a45.22,45.22,0,0,1-18.21,18.36q-11.77,6.5-27.2,6.5T208.91,359.5Zm39.9-23.34a21,21,0,0,0,8.44-8.74,27.64,27.64,0,0,0,3-13.08V272.73a27.64,27.64,0,0,0-3-13.08,21,21,0,0,0-8.44-8.74,27.72,27.72,0,0,0-25.4,0,21,21,0,0,0-8.44,8.74,27.64,27.64,0,0,0-3,13.08v41.61a27.64,27.64,0,0,0,3,13.08,21,21,0,0,0,8.44,8.74,27.72,27.72,0,0,0,25.4,0Z"/><path class="cls-2" d="M301.64,222.54h27.54l30.17,94.73,30.18-94.73h27.54l-47.27,142H348.9Z"/><path class="cls-2" d="M434.65,222.54H461.4v142H434.65Zm9.66,0h85.45v25.78H444.31Zm0,58.59H519v25.78H444.31Zm0,57.62h85.45v25.78H444.31Z"/><path class="cls-2" d="M554.18,222.44h26.75V364.53H554.18Zm10.64,59.18h49.41a12.84,12.84,0,0,0,7.23-2.05,13.36,13.36,0,0,0,4.84-5.86,22.45,22.45,0,0,0,1.8-8.79,21.27,21.27,0,0,0-1.71-8.79,13.35,13.35,0,0,0-4.83-5.86,13.13,13.13,0,0,0-7.33-2.05H564.82V222.44h51.56A39.67,39.67,0,0,1,637,227.71a35.78,35.78,0,0,1,13.77,14.9,53.46,53.46,0,0,1,0,44.63,35.61,35.61,0,0,1-13.82,14.89,39.74,39.74,0,0,1-20.56,5.27H564.82ZM594.7,303l28.62-4.49,38.28,66H629.18Z"/><path d="M45.65,685.33h3.47l7.13,22.17,7.12-22.17h3.47l-9.07,27H54.72Z"/><path d="M71.79,711.6a6.47,6.47,0,0,1-2.71-2.86,10,10,0,0,1-.94-4.54v-3.14a9.84,9.84,0,0,1,.94-4.48,6.47,6.47,0,0,1,2.71-2.84,10,10,0,0,1,8.58,0,6.55,6.55,0,0,1,2.72,2.84,10,10,0,0,1,.93,4.48v3.2a10,10,0,0,1-.93,4.5,6.55,6.55,0,0,1-2.72,2.84,9.79,9.79,0,0,1-8.58,0Zm7.77-3.44a5.67,5.67,0,0,0,1.23-3.9v-3.2a5.58,5.58,0,0,0-1.23-3.87,5.09,5.09,0,0,0-7,0,5.63,5.63,0,0,0-1.22,3.87v3.2a5.71,5.71,0,0,0,1.22,3.9,5.09,5.09,0,0,0,7,0Z"/><path d="M86.62,693.05h3.3l6.13,17.31-1.75,3.53Zm17,0-8.2,23.77a5.65,5.65,0,0,1-1.17,2.08A4,4,0,0,1,92.52,720a8.8,8.8,0,0,1-2.6.33h-.76v-3.08h.76a3.33,3.33,0,0,0,2-.55,4.16,4.16,0,0,0,1.29-1.9l7.13-21.76Z"/><path d="M107.89,711.07a5.51,5.51,0,0,1-1.81-4.44,5.4,5.4,0,0,1,1.66-4.25,7.09,7.09,0,0,1,4.84-1.46h5.94l.25,2.76H112.6a3.82,3.82,0,0,0-2.55.75,2.75,2.75,0,0,0-.87,2.2A2.73,2.73,0,0,0,110.3,709a5.65,5.65,0,0,0,3.28.8,9.84,9.84,0,0,0,3.55-.49c.81-.32,1.22-.79,1.22-1.43l.39,2.62a4.68,4.68,0,0,1-1.36,1.16,6.8,6.8,0,0,1-1.87.71,11.32,11.32,0,0,1-2.34.23A8,8,0,0,1,107.89,711.07Zm10.46-11a4.52,4.52,0,0,0-1.13-3.28,4.28,4.28,0,0,0-3.21-1.17,7.8,7.8,0,0,0-2.48.4,6.81,6.81,0,0,0-2.14,1.12L107,695.55a7.29,7.29,0,0,1,2.89-2,10.57,10.57,0,0,1,4-.73,9.09,9.09,0,0,1,4.1.85,5.83,5.83,0,0,1,2.59,2.44,7.8,7.8,0,0,1,.89,3.87v12.38h-3.13Z"/><path d="M129.74,711.69a5.87,5.87,0,0,1-2.28-2.67,10.31,10.31,0,0,1-.78-4.21V700.6a10.66,10.66,0,0,1,.76-4.25,5.8,5.8,0,0,1,2.22-2.68,6.42,6.42,0,0,1,3.49-.92,7.1,7.1,0,0,1,3.51.86,6.13,6.13,0,0,1,2.47,2.59l-.39,3.83a4.9,4.9,0,0,0-.51-2.25,3.87,3.87,0,0,0-1.49-1.59,4.51,4.51,0,0,0-2.34-.58,4.19,4.19,0,0,0-3.32,1.32,5.38,5.38,0,0,0-1.17,3.71v4.17a5.25,5.25,0,0,0,1.17,3.65,4.85,4.85,0,0,0,5.65.68,4,4,0,0,0,1.49-1.62,4.91,4.91,0,0,0,.52-2.28l.26,4a4.91,4.91,0,0,1-2.09,2.46,7.63,7.63,0,0,1-7.17,0Zm.06,7.64a6.24,6.24,0,0,1-2.66-2.27l2.19-2a5.56,5.56,0,0,0,1.93,1.66,5.14,5.14,0,0,0,2.38.59A5,5,0,0,0,137.4,716a5.15,5.15,0,0,0,1.34-3.79V693.05H142v18.68a9.83,9.83,0,0,1-1,4.55,6.56,6.56,0,0,1-2.83,2.88,9.46,9.46,0,0,1-4.47,1A8.93,8.93,0,0,1,129.8,719.33Z"/><path d="M151,711.58a6.78,6.78,0,0,1-2.88-3,10.06,10.06,0,0,1-1-4.67v-2.17a11.29,11.29,0,0,1,1-4.88,6.82,6.82,0,0,1,2.77-3.08,8.56,8.56,0,0,1,4.38-1.06,7.32,7.32,0,0,1,4.12,1.12,7.07,7.07,0,0,1,2.61,3.26,13.21,13.21,0,0,1,.9,5.14V704H149.45v-2.7h10.41v-.1a6.46,6.46,0,0,0-1.28-4.05,4.06,4.06,0,0,0-3.31-1.44,4.68,4.68,0,0,0-3.75,1.53,6.49,6.49,0,0,0-1.31,4.33V704a5.6,5.6,0,0,0,1.41,4.09,5.36,5.36,0,0,0,4,1.42,6.31,6.31,0,0,0,2.46-.51,6.88,6.88,0,0,0,2.17-1.43l2.16,2.11a10.43,10.43,0,0,1-3.19,2.13,9.22,9.22,0,0,1-3.6.75A9.61,9.61,0,0,1,151,711.58Z"/><path d="M170.86,704.76a5,5,0,0,0,1.17,3.53,4.29,4.29,0,0,0,3.32,1.25,4.49,4.49,0,0,0,3.29-1.13,4.28,4.28,0,0,0,1.16-3.21l.26,4a5.62,5.62,0,0,1-2.12,2.39,6.49,6.49,0,0,1-3.65,1,6.13,6.13,0,0,1-4.93-2.05,8.74,8.74,0,0,1-1.73-5.78V693.05h3.23Zm8.94-11.71H183v19.26H179.8Z"/><path d="M188.76,693.05H192v19.26h-3.23Zm9.6,3.08a5.46,5.46,0,0,0-1.93-.32,4.44,4.44,0,0,0-3.28,1.15,4.22,4.22,0,0,0-1.16,3.16l-.39-3.71a7.19,7.19,0,0,1,2.53-2.68,6.5,6.5,0,0,1,3.45-1,7.16,7.16,0,0,1,2.38.38,5.46,5.46,0,0,1,1.87,1.12l-2.1,2.79A3.41,3.41,0,0,0,198.36,696.13Z"/><path d="M215.46,685.33h3.23v3.23h-3.23Zm0,7.72h3.23v19.26h-3.23Z"/><path d="M224.72,693.05H228v19.26h-3.23ZM237,700.64a5,5,0,0,0-1.2-3.56,4.4,4.4,0,0,0-3.38-1.27,4.52,4.52,0,0,0-3.28,1.12,4.17,4.17,0,0,0-1.16,3.15l-.39-3.71a6.44,6.44,0,0,1,2.52-2.71,7.06,7.06,0,0,1,3.55-.89,6,6,0,0,1,4.85,2.05,8.82,8.82,0,0,1,1.72,5.8v11.69H237Z"/><path d="M248.45,711.69a5.87,5.87,0,0,1-2.28-2.67,10.31,10.31,0,0,1-.78-4.21V700.6a10.84,10.84,0,0,1,.76-4.25,5.8,5.8,0,0,1,2.22-2.68,6.45,6.45,0,0,1,3.5-.92,7.06,7.06,0,0,1,3.5.86,6.13,6.13,0,0,1,2.47,2.59l-.39,3.83a4.9,4.9,0,0,0-.51-2.25,3.87,3.87,0,0,0-1.49-1.59,4.51,4.51,0,0,0-2.34-.58,4.21,4.21,0,0,0-3.32,1.32,5.38,5.38,0,0,0-1.17,3.71v4.17a5.25,5.25,0,0,0,1.17,3.65,4.85,4.85,0,0,0,5.65.68,3.94,3.94,0,0,0,1.49-1.62,4.91,4.91,0,0,0,.52-2.28l.26,4a4.91,4.91,0,0,1-2.09,2.46,6.74,6.74,0,0,1-3.57.87A6.83,6.83,0,0,1,248.45,711.69Zm9-26.36h3.23v27h-3.23Z"/><path d="M269.75,711.58a6.78,6.78,0,0,1-2.88-3,10.19,10.19,0,0,1-1-4.67v-2.17a11.3,11.3,0,0,1,.95-4.88,6.79,6.79,0,0,1,2.78-3.08,8.5,8.5,0,0,1,4.37-1.06,7.3,7.3,0,0,1,4.12,1.12,7.07,7.07,0,0,1,2.61,3.26,13.21,13.21,0,0,1,.9,5.14V704H268.16v-2.7h10.41v-.1a6.46,6.46,0,0,0-1.27-4.05,4.08,4.08,0,0,0-3.32-1.44,4.65,4.65,0,0,0-3.74,1.53,6.44,6.44,0,0,0-1.32,4.33V704a5.6,5.6,0,0,0,1.41,4.09,5.36,5.36,0,0,0,4,1.42,6.39,6.39,0,0,0,2.47-.51A7,7,0,0,0,279,707.6l2.15,2.11a10.31,10.31,0,0,1-3.19,2.13,9.22,9.22,0,0,1-3.6.75A9.67,9.67,0,0,1,269.75,711.58Zm2.19-23.84,5.31-6.58,2.36,1.94L274,689.34Z"/><path d="M286.81,693.05H290v27.09h-3.22Zm5.09,18.72a4.78,4.78,0,0,1-2.13-2.49l.26-4a5,5,0,0,0,.52,2.27,4,4,0,0,0,1.5,1.61,4.43,4.43,0,0,0,2.33.59,4.26,4.26,0,0,0,3.32-1.29,5.21,5.21,0,0,0,1.17-3.63v-4.17a5.35,5.35,0,0,0-1.17-3.7,4.2,4.2,0,0,0-3.32-1.31,4.52,4.52,0,0,0-2.33.57,3.93,3.93,0,0,0-1.5,1.58A4.85,4.85,0,0,0,290,700l-.38-3.71a6.25,6.25,0,0,1,2.46-2.66,7,7,0,0,1,3.51-.87,6.45,6.45,0,0,1,3.5.92,5.73,5.73,0,0,1,2.21,2.68,10.65,10.65,0,0,1,.77,4.25v4.19a10.26,10.26,0,0,1-.78,4.2,5.76,5.76,0,0,1-2.29,2.66,6.78,6.78,0,0,1-3.6.92A7.17,7.17,0,0,1,291.9,711.77Z"/><path d="M310.8,711.58a6.81,6.81,0,0,1-2.89-3,10.19,10.19,0,0,1-1-4.67v-2.17a11.45,11.45,0,0,1,.95-4.88,6.84,6.84,0,0,1,2.78-3.08,8.51,8.51,0,0,1,4.38-1.06,7.32,7.32,0,0,1,4.12,1.12,7.11,7.11,0,0,1,2.6,3.26,13.21,13.21,0,0,1,.9,5.14V704H309.2v-2.7h10.41v-.1a6.46,6.46,0,0,0-1.27-4.05,4.07,4.07,0,0,0-3.31-1.44,4.68,4.68,0,0,0-3.75,1.53,6.44,6.44,0,0,0-1.32,4.33V704a5.6,5.6,0,0,0,1.41,4.09,5.36,5.36,0,0,0,4,1.42,6.39,6.39,0,0,0,2.47-.51A6.88,6.88,0,0,0,320,707.6l2.15,2.11a10.31,10.31,0,0,1-3.19,2.13,9.22,9.22,0,0,1-3.6.75A9.6,9.6,0,0,1,310.8,711.58Z"/><path d="M327.85,693.05h3.23v19.26h-3.23Zm12.25,7.59a5,5,0,0,0-1.2-3.56,4.43,4.43,0,0,0-3.39-1.27,4.49,4.49,0,0,0-3.27,1.12,4.13,4.13,0,0,0-1.16,3.15l-.39-3.71a6.49,6.49,0,0,1,2.51-2.71,7.13,7.13,0,0,1,3.56-.89,6,6,0,0,1,4.85,2.05,8.82,8.82,0,0,1,1.71,5.8v11.69H340.1Z"/><path d="M351.58,711.69A5.87,5.87,0,0,1,349.3,709a10.31,10.31,0,0,1-.78-4.21V700.6a10.66,10.66,0,0,1,.76-4.25,5.8,5.8,0,0,1,2.22-2.68,6.42,6.42,0,0,1,3.49-.92,7.1,7.1,0,0,1,3.51.86A6.13,6.13,0,0,1,361,696.2l-.39,3.83a4.9,4.9,0,0,0-.51-2.25,3.87,3.87,0,0,0-1.49-1.59,4.51,4.51,0,0,0-2.34-.58,4.19,4.19,0,0,0-3.32,1.32,5.38,5.38,0,0,0-1.17,3.71v4.17a5.25,5.25,0,0,0,1.17,3.65,4.85,4.85,0,0,0,5.65.68,4,4,0,0,0,1.49-1.62,4.91,4.91,0,0,0,.52-2.28l.26,4a4.91,4.91,0,0,1-2.09,2.46,7.63,7.63,0,0,1-7.17,0Zm9-26.36h3.23v27h-3.23Z"/><path d="M370.44,711.07a5.51,5.51,0,0,1-1.81-4.44,5.4,5.4,0,0,1,1.66-4.25,7.09,7.09,0,0,1,4.84-1.46h5.93l.26,2.76h-6.17a3.8,3.8,0,0,0-2.55.75,2.75,2.75,0,0,0-.87,2.2,2.73,2.73,0,0,0,1.12,2.36,5.65,5.65,0,0,0,3.28.8,9.84,9.84,0,0,0,3.55-.49c.81-.32,1.22-.79,1.22-1.43l.39,2.62a4.68,4.68,0,0,1-1.36,1.16,6.8,6.8,0,0,1-1.87.71,11.32,11.32,0,0,1-2.34.23A8,8,0,0,1,370.44,711.07Zm10.46-11a4.52,4.52,0,0,0-1.13-3.28,4.28,4.28,0,0,0-3.21-1.17,7.76,7.76,0,0,0-2.48.4,6.81,6.81,0,0,0-2.14,1.12l-2.36-1.62a7.33,7.33,0,0,1,2.88-2,10.6,10.6,0,0,1,4-.73,9,9,0,0,1,4.1.85,5.8,5.8,0,0,1,2.6,2.44,7.8,7.8,0,0,1,.89,3.87v12.38H380.9Z"/><path d="M389.78,693.05H393v19.26h-3.23ZM402,700.64a5,5,0,0,0-1.2-3.56,4.39,4.39,0,0,0-3.38-1.27,4.53,4.53,0,0,0-3.28,1.12,4.17,4.17,0,0,0-1.16,3.15l-.39-3.71a6.44,6.44,0,0,1,2.52-2.71,7.09,7.09,0,0,1,3.55-.89,6,6,0,0,1,4.85,2.05,8.76,8.76,0,0,1,1.72,5.8v11.69H402Z"/><path d="M409.53,693.05h8.68v2.86h-8.68Zm3.07,18.06a5.75,5.75,0,0,1-1.09-3.81V687.45h3.23v19.89a2.35,2.35,0,0,0,.42,1.5,1.48,1.48,0,0,0,1.23.52h1.82v3H416A4.22,4.22,0,0,1,412.6,711.11Z"/><path d="M423,708.8h3.49v5.36L423,717.91Z"/><path d="M454.11,693.05h3.4l-7.42,19.26H447.6l-7.42-19.26h3.39l5.27,14.77Z"/><path d="M464,711.6a6.44,6.44,0,0,1-2.72-2.86,10.18,10.18,0,0,1-.94-4.54v-3.14a10,10,0,0,1,.94-4.48,6.44,6.44,0,0,1,2.72-2.84,9.95,9.95,0,0,1,8.57,0,6.5,6.5,0,0,1,2.72,2.84,10,10,0,0,1,.94,4.48v3.2a10,10,0,0,1-.94,4.5,6.5,6.5,0,0,1-2.72,2.84,9.77,9.77,0,0,1-8.57,0Zm7.76-3.44a5.67,5.67,0,0,0,1.24-3.9v-3.2a5.59,5.59,0,0,0-1.24-3.87,4.44,4.44,0,0,0-3.49-1.38,4.38,4.38,0,0,0-3.47,1.38,5.58,5.58,0,0,0-1.23,3.87v3.2a5.67,5.67,0,0,0,1.23,3.9,4.38,4.38,0,0,0,3.47,1.38A4.44,4.44,0,0,0,471.71,708.16Z"/><path d="M484.32,704.76a5,5,0,0,0,1.17,3.53,4.31,4.31,0,0,0,3.32,1.25,4.53,4.53,0,0,0,3.3-1.13,4.27,4.27,0,0,0,1.15-3.21l.26,4a5.62,5.62,0,0,1-2.12,2.39,6.47,6.47,0,0,1-3.65,1,6.11,6.11,0,0,1-4.92-2.05,8.69,8.69,0,0,1-1.74-5.78V693.05h3.23Zm8.94-11.71h3.21v19.26h-3.21Z"/><path d="M505.84,712.27a11.9,11.9,0,0,1-2.77-.94,10.78,10.78,0,0,1-2.33-1.56l1.89-2.32a13,13,0,0,0,3.18,1.71,9.15,9.15,0,0,0,3.13.59,7.29,7.29,0,0,0,3.83-.82,2.62,2.62,0,0,0,1.31-2.37,2,2,0,0,0-.67-1.66,3.61,3.61,0,0,0-1.67-.74c-.68-.12-1.62-.23-2.83-.33h-.36l-.35,0h-.3a16,16,0,0,1-3.18-.55,4.35,4.35,0,0,1-2.15-1.45,4.69,4.69,0,0,1-.86-3,5.82,5.82,0,0,1,.87-3.27,5.37,5.37,0,0,1,2.56-2,11,11,0,0,1,4.16-.69A14,14,0,0,1,512,693a12.59,12.59,0,0,1,2.51.77,11.4,11.4,0,0,1,2.26,1.27l-1.91,2.3a12.71,12.71,0,0,0-2.84-1.32,9.55,9.55,0,0,0-2.76-.44,6,6,0,0,0-3.34.78,2.55,2.55,0,0,0-1.15,2.26,1.71,1.71,0,0,0,.63,1.46,3.73,3.73,0,0,0,1.61.63c.64.11,1.55.19,2.71.27h.5a.25.25,0,0,1,.12,0,17,17,0,0,1,3.44.52,4.71,4.71,0,0,1,2.38,1.58,5.29,5.29,0,0,1,1,3.41,5.63,5.63,0,0,1-.93,3.3,5.69,5.69,0,0,1-2.76,2,12.51,12.51,0,0,1-4.48.7A14.74,14.74,0,0,1,505.84,712.27Z"/><path d="M544,693.05h3.4L540,712.31h-2.48l-7.42-19.26h3.39l5.27,14.77Z"/><path d="M554.09,711.58a6.75,6.75,0,0,1-2.89-3,10.19,10.19,0,0,1-1-4.67v-2.17a11.45,11.45,0,0,1,.95-4.88,6.84,6.84,0,0,1,2.78-3.08,8.51,8.51,0,0,1,4.38-1.06,7.32,7.32,0,0,1,4.12,1.12,7.11,7.11,0,0,1,2.6,3.26,13.21,13.21,0,0,1,.9,5.14V704H552.49v-2.7H562.9v-.1a6.46,6.46,0,0,0-1.27-4.05,4.07,4.07,0,0,0-3.31-1.44,4.68,4.68,0,0,0-3.75,1.53,6.44,6.44,0,0,0-1.32,4.33V704a5.6,5.6,0,0,0,1.41,4.09,5.36,5.36,0,0,0,4,1.42,6.39,6.39,0,0,0,2.47-.51,6.88,6.88,0,0,0,2.17-1.43l2.15,2.11a10.31,10.31,0,0,1-3.19,2.13,9.22,9.22,0,0,1-3.6.75A9.6,9.6,0,0,1,554.09,711.58Z"/><path d="M571.14,693.05h3.23v19.26h-3.23Zm12.24,7.59a4.94,4.94,0,0,0-1.19-3.56,4.43,4.43,0,0,0-3.39-1.27,4.49,4.49,0,0,0-3.27,1.12,4.13,4.13,0,0,0-1.16,3.15l-.39-3.71a6.49,6.49,0,0,1,2.51-2.71,7.11,7.11,0,0,1,3.55-.89,6,6,0,0,1,4.86,2.05,8.82,8.82,0,0,1,1.71,5.8v11.69h-3.23Z"/><path d="M595.69,711.58a6.75,6.75,0,0,1-2.89-3,10.19,10.19,0,0,1-1-4.67v-2.17a11.45,11.45,0,0,1,1-4.88,6.84,6.84,0,0,1,2.78-3.08,8.51,8.51,0,0,1,4.38-1.06,7.34,7.34,0,0,1,4.12,1.12,7.11,7.11,0,0,1,2.6,3.26,13.21,13.21,0,0,1,.9,5.14V704H594.09v-2.7H604.5v-.1a6.46,6.46,0,0,0-1.27-4.05,4.07,4.07,0,0,0-3.31-1.44,4.68,4.68,0,0,0-3.75,1.53,6.44,6.44,0,0,0-1.32,4.33V704a5.6,5.6,0,0,0,1.41,4.09,5.36,5.36,0,0,0,4,1.42,6.39,6.39,0,0,0,2.47-.51,7,7,0,0,0,2.17-1.43l2.15,2.11a10.31,10.31,0,0,1-3.19,2.13,9.22,9.22,0,0,1-3.6.75A9.6,9.6,0,0,1,595.69,711.58Z"/><path d="M626,695.68l-9.81,13.68h10.31v2.95H612.18V709.6L622.24,696h-9.8v-3H626Z"/><path d="M48.06,742.05h3.23v19.26H48.06Zm9.6,3.08a5.46,5.46,0,0,0-1.93-.32A4.44,4.44,0,0,0,52.45,746a4.22,4.22,0,0,0-1.16,3.16l-.39-3.71a7.06,7.06,0,0,1,2.54-2.68,6.44,6.44,0,0,1,3.44-1,7.16,7.16,0,0,1,2.38.38,5.46,5.46,0,0,1,1.87,1.12L59,746.06A3.41,3.41,0,0,0,57.66,745.13Z"/><path d="M67.23,760.58a6.78,6.78,0,0,1-2.88-3,10.06,10.06,0,0,1-1-4.67v-2.17a11.29,11.29,0,0,1,1-4.88,6.77,6.77,0,0,1,2.77-3.08,8.51,8.51,0,0,1,4.38-1.06,7.32,7.32,0,0,1,4.12,1.12,7.07,7.07,0,0,1,2.61,3.26,13.21,13.21,0,0,1,.9,5.14V753H65.63v-2.7H76v-.1a6.46,6.46,0,0,0-1.27-4.05,4.07,4.07,0,0,0-3.31-1.44,4.68,4.68,0,0,0-3.75,1.53,6.44,6.44,0,0,0-1.31,4.33V753a5.56,5.56,0,0,0,1.41,4.09,5.34,5.34,0,0,0,4,1.42,6.35,6.35,0,0,0,2.47-.51,6.88,6.88,0,0,0,2.17-1.43l2.16,2.11a10.36,10.36,0,0,1-3.2,2.13,9.15,9.15,0,0,1-3.6.75A9.6,9.6,0,0,1,67.23,760.58Z"/><path d="M84.28,742.05h3.23v19.26H84.28Zm12.25,7.59a5,5,0,0,0-1.2-3.56,4.43,4.43,0,0,0-3.39-1.27,4.49,4.49,0,0,0-3.27,1.12,4.17,4.17,0,0,0-1.16,3.15l-.39-3.71a6.49,6.49,0,0,1,2.51-2.71,7.13,7.13,0,0,1,3.56-.89A6,6,0,0,1,98,743.82a8.82,8.82,0,0,1,1.72,5.8v11.69H96.53Z"/><path d="M108.61,760.6a6.44,6.44,0,0,1-2.72-2.86,10,10,0,0,1-.94-4.54v-3.14a9.84,9.84,0,0,1,.94-4.48,6.44,6.44,0,0,1,2.72-2.84,9.95,9.95,0,0,1,8.57,0,6.5,6.5,0,0,1,2.72,2.84,10,10,0,0,1,.93,4.48v3.2a10,10,0,0,1-.93,4.5,6.5,6.5,0,0,1-2.72,2.84,9.77,9.77,0,0,1-8.57,0Zm7.76-3.44a5.67,5.67,0,0,0,1.24-3.9v-3.2a5.59,5.59,0,0,0-1.24-3.87,5.09,5.09,0,0,0-7,0,5.63,5.63,0,0,0-1.22,3.87v3.2a5.71,5.71,0,0,0,1.22,3.9,5.09,5.09,0,0,0,7,0Z"/><path d="M129,753.76a5,5,0,0,0,1.17,3.53,4.29,4.29,0,0,0,3.32,1.25,4.49,4.49,0,0,0,3.29-1.13,4.24,4.24,0,0,0,1.16-3.21l.26,4a5.62,5.62,0,0,1-2.12,2.39,6.47,6.47,0,0,1-3.65,1,6.09,6.09,0,0,1-4.92-2.05,8.69,8.69,0,0,1-1.74-5.78V742.05H129Zm8.94-11.71h3.21v19.26h-3.21Z"/><path d="M158.22,742.05h3.4l-7.42,19.26h-2.49l-7.42-19.26h3.39L153,756.82Z"/><path d="M168.28,760.58a6.86,6.86,0,0,1-2.89-3,10.19,10.19,0,0,1-1-4.67v-2.17a11.29,11.29,0,0,1,1-4.88,6.77,6.77,0,0,1,2.77-3.08,8.51,8.51,0,0,1,4.38-1.06,7.32,7.32,0,0,1,4.12,1.12,7.07,7.07,0,0,1,2.61,3.26,13.21,13.21,0,0,1,.9,5.14V753H166.68v-2.7h10.41v-.1a6.46,6.46,0,0,0-1.27-4.05,4.07,4.07,0,0,0-3.31-1.44,4.68,4.68,0,0,0-3.75,1.53,6.44,6.44,0,0,0-1.32,4.33V753a5.6,5.6,0,0,0,1.41,4.09,5.36,5.36,0,0,0,4,1.42,6.39,6.39,0,0,0,2.47-.51,6.88,6.88,0,0,0,2.17-1.43l2.15,2.11a10.31,10.31,0,0,1-3.19,2.13,9.15,9.15,0,0,1-3.6.75A9.6,9.6,0,0,1,168.28,760.58Z"/><path d="M188.56,756.28a2.25,2.25,0,0,0,.45,1.51,1.61,1.61,0,0,0,1.27.53h1.79v3h-2.23a4.19,4.19,0,0,1-3.33-1.34,5.5,5.5,0,0,1-1.18-3.77V734.33h3.23Z"/><path d="M199.56,756.28a2.2,2.2,0,0,0,.46,1.51,1.58,1.58,0,0,0,1.27.53h1.78v3h-2.23a4.22,4.22,0,0,1-3.33-1.34,5.55,5.55,0,0,1-1.18-3.77V734.33h3.23Z"/><path d="M210.66,760.58a6.81,6.81,0,0,1-2.89-3,10.19,10.19,0,0,1-1-4.67v-2.17a11.29,11.29,0,0,1,1-4.88,6.77,6.77,0,0,1,2.77-3.08,8.51,8.51,0,0,1,4.38-1.06,7.32,7.32,0,0,1,4.12,1.12,7.05,7.05,0,0,1,2.6,3.26,13.21,13.21,0,0,1,.9,5.14V753H209.06v-2.7h10.41v-.1a6.46,6.46,0,0,0-1.27-4.05,4.07,4.07,0,0,0-3.31-1.44,4.68,4.68,0,0,0-3.75,1.53,6.44,6.44,0,0,0-1.32,4.33V753a5.6,5.6,0,0,0,1.41,4.09,5.36,5.36,0,0,0,4,1.42,6.39,6.39,0,0,0,2.47-.51,6.88,6.88,0,0,0,2.17-1.43l2.15,2.11a10.31,10.31,0,0,1-3.19,2.13,9.22,9.22,0,0,1-3.6.75A9.6,9.6,0,0,1,210.66,760.58Z"/><path d="M227.71,742.05h3.23v19.26h-3.23Zm9.59,3.08a5.42,5.42,0,0,0-1.93-.32A4.42,4.42,0,0,0,232.1,746a4.18,4.18,0,0,0-1.16,3.16l-.39-3.71a7.11,7.11,0,0,1,2.53-2.68,6.47,6.47,0,0,1,3.44-1,7.18,7.18,0,0,1,2.39.38,5.32,5.32,0,0,1,1.86,1.12l-2.09,2.79A3.38,3.38,0,0,0,237.3,745.13Z"/><path d="M266,742.05h3.4L262,761.31h-2.49l-7.42-19.26h3.4l5.27,14.77Z"/><path d="M275.86,760.6a6.49,6.49,0,0,1-2.72-2.86,10.18,10.18,0,0,1-.94-4.54v-3.14a10,10,0,0,1,.94-4.48,6.5,6.5,0,0,1,2.72-2.84,9.95,9.95,0,0,1,8.57,0,6.5,6.5,0,0,1,2.72,2.84,10,10,0,0,1,.94,4.48v3.2a10,10,0,0,1-.94,4.5,6.5,6.5,0,0,1-2.72,2.84,9.77,9.77,0,0,1-8.57,0Zm7.76-3.44a5.62,5.62,0,0,0,1.24-3.9v-3.2a5.54,5.54,0,0,0-1.24-3.87,5.08,5.08,0,0,0-7,0,5.58,5.58,0,0,0-1.23,3.87v3.2a5.67,5.67,0,0,0,1.23,3.9,5.08,5.08,0,0,0,7,0Z"/><path d="M292,742.05h8.69v2.86H292Zm3.07,18.06A5.81,5.81,0,0,1,294,756.3V736.45h3.23v19.89a2.41,2.41,0,0,0,.41,1.5,1.49,1.49,0,0,0,1.24.52h1.82v3h-2.19A4.25,4.25,0,0,1,295.05,760.11Z"/><path d="M305.86,742.05h3.23v19.26h-3.23Zm9.59,3.08a5.42,5.42,0,0,0-1.93-.32,4.42,4.42,0,0,0-3.27,1.15,4.22,4.22,0,0,0-1.16,3.16l-.39-3.71a7.11,7.11,0,0,1,2.53-2.68,6.5,6.5,0,0,1,3.45-1,7.16,7.16,0,0,1,2.38.38,5.32,5.32,0,0,1,1.86,1.12l-2.09,2.79A3.38,3.38,0,0,0,315.45,745.13Z"/><path d="M325,760.58a6.86,6.86,0,0,1-2.89-3,10.19,10.19,0,0,1-1-4.67v-2.17a11.29,11.29,0,0,1,1-4.88,6.77,6.77,0,0,1,2.77-3.08,8.51,8.51,0,0,1,4.38-1.06,7.32,7.32,0,0,1,4.12,1.12,7.07,7.07,0,0,1,2.61,3.26,13.21,13.21,0,0,1,.9,5.14V753H323.43v-2.7h10.41v-.1a6.46,6.46,0,0,0-1.27-4.05,4.07,4.07,0,0,0-3.31-1.44,4.68,4.68,0,0,0-3.75,1.53,6.44,6.44,0,0,0-1.32,4.33V753a5.6,5.6,0,0,0,1.41,4.09,5.36,5.36,0,0,0,4,1.42,6.39,6.39,0,0,0,2.47-.51,6.88,6.88,0,0,0,2.17-1.43l2.15,2.11a10.31,10.31,0,0,1-3.19,2.13,9.15,9.15,0,0,1-3.6.75A9.6,9.6,0,0,1,325,760.58Z"/><path d="M355.61,760.58a6.81,6.81,0,0,1-2.89-3,10.19,10.19,0,0,1-1-4.67v-2.17a11.29,11.29,0,0,1,1-4.88,6.77,6.77,0,0,1,2.77-3.08,8.51,8.51,0,0,1,4.38-1.06,7.34,7.34,0,0,1,4.12,1.12,7.11,7.11,0,0,1,2.6,3.26,13.21,13.21,0,0,1,.9,5.14V753H354v-2.7h10.41v-.1a6.46,6.46,0,0,0-1.27-4.05,4.07,4.07,0,0,0-3.31-1.44,4.68,4.68,0,0,0-3.75,1.53,6.44,6.44,0,0,0-1.32,4.33V753a5.6,5.6,0,0,0,1.41,4.09,5.36,5.36,0,0,0,4,1.42,6.39,6.39,0,0,0,2.47-.51,6.88,6.88,0,0,0,2.17-1.43l2.15,2.11a10.31,10.31,0,0,1-3.19,2.13,9.22,9.22,0,0,1-3.6.75A9.6,9.6,0,0,1,355.61,760.58Zm2.19-23.84,5.3-6.58,2.36,1.94-5.66,6.24Z"/><path d="M375.16,760.69a5.87,5.87,0,0,1-2.28-2.67,10.31,10.31,0,0,1-.78-4.21V749.6a10.84,10.84,0,0,1,.76-4.25,5.8,5.8,0,0,1,2.22-2.68,6.45,6.45,0,0,1,3.5-.92,7.06,7.06,0,0,1,3.5.86,6.13,6.13,0,0,1,2.47,2.59l-.39,3.83a4.9,4.9,0,0,0-.51-2.25,3.87,3.87,0,0,0-1.49-1.59,4.51,4.51,0,0,0-2.34-.58,4.21,4.21,0,0,0-3.32,1.32,5.38,5.38,0,0,0-1.17,3.71v4.17a5.25,5.25,0,0,0,1.17,3.65,4.85,4.85,0,0,0,5.65.68,3.94,3.94,0,0,0,1.49-1.62,4.91,4.91,0,0,0,.52-2.28l.26,4a4.94,4.94,0,0,1-2.08,2.46,7.65,7.65,0,0,1-7.18,0Zm9-18.64h3.23v27.09h-3.23Z"/><path d="M396.37,753.76a5,5,0,0,0,1.17,3.53,4.31,4.31,0,0,0,3.32,1.25,4.53,4.53,0,0,0,3.3-1.13,4.28,4.28,0,0,0,1.16-3.21l.25,4a5.62,5.62,0,0,1-2.12,2.39,6.47,6.47,0,0,1-3.65,1,6.11,6.11,0,0,1-4.92-2.05,8.69,8.69,0,0,1-1.74-5.78V742.05h3.23Zm8.95-11.71h3.2v19.26h-3.2Z"/><path d="M414.56,734.33h3.22v3.23h-3.22Zm0,7.72h3.22v19.26h-3.22Z"/><path d="M423.81,742.05H427v27.09h-3.23Zm5.1,18.72a4.78,4.78,0,0,1-2.13-2.49l.26-4a5,5,0,0,0,.52,2.27,4,4,0,0,0,1.5,1.61,4.39,4.39,0,0,0,2.32.59,4.27,4.27,0,0,0,3.33-1.29,5.26,5.26,0,0,0,1.16-3.63v-4.17a5.4,5.4,0,0,0-1.16-3.7,4.21,4.21,0,0,0-3.33-1.31,4.48,4.48,0,0,0-2.32.57,3.93,3.93,0,0,0-1.5,1.58A4.85,4.85,0,0,0,427,749l-.39-3.71a6.27,6.27,0,0,1,2.47-2.66,7,7,0,0,1,3.51-.87,6.42,6.42,0,0,1,3.49.92,5.69,5.69,0,0,1,2.22,2.68,10.66,10.66,0,0,1,.76,4.25v4.19a10.26,10.26,0,0,1-.78,4.2,5.8,5.8,0,0,1-2.28,2.66,6.78,6.78,0,0,1-3.6.92A7.17,7.17,0,0,1,428.91,760.77Z"/><path d="M447.81,760.58a6.75,6.75,0,0,1-2.89-3,10.19,10.19,0,0,1-1-4.67v-2.17a11.45,11.45,0,0,1,.95-4.88,6.79,6.79,0,0,1,2.78-3.08,8.51,8.51,0,0,1,4.38-1.06,7.28,7.28,0,0,1,4.11,1.12,7.07,7.07,0,0,1,2.61,3.26,13.21,13.21,0,0,1,.9,5.14V753H446.21v-2.7h10.41v-.1a6.46,6.46,0,0,0-1.27-4.05,4.07,4.07,0,0,0-3.31-1.44,4.68,4.68,0,0,0-3.75,1.53,6.44,6.44,0,0,0-1.32,4.33V753a5.6,5.6,0,0,0,1.41,4.09,5.36,5.36,0,0,0,4,1.42,6.39,6.39,0,0,0,2.47-.51A7,7,0,0,0,457,756.6l2.15,2.11a10.31,10.31,0,0,1-3.19,2.13,9.22,9.22,0,0,1-3.6.75A9.6,9.6,0,0,1,447.81,760.58Z"/><path d="M464.86,742.05h3.23v19.26h-3.23Zm11.78,7.59a5.2,5.2,0,0,0-1.11-3.56,3.94,3.94,0,0,0-3.16-1.27,3.91,3.91,0,0,0-4.28,4.31l-.39-3.71a6.18,6.18,0,0,1,5.82-3.64,6.21,6.21,0,0,1,3.43.92,5.73,5.73,0,0,1,2.18,2.68,11,11,0,0,1,.74,4.25v11.69h-3.23Zm11.78,0a5.11,5.11,0,0,0-1.14-3.56,4.07,4.07,0,0,0-3.2-1.27A4,4,0,0,0,481,746a5,5,0,0,0-1.09,3.45l-.95-3.25a7.77,7.77,0,0,1,2.49-3.31,6,6,0,0,1,3.63-1.16,6.68,6.68,0,0,1,3.57.92,5.82,5.82,0,0,1,2.26,2.68,10.47,10.47,0,0,1,.78,4.25v11.69h-3.23Z"/><path d="M500.72,760.58a6.78,6.78,0,0,1-2.88-3,10.19,10.19,0,0,1-1-4.67v-2.17a11.3,11.3,0,0,1,.95-4.88,6.82,6.82,0,0,1,2.77-3.08,8.56,8.56,0,0,1,4.38-1.06,7.3,7.3,0,0,1,4.12,1.12,7.07,7.07,0,0,1,2.61,3.26,13.21,13.21,0,0,1,.9,5.14V753H499.13v-2.7h10.41v-.1a6.52,6.52,0,0,0-1.27-4.05,4.09,4.09,0,0,0-3.32-1.44,4.65,4.65,0,0,0-3.74,1.53,6.44,6.44,0,0,0-1.32,4.33V753a5.6,5.6,0,0,0,1.41,4.09,5.36,5.36,0,0,0,4,1.42,6.39,6.39,0,0,0,2.47-.51,7,7,0,0,0,2.17-1.43l2.15,2.11a10.43,10.43,0,0,1-3.19,2.13,9.22,9.22,0,0,1-3.6.75A9.64,9.64,0,0,1,500.72,760.58Z"/><path d="M517.77,742.05H521v19.26h-3.23ZM530,749.64a5,5,0,0,0-1.2-3.56,4.39,4.39,0,0,0-3.38-1.27,4.53,4.53,0,0,0-3.28,1.12,4.17,4.17,0,0,0-1.16,3.15l-.39-3.71a6.44,6.44,0,0,1,2.52-2.71,7.09,7.09,0,0,1,3.55-.89,6,6,0,0,1,4.85,2.05,8.76,8.76,0,0,1,1.72,5.8v11.69H530Z"/><path d="M537.52,742.05h8.68v2.86h-8.68Zm3.07,18.06a5.75,5.75,0,0,1-1.09-3.81V736.45h3.23v19.89a2.35,2.35,0,0,0,.42,1.5,1.48,1.48,0,0,0,1.23.52h1.82v3H544A4.22,4.22,0,0,1,540.59,760.11Z"/><path d="M564.92,760.58a6.78,6.78,0,0,1-2.88-3,10.06,10.06,0,0,1-1-4.67v-2.17a11.29,11.29,0,0,1,1-4.88,6.82,6.82,0,0,1,2.77-3.08,8.56,8.56,0,0,1,4.38-1.06,7.32,7.32,0,0,1,4.12,1.12,7.07,7.07,0,0,1,2.61,3.26,13.21,13.21,0,0,1,.9,5.14V753H563.33v-2.7h10.41v-.1a6.46,6.46,0,0,0-1.28-4.05,4.06,4.06,0,0,0-3.31-1.44,4.68,4.68,0,0,0-3.75,1.53,6.49,6.49,0,0,0-1.31,4.33V753a5.6,5.6,0,0,0,1.41,4.09,5.36,5.36,0,0,0,4,1.42A6.31,6.31,0,0,0,572,758a7,7,0,0,0,2.18-1.43l2.15,2.11a10.43,10.43,0,0,1-3.19,2.13,9.22,9.22,0,0,1-3.6.75A9.64,9.64,0,0,1,564.92,760.58Z"/><path d="M580.49,742.05h8.68v2.86h-8.68Zm3.07,18.06a5.81,5.81,0,0,1-1.08-3.81V736.45h3.22v19.89a2.35,2.35,0,0,0,.42,1.5,1.49,1.49,0,0,0,1.24.52h1.81v3H587A4.23,4.23,0,0,1,583.56,760.11Z"/><path d="M60,791.05h3.39l-7.42,19.26H53.44L46,791.05h3.4l5.27,14.77Z"/><path d="M69.79,809.6a6.49,6.49,0,0,1-2.72-2.86,10.18,10.18,0,0,1-.93-4.54v-3.14a10,10,0,0,1,.93-4.48,6.5,6.5,0,0,1,2.72-2.84,9.95,9.95,0,0,1,8.57,0,6.44,6.44,0,0,1,2.72,2.84,9.84,9.84,0,0,1,.94,4.48v3.2a9.9,9.9,0,0,1-.94,4.5,6.44,6.44,0,0,1-2.72,2.84,9.77,9.77,0,0,1-8.57,0Zm7.77-3.44a5.67,5.67,0,0,0,1.23-3.9v-3.2a5.58,5.58,0,0,0-1.23-3.87,4.46,4.46,0,0,0-3.5-1.38,4.38,4.38,0,0,0-3.47,1.38,5.58,5.58,0,0,0-1.23,3.87v3.2a5.67,5.67,0,0,0,1.23,3.9,4.38,4.38,0,0,0,3.47,1.38A4.46,4.46,0,0,0,77.56,806.16Z"/><path d="M90.16,802.76a5,5,0,0,0,1.17,3.53,4.31,4.31,0,0,0,3.32,1.25,4.51,4.51,0,0,0,3.3-1.13,4.28,4.28,0,0,0,1.16-3.21l.26,4a5.65,5.65,0,0,1-2.13,2.39,6.46,6.46,0,0,1-3.64,1,6.13,6.13,0,0,1-4.93-2.05,8.69,8.69,0,0,1-1.73-5.78V791.05h3.22Zm9-11.71h3.21v19.26H99.11Z"/><path d="M111.68,810.27a11.9,11.9,0,0,1-2.77-.94,11,11,0,0,1-2.33-1.56l1.9-2.32a12.93,12.93,0,0,0,3.17,1.71,9.2,9.2,0,0,0,3.14.59,7.25,7.25,0,0,0,3.82-.82,2.61,2.61,0,0,0,1.32-2.37,2,2,0,0,0-.67-1.66,3.69,3.69,0,0,0-1.68-.74c-.68-.12-1.62-.23-2.83-.33h-.35l-.36,0h-.29a16,16,0,0,1-3.19-.55,4.4,4.4,0,0,1-2.15-1.45,4.74,4.74,0,0,1-.86-3,5.82,5.82,0,0,1,.87-3.27,5.42,5.42,0,0,1,2.56-2,11,11,0,0,1,4.16-.69,14,14,0,0,1,2.68.26,12.59,12.59,0,0,1,2.51.77,11.47,11.47,0,0,1,2.27,1.27l-1.91,2.3a12.57,12.57,0,0,0-2.85-1.32,9.55,9.55,0,0,0-2.76-.44,6,6,0,0,0-3.34.78,2.57,2.57,0,0,0-1.15,2.26,1.71,1.71,0,0,0,.63,1.46,3.73,3.73,0,0,0,1.61.63c.65.11,1.55.19,2.72.27h.5a.23.23,0,0,1,.11,0,16.91,16.91,0,0,1,3.44.52,4.67,4.67,0,0,1,2.38,1.58,5.23,5.23,0,0,1,1,3.41,5.63,5.63,0,0,1-.93,3.3,5.71,5.71,0,0,1-2.75,2,12.54,12.54,0,0,1-4.48.7A14.83,14.83,0,0,1,111.68,810.27Z"/><path d="M138,791.05h3.23v19.26H138Zm9.59,3.08a5.42,5.42,0,0,0-1.93-.32,4.42,4.42,0,0,0-3.27,1.15,4.18,4.18,0,0,0-1.16,3.16l-.39-3.71a7.11,7.11,0,0,1,2.53-2.68,6.47,6.47,0,0,1,3.44-1,7.18,7.18,0,0,1,2.39.38,5.32,5.32,0,0,1,1.86,1.12l-2.1,2.79A3.28,3.28,0,0,0,147.57,794.13Z"/><path d="M157.15,809.58a6.75,6.75,0,0,1-2.89-3,10.19,10.19,0,0,1-1-4.67v-2.17a11.45,11.45,0,0,1,.95-4.88,6.79,6.79,0,0,1,2.78-3.08,8.51,8.51,0,0,1,4.38-1.06,7.34,7.34,0,0,1,4.12,1.12,7.11,7.11,0,0,1,2.6,3.26,13.21,13.21,0,0,1,.9,5.14V802H155.55v-2.7H166v-.1a6.46,6.46,0,0,0-1.27-4.05,4.07,4.07,0,0,0-3.31-1.44,4.68,4.68,0,0,0-3.75,1.53,6.44,6.44,0,0,0-1.32,4.33V802a5.6,5.6,0,0,0,1.41,4.09,5.36,5.36,0,0,0,4,1.42,6.39,6.39,0,0,0,2.47-.51,7,7,0,0,0,2.17-1.43l2.15,2.11a10.31,10.31,0,0,1-3.19,2.13,9.22,9.22,0,0,1-3.6.75A9.6,9.6,0,0,1,157.15,809.58Z"/><path d="M174.2,791.05h3.23v19.26H174.2Zm12.24,7.59a5,5,0,0,0-1.19-3.56,4.43,4.43,0,0,0-3.39-1.27,4.49,4.49,0,0,0-3.27,1.12,4.13,4.13,0,0,0-1.16,3.15l-.39-3.71a6.49,6.49,0,0,1,2.51-2.71,7.11,7.11,0,0,1,3.55-.89,6,6,0,0,1,4.86,2.05,8.82,8.82,0,0,1,1.71,5.8v11.69h-3.23Z"/><path d="M199,810.27a12,12,0,0,1-2.76-.94,10.78,10.78,0,0,1-2.33-1.56l1.89-2.32a13,13,0,0,0,3.18,1.71,9.15,9.15,0,0,0,3.13.59,7.23,7.23,0,0,0,3.82-.82,2.61,2.61,0,0,0,1.32-2.37,2,2,0,0,0-.67-1.66,3.6,3.6,0,0,0-1.68-.74c-.67-.12-1.61-.23-2.83-.33h-.35l-.35,0h-.3a16,16,0,0,1-3.18-.55,4.35,4.35,0,0,1-2.15-1.45,4.69,4.69,0,0,1-.87-3,5.74,5.74,0,0,1,.88-3.27,5.37,5.37,0,0,1,2.56-2,11,11,0,0,1,4.15-.69,14.1,14.1,0,0,1,2.69.26,12.79,12.79,0,0,1,2.51.77,11.4,11.4,0,0,1,2.26,1.27l-1.91,2.3a12.57,12.57,0,0,0-2.85-1.32,9.49,9.49,0,0,0-2.75-.44,5.93,5.93,0,0,0-3.34.78,2.55,2.55,0,0,0-1.15,2.26,1.71,1.71,0,0,0,.63,1.46,3.68,3.68,0,0,0,1.6.63c.65.11,1.56.19,2.72.27h.5a.2.2,0,0,1,.11,0,17,17,0,0,1,3.45.52,4.71,4.71,0,0,1,2.38,1.58,5.29,5.29,0,0,1,1,3.41,5.63,5.63,0,0,1-.93,3.3,5.69,5.69,0,0,1-2.76,2,12.51,12.51,0,0,1-4.48.7A14.9,14.9,0,0,1,199,810.27Z"/><path d="M218.45,809.58a6.78,6.78,0,0,1-2.88-3,10.06,10.06,0,0,1-1-4.67v-2.17a11.29,11.29,0,0,1,1-4.88,6.82,6.82,0,0,1,2.77-3.08,8.51,8.51,0,0,1,4.38-1.06,7.32,7.32,0,0,1,4.12,1.12,7.07,7.07,0,0,1,2.61,3.26,13.21,13.21,0,0,1,.9,5.14V802H216.86v-2.7h10.4v-.1a6.46,6.46,0,0,0-1.27-4.05,4.07,4.07,0,0,0-3.31-1.44,4.68,4.68,0,0,0-3.75,1.53,6.44,6.44,0,0,0-1.31,4.33V802a5.6,5.6,0,0,0,1.41,4.09,5.36,5.36,0,0,0,4,1.42,6.34,6.34,0,0,0,2.46-.51,6.88,6.88,0,0,0,2.17-1.43l2.16,2.11a10.36,10.36,0,0,1-3.2,2.13,9.14,9.14,0,0,1-3.59.75A9.61,9.61,0,0,1,218.45,809.58Z"/><path d="M235.78,783.33H239v3.23h-3.23Zm0,7.72H239v19.26h-3.23Z"/><path d="M247.54,809.69a5.87,5.87,0,0,1-2.28-2.67,10.31,10.31,0,0,1-.78-4.21V798.6a10.84,10.84,0,0,1,.76-4.25,5.8,5.8,0,0,1,2.22-2.68,6.45,6.45,0,0,1,3.5-.92,7.13,7.13,0,0,1,3.51.86,6.17,6.17,0,0,1,2.46,2.59l-.39,3.83a4.9,4.9,0,0,0-.51-2.25,3.87,3.87,0,0,0-1.49-1.59,4.49,4.49,0,0,0-2.34-.58,4.21,4.21,0,0,0-3.32,1.32,5.38,5.38,0,0,0-1.17,3.71v4.17a5.25,5.25,0,0,0,1.17,3.65,4.85,4.85,0,0,0,5.65.68,3.94,3.94,0,0,0,1.49-1.62,4.91,4.91,0,0,0,.52-2.28l.26,4a4.94,4.94,0,0,1-2.08,2.46,7.65,7.65,0,0,1-7.18,0Zm.06,7.64a6.22,6.22,0,0,1-2.65-2.27l2.19-2a5.47,5.47,0,0,0,1.93,1.66,5.58,5.58,0,0,0,6.14-.76,5.15,5.15,0,0,0,1.33-3.79V791.05h3.23v18.68a9.83,9.83,0,0,1-1,4.55,6.67,6.67,0,0,1-2.83,2.88,9.52,9.52,0,0,1-4.47,1A9,9,0,0,1,247.6,817.33Z"/><path d="M265.52,791.05h3.23v19.26h-3.23Zm12.25,7.59a5,5,0,0,0-1.2-3.56,4.4,4.4,0,0,0-3.38-1.27,4.53,4.53,0,0,0-3.28,1.12,4.17,4.17,0,0,0-1.16,3.15l-.39-3.71a6.44,6.44,0,0,1,2.52-2.71,7.09,7.09,0,0,1,3.55-.89,6,6,0,0,1,4.85,2.05,8.76,8.76,0,0,1,1.72,5.8v11.69h-3.23Z"/><path d="M290.07,809.58a6.78,6.78,0,0,1-2.88-3,10.06,10.06,0,0,1-1-4.67v-2.17a11.29,11.29,0,0,1,1-4.88,6.82,6.82,0,0,1,2.77-3.08,8.56,8.56,0,0,1,4.38-1.06,7.32,7.32,0,0,1,4.12,1.12,7.07,7.07,0,0,1,2.61,3.26,13.21,13.21,0,0,1,.9,5.14V802H288.48v-2.7h10.41v-.1a6.46,6.46,0,0,0-1.28-4.05,4.06,4.06,0,0,0-3.31-1.44,4.68,4.68,0,0,0-3.75,1.53,6.49,6.49,0,0,0-1.31,4.33V802a5.6,5.6,0,0,0,1.41,4.09,5.36,5.36,0,0,0,4,1.42,6.34,6.34,0,0,0,2.46-.51,6.88,6.88,0,0,0,2.17-1.43l2.16,2.11a10.43,10.43,0,0,1-3.19,2.13,9.22,9.22,0,0,1-3.6.75A9.64,9.64,0,0,1,290.07,809.58Z"/><path d="M320.41,793.68l-9.82,13.68h10.32v2.95H306.57V807.6L316.62,794h-9.79v-3h13.58Z"/><path d="M339.73,810.27a12,12,0,0,1-2.76-.94,10.78,10.78,0,0,1-2.33-1.56l1.89-2.32a13,13,0,0,0,3.18,1.71,9.15,9.15,0,0,0,3.13.59,7.25,7.25,0,0,0,3.82-.82,2.61,2.61,0,0,0,1.32-2.37,2,2,0,0,0-.67-1.66,3.6,3.6,0,0,0-1.68-.74c-.67-.12-1.61-.23-2.83-.33h-.35l-.35,0h-.3a16,16,0,0,1-3.18-.55,4.35,4.35,0,0,1-2.15-1.45,4.69,4.69,0,0,1-.86-3,5.82,5.82,0,0,1,.87-3.27,5.37,5.37,0,0,1,2.56-2,11,11,0,0,1,4.15-.69,13.92,13.92,0,0,1,2.68.26,12.48,12.48,0,0,1,2.52.77,11.4,11.4,0,0,1,2.26,1.27l-1.91,2.3a12.57,12.57,0,0,0-2.85-1.32,9.43,9.43,0,0,0-2.75-.44,6,6,0,0,0-3.34.78,2.55,2.55,0,0,0-1.15,2.26,1.71,1.71,0,0,0,.63,1.46,3.68,3.68,0,0,0,1.6.63c.65.11,1.56.19,2.72.27h.5a.2.2,0,0,1,.11,0,17,17,0,0,1,3.45.52,4.71,4.71,0,0,1,2.38,1.58,5.29,5.29,0,0,1,1,3.41,5.63,5.63,0,0,1-.93,3.3,5.69,5.69,0,0,1-2.76,2,12.51,12.51,0,0,1-4.48.7A14.9,14.9,0,0,1,339.73,810.27Z"/><path d="M359.06,802.76a5,5,0,0,0,1.17,3.53,4.29,4.29,0,0,0,3.32,1.25,4.49,4.49,0,0,0,3.29-1.13A4.28,4.28,0,0,0,368,803.2l.26,4a5.62,5.62,0,0,1-2.12,2.39,6.49,6.49,0,0,1-3.65,1,6.13,6.13,0,0,1-4.93-2.05,8.74,8.74,0,0,1-1.73-5.78V791.05h3.23ZM368,791.05h3.21v19.26H368Z"/><path d="M377,791.05h3.23v19.26H377Zm9.6,3.08a5.46,5.46,0,0,0-1.93-.32,4.44,4.44,0,0,0-3.28,1.15,4.22,4.22,0,0,0-1.16,3.16l-.39-3.71a7.06,7.06,0,0,1,2.54-2.68,6.44,6.44,0,0,1,3.44-1,7.16,7.16,0,0,1,2.38.38,5.46,5.46,0,0,1,1.87,1.12l-2.1,2.79A3.41,3.41,0,0,0,386.56,794.13Z"/><path d="M406.59,809.63a6.36,6.36,0,0,1-2.82-2.82,10.06,10.06,0,0,1-.94-4.59v-3.17a9.87,9.87,0,0,1,.95-4.54,6.34,6.34,0,0,1,2.82-2.79,9.93,9.93,0,0,1,4.56-1,11.26,11.26,0,0,1,2.86.35,8,8,0,0,1,2.34,1,6.84,6.84,0,0,1,1.78,1.7l-2.36,2.1a5.82,5.82,0,0,0-4.56-2.14,5.22,5.22,0,0,0-3.86,1.33,5.37,5.37,0,0,0-1.3,3.91v3.17a5.51,5.51,0,0,0,1.3,4,5.15,5.15,0,0,0,3.86,1.35,6,6,0,0,0,4.69-2.15l2.23,2.17a6.73,6.73,0,0,1-1.78,1.67,7.88,7.88,0,0,1-2.35,1,11.13,11.13,0,0,1-2.85.35A9.87,9.87,0,0,1,406.59,809.63Z"/><path d="M425.41,809.6a6.49,6.49,0,0,1-2.72-2.86,10.18,10.18,0,0,1-.94-4.54v-3.14a10,10,0,0,1,.94-4.48,6.5,6.5,0,0,1,2.72-2.84,9.95,9.95,0,0,1,8.57,0,6.44,6.44,0,0,1,2.72,2.84,10,10,0,0,1,.94,4.48v3.2a10,10,0,0,1-.94,4.5A6.44,6.44,0,0,1,434,809.6a9.77,9.77,0,0,1-8.57,0Zm7.77-3.44a5.67,5.67,0,0,0,1.23-3.9v-3.2a5.58,5.58,0,0,0-1.23-3.87,4.46,4.46,0,0,0-3.5-1.38,4.38,4.38,0,0,0-3.47,1.38,5.58,5.58,0,0,0-1.23,3.87v3.2a5.67,5.67,0,0,0,1.23,3.9,4.38,4.38,0,0,0,3.47,1.38A4.46,4.46,0,0,0,433.18,806.16Z"/><path d="M443,791.05h3.23v19.26H443Zm11.78,7.59a5.25,5.25,0,0,0-1.1-3.56,4,4,0,0,0-3.17-1.27,3.91,3.91,0,0,0-4.28,4.31l-.39-3.71a6.18,6.18,0,0,1,5.82-3.64,6.27,6.27,0,0,1,3.44.92,5.77,5.77,0,0,1,2.17,2.68,11,11,0,0,1,.74,4.25v11.69H454.8Zm11.78,0a5.11,5.11,0,0,0-1.14-3.56,4.07,4.07,0,0,0-3.2-1.27,4,4,0,0,0-3.12,1.23,5,5,0,0,0-1.09,3.45l-.95-3.25a7.77,7.77,0,0,1,2.49-3.31,6,6,0,0,1,3.64-1.16,6.66,6.66,0,0,1,3.56.92,5.82,5.82,0,0,1,2.26,2.68,10.47,10.47,0,0,1,.78,4.25v11.69h-3.23Z"/><path d="M475.56,791.05h3.23v19.26h-3.23Zm11.79,7.59a5.2,5.2,0,0,0-1.11-3.56,3.94,3.94,0,0,0-3.16-1.27,3.91,3.91,0,0,0-4.29,4.31l-.39-3.71a6.18,6.18,0,0,1,5.83-3.64,6.23,6.23,0,0,1,3.43.92,5.71,5.71,0,0,1,2.17,2.68,10.85,10.85,0,0,1,.74,4.25v11.69h-3.22Zm11.78,0a5.11,5.11,0,0,0-1.14-3.56,4.07,4.07,0,0,0-3.2-1.27,4,4,0,0,0-3.12,1.23,5,5,0,0,0-1.1,3.45l-.94-3.25a7.67,7.67,0,0,1,2.48-3.31,6,6,0,0,1,3.64-1.16,6.64,6.64,0,0,1,3.56.92,5.84,5.84,0,0,1,2.27,2.68,10.47,10.47,0,0,1,.78,4.25v11.69h-3.23Z"/><path d="M511.43,809.58a6.86,6.86,0,0,1-2.89-3,10.19,10.19,0,0,1-1-4.67v-2.17a11.29,11.29,0,0,1,1-4.88,6.77,6.77,0,0,1,2.77-3.08,8.51,8.51,0,0,1,4.38-1.06,7.32,7.32,0,0,1,4.12,1.12,7.07,7.07,0,0,1,2.61,3.26,13.21,13.21,0,0,1,.9,5.14V802H509.83v-2.7h10.41v-.1a6.46,6.46,0,0,0-1.27-4.05,4.07,4.07,0,0,0-3.31-1.44,4.68,4.68,0,0,0-3.75,1.53,6.44,6.44,0,0,0-1.32,4.33V802a5.6,5.6,0,0,0,1.41,4.09,5.36,5.36,0,0,0,4,1.42,6.35,6.35,0,0,0,2.47-.51,6.88,6.88,0,0,0,2.17-1.43l2.15,2.11a10.31,10.31,0,0,1-3.19,2.13,9.15,9.15,0,0,1-3.6.75A9.6,9.6,0,0,1,511.43,809.58Z"/><path d="M528.48,791.05h3.23v19.26h-3.23Zm12.25,7.59a5,5,0,0,0-1.2-3.56,4.43,4.43,0,0,0-3.39-1.27,4.49,4.49,0,0,0-3.27,1.12,4.17,4.17,0,0,0-1.16,3.15l-.39-3.71a6.49,6.49,0,0,1,2.51-2.71,7.13,7.13,0,0,1,3.56-.89,6,6,0,0,1,4.85,2.05,8.82,8.82,0,0,1,1.72,5.8v11.69h-3.23Z"/><path d="M548.22,791.05h8.69v2.86h-8.69Zm3.07,18.06a5.81,5.81,0,0,1-1.08-3.81V785.45h3.23v19.89a2.35,2.35,0,0,0,.42,1.5,1.45,1.45,0,0,0,1.23.52h1.82v3h-2.19A4.25,4.25,0,0,1,551.29,809.11Z"/><path d="M48.94,858.07a5.5,5.5,0,0,1-1.8-4.44,5.37,5.37,0,0,1,1.66-4.25,7,7,0,0,1,4.83-1.46h5.94l.26,2.76H53.65a3.78,3.78,0,0,0-2.54.75,3.1,3.1,0,0,0,.25,4.56,5.64,5.64,0,0,0,3.27.8,9.94,9.94,0,0,0,3.56-.49c.8-.32,1.21-.79,1.21-1.43l.39,2.62a4.77,4.77,0,0,1-1.35,1.16,6.87,6.87,0,0,1-1.88.71,11.18,11.18,0,0,1-2.34.23A8,8,0,0,1,48.94,858.07Zm10.46-11a4.52,4.52,0,0,0-1.13-3.28,4.28,4.28,0,0,0-3.21-1.17,7.8,7.8,0,0,0-2.48.4,6.92,6.92,0,0,0-2.14,1.12l-2.36-1.62a7.29,7.29,0,0,1,2.89-2,10.57,10.57,0,0,1,4-.73,9.09,9.09,0,0,1,4.1.85,5.85,5.85,0,0,1,2.6,2.44,7.91,7.91,0,0,1,.89,3.87v12.38H59.4Z"/><path d="M68.29,840.05h3.23v19.26H68.29Zm11.78,7.59a5.25,5.25,0,0,0-1.1-3.56,4,4,0,0,0-3.17-1.27,3.91,3.91,0,0,0-4.28,4.31l-.39-3.71A6.18,6.18,0,0,1,77,839.77a6.27,6.27,0,0,1,3.44.92,5.77,5.77,0,0,1,2.17,2.68,11,11,0,0,1,.74,4.25v11.69H80.07Zm11.78,0a5.11,5.11,0,0,0-1.14-3.56,4.07,4.07,0,0,0-3.2-1.27A4,4,0,0,0,84.39,844a5,5,0,0,0-1.09,3.45l-1-3.25a7.77,7.77,0,0,1,2.49-3.31,6,6,0,0,1,3.64-1.16,6.66,6.66,0,0,1,3.56.92,5.82,5.82,0,0,1,2.26,2.68,10.47,10.47,0,0,1,.78,4.25v11.69H91.85Z"/><path d="M104.15,858.58a6.78,6.78,0,0,1-2.88-3,10.19,10.19,0,0,1-1-4.67v-2.17a11.3,11.3,0,0,1,1-4.88,6.79,6.79,0,0,1,2.78-3.08,8.5,8.5,0,0,1,4.37-1.06,7.32,7.32,0,0,1,4.12,1.12,7.07,7.07,0,0,1,2.61,3.26,13.21,13.21,0,0,1,.9,5.14V851H102.56v-2.7H113v-.1a6.52,6.52,0,0,0-1.27-4.05,4.09,4.09,0,0,0-3.32-1.44,4.65,4.65,0,0,0-3.74,1.53,6.44,6.44,0,0,0-1.32,4.33V851a5.6,5.6,0,0,0,1.41,4.09,5.36,5.36,0,0,0,4,1.42,6.39,6.39,0,0,0,2.47-.51,7,7,0,0,0,2.17-1.43l2.15,2.11a10.31,10.31,0,0,1-3.19,2.13,9.22,9.22,0,0,1-3.6.75A9.67,9.67,0,0,1,104.15,858.58Zm2.19-23.84,5.31-6.58L114,830.1l-5.66,6.24Z"/><path d="M124.43,854.28a2.25,2.25,0,0,0,.46,1.51,1.58,1.58,0,0,0,1.27.53h1.78v3h-2.23a4.22,4.22,0,0,1-3.33-1.34,5.54,5.54,0,0,1-1.17-3.77V832.33h3.22Z"/><path d="M132.49,832.33h3.23v3.23h-3.23Zm0,7.72h3.23v19.26h-3.23Z"/><path d="M144.84,858.6a6.47,6.47,0,0,1-2.71-2.86,10,10,0,0,1-.94-4.54v-3.14a9.84,9.84,0,0,1,.94-4.48,6.47,6.47,0,0,1,2.71-2.84,10,10,0,0,1,8.58,0,6.47,6.47,0,0,1,2.71,2.84,9.84,9.84,0,0,1,.94,4.48v3.2a9.9,9.9,0,0,1-.94,4.5,6.47,6.47,0,0,1-2.71,2.84,9.79,9.79,0,0,1-8.58,0Zm7.77-3.44a5.67,5.67,0,0,0,1.23-3.9v-3.2a5.58,5.58,0,0,0-1.23-3.87,4.45,4.45,0,0,0-3.5-1.38,4.4,4.4,0,0,0-3.47,1.38,5.63,5.63,0,0,0-1.22,3.87v3.2a5.71,5.71,0,0,0,1.22,3.9,4.4,4.4,0,0,0,3.47,1.38A4.45,4.45,0,0,0,152.61,855.16Z"/><path d="M162.45,840.05h3.23v19.26h-3.23Zm9.6,3.08a5.46,5.46,0,0,0-1.93-.32,4.44,4.44,0,0,0-3.28,1.15,4.22,4.22,0,0,0-1.16,3.16l-.39-3.71a7.19,7.19,0,0,1,2.53-2.68,6.5,6.5,0,0,1,3.45-1,7.16,7.16,0,0,1,2.38.38,5.46,5.46,0,0,1,1.87,1.12l-2.1,2.79A3.41,3.41,0,0,0,172.05,843.13Z"/><path d="M181.62,858.58a6.86,6.86,0,0,1-2.89-3,10.19,10.19,0,0,1-1-4.67v-2.17a11.29,11.29,0,0,1,1-4.88,6.77,6.77,0,0,1,2.77-3.08,8.51,8.51,0,0,1,4.38-1.06,7.32,7.32,0,0,1,4.12,1.12,7.07,7.07,0,0,1,2.61,3.26,13.21,13.21,0,0,1,.9,5.14V851H180v-2.7h10.41v-.1a6.46,6.46,0,0,0-1.27-4.05,4.07,4.07,0,0,0-3.31-1.44,4.68,4.68,0,0,0-3.75,1.53,6.44,6.44,0,0,0-1.32,4.33V851a5.6,5.6,0,0,0,1.41,4.09,5.36,5.36,0,0,0,4,1.42,6.35,6.35,0,0,0,2.47-.51,6.88,6.88,0,0,0,2.17-1.43l2.16,2.11a10.47,10.47,0,0,1-3.2,2.13,9.15,9.15,0,0,1-3.6.75A9.6,9.6,0,0,1,181.62,858.58Z"/><path d="M198.67,840.05h3.23v19.26h-3.23Zm9.59,3.08a5.42,5.42,0,0,0-1.93-.32,4.42,4.42,0,0,0-3.27,1.15,4.22,4.22,0,0,0-1.16,3.16l-.39-3.71a7.11,7.11,0,0,1,2.53-2.68,6.49,6.49,0,0,1,3.44-1,7.18,7.18,0,0,1,2.39.38,5.32,5.32,0,0,1,1.86,1.12l-2.09,2.79A3.38,3.38,0,0,0,208.26,843.13Z"/><path d="M237,840.05h3.39L233,859.31h-2.49l-7.42-19.26h3.4l5.27,14.77Z"/><path d="M246.82,858.6a6.49,6.49,0,0,1-2.72-2.86,10.18,10.18,0,0,1-.93-4.54v-3.14a10,10,0,0,1,.93-4.48,6.5,6.5,0,0,1,2.72-2.84,9.95,9.95,0,0,1,8.57,0,6.44,6.44,0,0,1,2.72,2.84,9.84,9.84,0,0,1,.94,4.48v3.2a9.9,9.9,0,0,1-.94,4.5,6.44,6.44,0,0,1-2.72,2.84,9.77,9.77,0,0,1-8.57,0Zm7.77-3.44a5.67,5.67,0,0,0,1.23-3.9v-3.2a5.58,5.58,0,0,0-1.23-3.87,4.46,4.46,0,0,0-3.5-1.38,4.4,4.4,0,0,0-3.47,1.38,5.58,5.58,0,0,0-1.23,3.87v3.2a5.67,5.67,0,0,0,1.23,3.9,4.4,4.4,0,0,0,3.47,1.38A4.46,4.46,0,0,0,254.59,855.16Z"/><path d="M262.94,840.05h8.69v2.86h-8.69ZM266,858.11a5.75,5.75,0,0,1-1.09-3.81V834.45h3.23v19.89a2.35,2.35,0,0,0,.42,1.5,1.48,1.48,0,0,0,1.23.52h1.82v3h-2.19A4.22,4.22,0,0,1,266,858.11Z"/><path d="M276.82,840.05h3.23v19.26h-3.23Zm9.6,3.08a5.46,5.46,0,0,0-1.93-.32,4.44,4.44,0,0,0-3.28,1.15,4.22,4.22,0,0,0-1.16,3.16l-.39-3.71a7.19,7.19,0,0,1,2.53-2.68,6.5,6.5,0,0,1,3.45-1,7.12,7.12,0,0,1,2.38.38,5.46,5.46,0,0,1,1.87,1.12l-2.1,2.79A3.41,3.41,0,0,0,286.42,843.13Z"/><path d="M296,858.58a6.78,6.78,0,0,1-2.88-3,10.06,10.06,0,0,1-1-4.67v-2.17a11.29,11.29,0,0,1,1-4.88,6.77,6.77,0,0,1,2.77-3.08,8.51,8.51,0,0,1,4.38-1.06,7.32,7.32,0,0,1,4.12,1.12,7.07,7.07,0,0,1,2.61,3.26,13.21,13.21,0,0,1,.9,5.14V851H294.4v-2.7h10.4v-.1a6.46,6.46,0,0,0-1.27-4.05,4.06,4.06,0,0,0-3.31-1.44,4.68,4.68,0,0,0-3.75,1.53,6.49,6.49,0,0,0-1.31,4.33V851a5.6,5.6,0,0,0,1.41,4.09,5.36,5.36,0,0,0,4,1.42A6.34,6.34,0,0,0,303,856a6.88,6.88,0,0,0,2.17-1.43l2.16,2.11a10.36,10.36,0,0,1-3.2,2.13,9.14,9.14,0,0,1-3.59.75A9.61,9.61,0,0,1,296,858.58Z"/><path d="M326.57,858.58a6.86,6.86,0,0,1-2.89-3,10.19,10.19,0,0,1-1-4.67v-2.17a11.29,11.29,0,0,1,1-4.88,6.77,6.77,0,0,1,2.77-3.08,8.51,8.51,0,0,1,4.38-1.06,7.32,7.32,0,0,1,4.12,1.12,7,7,0,0,1,2.6,3.26,13.2,13.2,0,0,1,.91,5.14V851H325v-2.7h10.41v-.1a6.46,6.46,0,0,0-1.27-4.05,4.07,4.07,0,0,0-3.31-1.44,4.68,4.68,0,0,0-3.75,1.53,6.44,6.44,0,0,0-1.32,4.33V851a5.6,5.6,0,0,0,1.41,4.09,5.36,5.36,0,0,0,4,1.42,6.39,6.39,0,0,0,2.47-.51,6.88,6.88,0,0,0,2.17-1.43l2.15,2.11a10.31,10.31,0,0,1-3.19,2.13,9.15,9.15,0,0,1-3.6.75A9.6,9.6,0,0,1,326.57,858.58Z"/><path d="M348.72,848.68l1.65,2.84-5.58,7.79h-3.58Zm.11,1.7-7.42-10.33H345l5.92,8.65,7.61,10.61H355Zm.86-2.72,4.95-7.61h3.6l-7.07,10.39Z"/><path d="M362.71,840.05h3.23v27.09h-3.23Zm5.1,18.72a4.78,4.78,0,0,1-2.13-2.49l.26-4a4.84,4.84,0,0,0,.52,2.27,4.06,4.06,0,0,0,1.49,1.61,4.48,4.48,0,0,0,2.33.59,4.27,4.27,0,0,0,3.33-1.29,5.26,5.26,0,0,0,1.16-3.63v-4.17a5.4,5.4,0,0,0-1.16-3.7,4.21,4.21,0,0,0-3.33-1.31,4.57,4.57,0,0,0-2.33.57,4,4,0,0,0-1.49,1.58,4.73,4.73,0,0,0-.52,2.23l-.39-3.71a6.27,6.27,0,0,1,2.47-2.66,7,7,0,0,1,3.51-.87,6.42,6.42,0,0,1,3.49.92,5.74,5.74,0,0,1,2.22,2.68,10.66,10.66,0,0,1,.76,4.25v4.19a10.26,10.26,0,0,1-.78,4.2,5.8,5.8,0,0,1-2.28,2.66,6.78,6.78,0,0,1-3.6.92A7.17,7.17,0,0,1,367.81,858.77Z"/><path d="M386.7,858.58a6.78,6.78,0,0,1-2.88-3,10.19,10.19,0,0,1-1-4.67v-2.17a11.45,11.45,0,0,1,.95-4.88,6.79,6.79,0,0,1,2.78-3.08,8.51,8.51,0,0,1,4.38-1.06,7.28,7.28,0,0,1,4.11,1.12,7.07,7.07,0,0,1,2.61,3.26,13.21,13.21,0,0,1,.9,5.14V851H385.11v-2.7h10.41v-.1a6.52,6.52,0,0,0-1.27-4.05,4.07,4.07,0,0,0-3.31-1.44,4.67,4.67,0,0,0-3.75,1.53,6.44,6.44,0,0,0-1.32,4.33V851a5.6,5.6,0,0,0,1.41,4.09,5.36,5.36,0,0,0,4,1.42,6.39,6.39,0,0,0,2.47-.51,7,7,0,0,0,2.17-1.43l2.15,2.11a10.31,10.31,0,0,1-3.19,2.13,9.22,9.22,0,0,1-3.6.75A9.67,9.67,0,0,1,386.7,858.58Zm2.19-23.84,5.31-6.58,2.36,1.94-5.66,6.24Z"/><path d="M403.76,840.05H407v19.26h-3.22Zm9.59,3.08a5.46,5.46,0,0,0-1.93-.32,4.46,4.46,0,0,0-3.28,1.15,4.22,4.22,0,0,0-1.16,3.16l-.38-3.71a7,7,0,0,1,2.53-2.68,6.44,6.44,0,0,1,3.44-1,7.12,7.12,0,0,1,2.38.38,5.27,5.27,0,0,1,1.87,1.12l-2.1,2.79A3.34,3.34,0,0,0,413.35,843.13Z"/><path d="M420.25,832.33h3.23v3.23h-3.23Zm0,7.72h3.23v19.26h-3.23Z"/><path d="M432.83,858.58a6.78,6.78,0,0,1-2.88-3,10.06,10.06,0,0,1-1-4.67v-2.17a11.29,11.29,0,0,1,1-4.88,6.82,6.82,0,0,1,2.77-3.08,8.56,8.56,0,0,1,4.38-1.06,7.32,7.32,0,0,1,4.12,1.12,7.07,7.07,0,0,1,2.61,3.26,13.21,13.21,0,0,1,.9,5.14V851H431.24v-2.7h10.41v-.1a6.46,6.46,0,0,0-1.28-4.05,4.06,4.06,0,0,0-3.31-1.44,4.68,4.68,0,0,0-3.75,1.53,6.49,6.49,0,0,0-1.31,4.33V851a5.6,5.6,0,0,0,1.41,4.09,5.36,5.36,0,0,0,4,1.42,6.34,6.34,0,0,0,2.46-.51A6.88,6.88,0,0,0,442,854.6l2.16,2.11a10.43,10.43,0,0,1-3.19,2.13,9.22,9.22,0,0,1-3.6.75A9.61,9.61,0,0,1,432.83,858.58Z"/><path d="M449.88,840.05h3.23v19.26h-3.23Zm12.25,7.59a5,5,0,0,0-1.2-3.56,4.4,4.4,0,0,0-3.38-1.27,4.52,4.52,0,0,0-3.28,1.12,4.17,4.17,0,0,0-1.16,3.15l-.39-3.71a6.44,6.44,0,0,1,2.52-2.71,7.09,7.09,0,0,1,3.55-.89,6,6,0,0,1,4.85,2.05,8.76,8.76,0,0,1,1.72,5.8v11.69h-3.23Z"/><path d="M474.31,858.63a6.33,6.33,0,0,1-2.81-2.82,10.06,10.06,0,0,1-.95-4.59v-3.17a9.74,9.74,0,0,1,1-4.54,6.32,6.32,0,0,1,2.81-2.79,10,10,0,0,1,4.56-1,11.26,11.26,0,0,1,2.86.35,8.21,8.21,0,0,1,2.35,1,6.8,6.8,0,0,1,1.77,1.7L483.5,845a5.82,5.82,0,0,0-4.56-2.14,5.2,5.2,0,0,0-3.85,1.33,5.37,5.37,0,0,0-1.31,3.91v3.17a5.51,5.51,0,0,0,1.31,4,5.13,5.13,0,0,0,3.85,1.35,6.23,6.23,0,0,0,2.59-.54,6,6,0,0,0,2.1-1.61l2.23,2.17a6.58,6.58,0,0,1-1.78,1.67,7.67,7.67,0,0,1-2.35,1,11.13,11.13,0,0,1-2.85.35A9.9,9.9,0,0,1,474.31,858.63Z"/><path d="M493.36,858.58a6.81,6.81,0,0,1-2.89-3,10.19,10.19,0,0,1-1-4.67v-2.17a11.29,11.29,0,0,1,1-4.88,6.77,6.77,0,0,1,2.77-3.08,8.51,8.51,0,0,1,4.38-1.06,7.34,7.34,0,0,1,4.12,1.12,7.11,7.11,0,0,1,2.6,3.26,13.21,13.21,0,0,1,.9,5.14V851H491.76v-2.7h10.41v-.1a6.46,6.46,0,0,0-1.27-4.05,4.07,4.07,0,0,0-3.31-1.44,4.68,4.68,0,0,0-3.75,1.53,6.44,6.44,0,0,0-1.32,4.33V851a5.6,5.6,0,0,0,1.41,4.09,5.36,5.36,0,0,0,4,1.42,6.39,6.39,0,0,0,2.47-.51,6.88,6.88,0,0,0,2.17-1.43l2.15,2.11a10.31,10.31,0,0,1-3.19,2.13,9.22,9.22,0,0,1-3.6.75A9.6,9.6,0,0,1,493.36,858.58Z"/></svg>