<svg id="Calque_1" data-name="Calque 1" xmlns="http://www.w3.org/2000/svg" xmlns:xlink="http://www.w3.org/1999/xlink" viewBox="0 0 1151.07 957.39"><defs><style>.cls-1{fill:none;}.cls-2{clip-path:url(#clip-path);}.cls-12,.cls-19,.cls-3,.cls-7{opacity:0.74;}.cls-3{fill:url(#Degradado_sin_nombre_2);}.cls-4{fill:url(#Degradado_sin_nombre_2-2);}.cls-5{fill:url(#Degradado_sin_nombre_2-3);}.cls-18,.cls-6{opacity:0.56;}.cls-6{fill:url(#Degradado_sin_nombre_2-4);}.cls-7{fill:url(#Degradado_sin_nombre_2-5);}.cls-20,.cls-8{opacity:0.91;}.cls-8{fill:url(#Degradado_sin_nombre_2-6);}.cls-9{fill:#fff;}.cls-10{fill:url(#Degradado_sin_nombre_39);}.cls-11{clip-path:url(#clip-path-2);}.cls-12{fill:url(#Degradado_sin_nombre_3);}.cls-13{fill:url(#Degradado_sin_nombre_3-2);}.cls-14{opacity:0.62;}.cls-15{fill:url(#Degradado_sin_nombre_3-3);}.cls-16{fill:url(#Degradado_sin_nombre_41);}.cls-17{fill:url(#Degradado_sin_nombre_3-4);}.cls-18{fill:url(#Degradado_sin_nombre_3-5);}.cls-19{fill:url(#Degradado_sin_nombre_3-6);}.cls-20{fill:url(#Degradado_sin_nombre_3-7);}.cls-21{fill:#b8b9b8;}.cls-22,.cls-27{fill:#c9c7c8;}.cls-22,.cls-29,.cls-31{opacity:0.37;}.cls-23{fill:#48434a;}.cls-24{fill:#383747;}.cls-25{fill:#dfdcdd;}.cls-26{fill:#b4b2b3;}.cls-28{fill:#b8bbb9;}.cls-29,.cls-32{fill:#c7c8c8;}.cls-30{fill:#38373d;}.cls-31{fill:#5bc5fa;}.cls-32{opacity:0.15;}.cls-33{opacity:0.18;}</style><clipPath id="clip-path"><rect class="cls-1" x="1171.07" width="1149.78" height="645.87"/></clipPath><linearGradient id="Degradado_sin_nombre_2" x1="-1351.81" y1="-8921.16" x2="-2023.31" y2="-10084.24" gradientTransform="matrix(0, -1, -1, 0, -7904.26, -1177.95)" gradientUnits="userSpaceOnUse"><stop offset="0" stop-color="#ffb2f0"/><stop offset="0.04" stop-color="#f7abf1"/><stop offset="0.25" stop-color="#cc8bf4"/><stop offset="0.46" stop-color="#ab71f7"/><stop offset="0.66" stop-color="#935ff9"/><stop offset="0.84" stop-color="#8554fb"/><stop offset="1" stop-color="#8050fb"/></linearGradient><linearGradient id="Degradado_sin_nombre_2-2" x1="-1535.61" y1="-9030.8" x2="-1535.61" y2="-10104.2" xlink:href="#Degradado_sin_nombre_2"/><linearGradient id="Degradado_sin_nombre_2-3" x1="8779.33" y1="-8072.4" x2="9674.28" y2="-8072.4" gradientTransform="matrix(1, 0, 0, -1, -7643.53, -7600.63)" xlink:href="#Degradado_sin_nombre_2"/><linearGradient id="Degradado_sin_nombre_2-4" x1="8794.16" y1="-8046.31" x2="9689.1" y2="-8046.31" gradientTransform="matrix(1, 0, 0, -1, -7643.53, -7600.63)" xlink:href="#Degradado_sin_nombre_2"/><linearGradient id="Degradado_sin_nombre_2-5" x1="8731.24" y1="-8066.6" x2="9626.18" y2="-8066.6" gradientTransform="matrix(1, 0, 0, -1, -7643.53, -7600.63)" xlink:href="#Degradado_sin_nombre_2"/><linearGradient id="Degradado_sin_nombre_2-6" x1="8695.28" y1="-8086.89" x2="9590.22" y2="-8086.89" gradientTransform="matrix(1, 0, 0, -1, -7643.53, -7600.63)" xlink:href="#Degradado_sin_nombre_2"/><linearGradient id="Degradado_sin_nombre_39" x1="8298.05" y1="-10872.01" x2="9415.92" y2="-10872.01" gradientTransform="matrix(1, 0, 0, -1, -8264.85, -10549.08)" gradientUnits="userSpaceOnUse"><stop offset="0" stop-color="#00eaf7"/><stop offset="0.22" stop-color="#14bdea"/><stop offset="0.59" stop-color="#3475d4"/><stop offset="0.86" stop-color="#4747c7"/><stop offset="1" stop-color="#4f36c2"/></linearGradient><clipPath id="clip-path-2"><rect class="cls-1" width="1151.07" height="645.87"/></clipPath><linearGradient id="Degradado_sin_nombre_3" x1="-4300.11" y1="-8371.43" x2="-4972.17" y2="-9535.48" gradientTransform="matrix(0, -1, -1, 0, -8525.58, -4126.4)" gradientUnits="userSpaceOnUse"><stop offset="0" stop-color="#00eaf7"/><stop offset="0.03" stop-color="#04e1f4"/><stop offset="0.21" stop-color="#1bade5"/><stop offset="0.39" stop-color="#2d82d8"/><stop offset="0.56" stop-color="#3c61cf"/><stop offset="0.72" stop-color="#4749c8"/><stop offset="0.87" stop-color="#4d3bc3"/><stop offset="1" stop-color="#4f36c2"/></linearGradient><linearGradient id="Degradado_sin_nombre_3-2" x1="-4484.06" y1="-8481" x2="-4484.06" y2="-9555.6" xlink:href="#Degradado_sin_nombre_3"/><linearGradient id="Degradado_sin_nombre_3-3" x1="8815.57" y1="-10805.94" x2="9734.19" y2="-10805.94" gradientTransform="matrix(1, 0, 0, -1, -8264.85, -10549.08)" xlink:href="#Degradado_sin_nombre_3"/><linearGradient id="Degradado_sin_nombre_41" x1="8816.67" y1="-10794.64" x2="9735.29" y2="-10794.64" gradientTransform="matrix(1, 0, 0, -1, -8264.85, -10549.08)" gradientUnits="userSpaceOnUse"><stop offset="0" stop-color="#00eaf7"/><stop offset="0.06" stop-color="#0cceef"/><stop offset="0.16" stop-color="#1ea6e3"/><stop offset="0.27" stop-color="#2d83d9"/><stop offset="0.38" stop-color="#3a67d0"/><stop offset="0.5" stop-color="#4351ca"/><stop offset="0.63" stop-color="#4a42c5"/><stop offset="0.78" stop-color="#4e39c3"/><stop offset="1" stop-color="#4f36c2"/></linearGradient><linearGradient id="Degradado_sin_nombre_3-4" x1="8229.54" y1="-11020.84" x2="9125.49" y2="-11020.84" gradientTransform="matrix(1, 0, 0, -1, -8264.85, -10549.08)" xlink:href="#Degradado_sin_nombre_3"/><linearGradient id="Degradado_sin_nombre_3-5" x1="8244.38" y1="-10994.76" x2="9140.33" y2="-10994.76" gradientTransform="matrix(1, 0, 0, -1, -8264.85, -10549.08)" xlink:href="#Degradado_sin_nombre_3"/><linearGradient id="Degradado_sin_nombre_3-6" x1="8181.39" y1="-11015.05" x2="9077.34" y2="-11015.05" gradientTransform="matrix(1, 0, 0, -1, -8264.85, -10549.08)" xlink:href="#Degradado_sin_nombre_3"/><linearGradient id="Degradado_sin_nombre_3-7" x1="8145.39" y1="-11035.33" x2="9041.34" y2="-11035.33" gradientTransform="matrix(1, 0, 0, -1, -8264.85, -10549.08)" xlink:href="#Degradado_sin_nombre_3"/></defs><g class="cls-2"><path class="cls-3" d="M2274.45,681.72S1875.23,452.85,1801.66,204.2c-98.45-332.69-769.79-363.07-681.93-134.87,39.66,103,97.15,743.8,97.15,743.8Z"/><path class="cls-4" d="M2199.94,647.78s-368.58-211.3-436.52-440.87c-90.88-307.16-710.7-335.2-629.58-124.52,36.61,95.1,89.69,686.71,89.69,686.71Z"/><path class="cls-5" d="M1135.8,727.17V227.05s197.2-131.69,405,168.56,292,263.92,489.92,349.63Z"/><path class="cls-6" d="M1150.63,701.09V201s197.19-131.69,405,168.56,292,263.91,489.93,349.63Z"/><path class="cls-7" d="M1087.7,721.37V221.26s197.2-131.7,405,168.55,292,263.92,489.93,349.63Z"/><path class="cls-8" d="M1051.75,741.66V241.54s197.19-131.69,405,168.56,292,263.91,489.93,349.63Z"/></g><rect class="cls-9" y="589.75" width="1149.78" height="367.65" rx="77.17"/><rect class="cls-10" x="33.2" width="1117.87" height="645.87"/><g class="cls-11"><path class="cls-12" d="M1104.62,681.72S705,452.85,631.29,204.2C532.74-128.49-139.35-158.87-51.4,69.33c39.71,103,97.26,743.8,97.26,743.8Z"/><path class="cls-13" d="M1030,647.78S661,436.48,593,206.91C502-100.25-118.48-128.29-37.27,82.39-.62,177.49,52.51,769.1,52.51,769.1Z"/><g class="cls-14"><path class="cls-15" d="M550.72-143.44S655.47,190.72,974.63,170.74,1299.27,575.16,1317,657.16h152.35v-800.6Z"/></g><path class="cls-16" d="M551.82-154.74S656.57,179.43,975.73,159.45s324.64,404.41,342.35,486.42h152.36v-800.6Z"/><path class="cls-17" d="M-35.31,727.17V227.05S162.11,95.36,370.16,395.61,662.48,659.53,860.64,745.24Z"/><path class="cls-18" d="M-20.47,701.09V201S177,69.28,385,369.53,677.32,633.44,875.48,719.16Z"/><path class="cls-19" d="M-83.46,721.37V221.26S114,89.56,322,389.81,614.33,653.73,812.49,739.44Z"/><path class="cls-20" d="M-119.46,741.66V241.54S78,109.85,286,410.1,578.33,674,776.49,759.73Z"/></g><polygon class="cls-21" points="829.37 750.14 793.87 842.32 765.84 831.52 786.34 808.69 811.53 743.27 829.37 750.14"/><polygon class="cls-21" points="819.36 852.14 791.32 841.34 826.82 749.16 844.66 756.03 819.46 821.45 819.36 852.14"/><rect class="cls-22" x="802.38" y="746.35" width="15.93" height="98.78" transform="translate(340.11 -238.06) rotate(21.06)"/><rect class="cls-23" x="821.35" y="745.29" width="3.19" height="35.5" transform="translate(-184.86 1256.78) rotate(-68.94)"/><rect class="cls-23" x="819.06" y="751.23" width="3.19" height="35.5" transform="translate(-191.88 1258.45) rotate(-68.94)"/><rect class="cls-23" x="816.77" y="757.18" width="3.19" height="35.5" transform="translate(-198.9 1260.12) rotate(-68.94)"/><rect class="cls-23" x="814.48" y="763.13" width="3.19" height="35.5" transform="translate(-205.91 1261.79) rotate(-68.94)"/><rect class="cls-23" x="812.19" y="769.07" width="3.19" height="35.5" transform="translate(-212.93 1263.47) rotate(-68.94)"/><rect class="cls-23" x="809.9" y="775.02" width="3.19" height="35.5" transform="translate(-219.95 1265.14) rotate(-68.94)"/><polygon class="cls-21" points="989.94 811.98 954.44 904.16 926.4 893.36 946.91 870.53 972.1 805.11 989.94 811.98"/><polygon class="cls-21" points="979.92 913.97 951.88 903.17 987.38 811 1005.22 817.87 980.03 883.28 979.92 913.97"/><rect class="cls-22" x="962.95" y="808.19" width="15.93" height="98.78" transform="translate(373.06 -291.63) rotate(21.06)"/><rect class="cls-23" x="981.92" y="807.12" width="3.19" height="35.5" transform="translate(-139.71 1446.23) rotate(-68.94)"/><rect class="cls-23" x="979.63" y="813.07" width="3.19" height="35.5" transform="translate(-146.72 1447.9) rotate(-68.94)"/><rect class="cls-23" x="977.33" y="819.02" width="3.19" height="35.5" transform="translate(-153.74 1449.58) rotate(-68.94)"/><rect class="cls-23" x="975.04" y="824.96" width="3.19" height="35.5" transform="translate(-160.76 1451.25) rotate(-68.94)"/><rect class="cls-23" x="972.75" y="830.91" width="3.19" height="35.5" transform="translate(-167.77 1452.92) rotate(-68.94)"/><rect class="cls-23" x="970.46" y="836.86" width="3.19" height="35.5" transform="translate(-174.79 1454.59) rotate(-68.94)"/><path class="cls-24" d="M737.28,728.34a23.75,23.75,0,0,0,8.46,13.5c7.78,6.41,108.41,55.41,108.41,55.41l8-20.82Z"/><path class="cls-24" d="M1070.31,856.59a23.69,23.69,0,0,1-15.33,4.34c-10.06-.46-117.57-31.62-117.57-31.62l8-20.81Z"/><path class="cls-25" d="M1048.08,417.81,903.8,792.46,737.28,728.34c8-20.82,47.84-53.28,81.47-60.82s100.91-67,117.17-91.45,13.74-35.69,41.44-89.89a166.63,166.63,0,0,1,9.79-16.72c1.22-1.85,2.49-3.65,3.74-5.39a147.87,147.87,0,0,1,26-27.56,127.56,127.56,0,0,1,23-15.13A71.25,71.25,0,0,1,1048.08,417.81Z"/><path class="cls-25" d="M1070.31,856.59,903.8,792.46l144.28-374.65a69.84,69.84,0,0,1,3.69,8.15,128,128,0,0,1,6.94,26.67,149.26,149.26,0,0,1,.75,37.85l-.14,1.07-.63,4.92-.06.52a163.88,163.88,0,0,1-4,19c-15.81,58.79-25.19,65.42-29.55,94.47s5.67,118.27,25.56,146.42S1078.33,835.78,1070.31,856.59Z"/><rect class="cls-25" x="831.04" y="641.11" width="228.24" height="89.98" transform="translate(-34.77 1321.55) rotate(-68.94)"/><path class="cls-26" d="M945.76,559.37S831.55,749.54,826.49,762.69l35.68,13.74Z"/><path class="cls-26" d="M1029,591.43s-42.85,217.65-47.91,230.81L945.43,808.5Z"/><path class="cls-27" d="M1024.62,613.67s-9.42,191-12.85,199.89l-6.87,17.84-41.63-16Z"/><path class="cls-27" d="M934.1,578.82S813,726.77,809.57,735.69l-6.87,17.84,41.63,16Z"/><path class="cls-28" d="M931.28,721.1,903.8,792.46l-53.52-20.61,12.59-32.71c8.49-22,36.59-22.57,54-20.57A111.93,111.93,0,0,1,931.28,721.1Z"/><path class="cls-28" d="M969.92,780.37l-12.6,32.71L903.8,792.46l27.48-71.36a110.7,110.7,0,0,1,12.37,7.77C957.92,739.08,978.4,758.34,969.92,780.37Z"/><path class="cls-24" d="M904.3,795.59l-12.92,33.55a2.65,2.65,0,0,1-2.37,1.71,2.37,2.37,0,0,1-1.17-.14l-26.11-10.06a2.72,2.72,0,0,1-1.52-1.44l-15.55-35a2.77,2.77,0,0,1,0-2.1l3.18-8.26a2.76,2.76,0,0,1,3.55-1.57l51.38,19.78a2.37,2.37,0,0,1,1,.68A2.65,2.65,0,0,1,904.3,795.59Z"/><polygon class="cls-24" points="845.89 778.81 848.79 771.28 905.28 793.04 901.85 801.96 845.89 778.81"/><path class="cls-24" d="M957.82,816.21l-3.18,8.26A2.71,2.71,0,0,1,953.2,826l-35,15.54a2.78,2.78,0,0,1-2.1.05L890,831.53a2.31,2.31,0,0,1-1-.68,2.66,2.66,0,0,1-.6-2.86l12.92-33.54a2.67,2.67,0,0,1,2.36-1.72,2.4,2.4,0,0,1,1.18.15l51.38,19.78A2.76,2.76,0,0,1,957.82,816.21Z"/><polygon class="cls-24" points="955.91 821.18 958.81 813.65 902.31 791.89 898.88 800.81 955.91 821.18"/><path class="cls-29" d="M943.65,728.87l-41.36,107.4L890,831.53a2.31,2.31,0,0,1-1-.68,2.37,2.37,0,0,1-1.17-.14L875.53,826l41.36-107.4a111.93,111.93,0,0,1,14.39,2.53A110.7,110.7,0,0,1,943.65,728.87Z"/><path class="cls-30" d="M1059.46,490.48l-34.28-13.2-34.29-13.21c-1.25,1.74-2.52,3.54-3.74,5.39l35.74,13.76L1058.63,497Z"/><path class="cls-30" d="M1058.71,452.63l-41.87-16.12a127.56,127.56,0,0,1,23-15.13,71.25,71.25,0,0,1,8.2-3.57,69.84,69.84,0,0,1,3.69,8.15A128,128,0,0,1,1058.71,452.63Z"/><path class="cls-31" d="M1046.07,468.25c-1.27,3.28-9.09,3.33-17.46.11s-14.13-8.51-12.87-11.79a2.66,2.66,0,0,1,.66-1c2.36-2.29,9.37-2,16.79.86.9.35,1.76.71,2.57,1.1C1042.72,460.79,1047.2,465.32,1046.07,468.25Z"/><path class="cls-31" d="M1036.28,461.75c-1.26,3.28-6.68,4.26-12.1,2.17-4.68-1.8-7.84-5.29-7.78-8.32,2.36-2.29,9.37-2,16.79.86.9.35,1.76.71,2.57,1.1A4.93,4.93,0,0,1,1036.28,461.75Z"/><path class="cls-32" d="M1051.85,425.74,933.79,732.31l-11.89-4.58L1040,421.16a68,68,0,0,1,8.12-3.35A69.21,69.21,0,0,1,1051.85,425.74Z"/><g class="cls-33"><path d="M761,717.33a.35.35,0,0,0-.27.13c-.08.1-.07.26,0,.47s.08.2.17.45c.47,1.37.94,2.58,1.39,3.63-.32.75-.67,1.59-1,2.53l-.14.34a7.09,7.09,0,0,1-.44-1c-.89-2.41-1.52-3.77-1.91-4.08a.3.3,0,0,0-.47.06.42.42,0,0,0-.06.38,6.35,6.35,0,0,0,.42.84,19.45,19.45,0,0,1,.89,2c.11.28.24.59.36.92.19.49.3.78.35.87.24.53.4.88.47,1.06a0,0,0,0,1,0,0c.17.36.34.7.5,1,0,.11.11.2.16.31.3.55.48.88.55,1a9.44,9.44,0,0,0,.64,1,3.43,3.43,0,0,0,.54.65.45.45,0,0,0,.3.1.46.46,0,0,0,.36-.14c.1-.13.06-.3-.12-.5a13.56,13.56,0,0,1-2-3.24l-.12-.24a17.94,17.94,0,0,1,1.15-3A19,19,0,0,0,765,727a.57.57,0,0,0,.34.13.44.44,0,0,0,.39-.13c.1-.13.06-.31-.13-.56a16.39,16.39,0,0,1-2.22-3.82l-.06-.12a1.11,1.11,0,0,0-.07-.16c-.15-.33-.34-.78-.51-1.16v0c-.07-.15-.16-.38-.28-.68a.39.39,0,0,1,0-.06h0c-.12-.35-.28-.78-.46-1.31l-.36-1a1.6,1.6,0,0,0-.41-.67A.37.37,0,0,0,761,717.33Z"/><path d="M768.77,718.72a6.69,6.69,0,0,1,.79,3.11,1.71,1.71,0,0,1-.31.95,1.05,1.05,0,0,1-1,.48,3.79,3.79,0,0,1-2.28-1.41,15.44,15.44,0,0,1-2.59-3.62,6.65,6.65,0,0,1-.91-3.14,1.85,1.85,0,0,1,2-1.81,4.48,4.48,0,0,1,1.44.32,3.77,3.77,0,0,1,1,.57.35.35,0,0,1,.17.31.34.34,0,0,1-.11.25.32.32,0,0,1-.2.09.58.58,0,0,1-.25-.1,4.43,4.43,0,0,0-1.23-.54A15.29,15.29,0,0,1,768.77,718.72Zm-4.24-4.67a1.12,1.12,0,0,0-.79.24,1.24,1.24,0,0,0-.4.91,6,6,0,0,0,.87,3,15.09,15.09,0,0,0,2.17,3c.71.77,1.28,1.16,1.72,1.18a.53.53,0,0,0,.49-.24,1,1,0,0,0,.15-.53,4.52,4.52,0,0,0-.23-1.49,10.37,10.37,0,0,0-1.09-2.36,25.58,25.58,0,0,0-2.2-2.88,1.81,1.81,0,0,1-.36-.54.36.36,0,0,1,.13-.24Z"/><path d="M769,708.18a1.52,1.52,0,0,0-1.14.59,4.56,4.56,0,0,0-.34.55c-.11.22-.24.5-.36.81-.2-.15-.36-.14-.5,0a.29.29,0,0,0-.08.24,1.31,1.31,0,0,0,.12.24l0,0a.24.24,0,0,0,.06.09l.14.2v0l.66,1.06v0a6.06,6.06,0,0,1,.38.67h0l.21.42s0,0,0,0c.22.44.47,1,.76,1.64h0c.36.73.71,1.46.82,1.69l0,.07a11.85,11.85,0,0,0,1.57,2.62.45.45,0,0,0,.3.09.35.35,0,0,0,.3-.13c.1-.13.06-.32-.13-.6-.07-.09-.3-.45-.68-1.07-.24-.4-.61-1.11-1.1-2.13l-.12-.21a2.75,2.75,0,0,0,.42-.43,4.87,4.87,0,0,0,.87-1.8,5.18,5.18,0,0,0,0-2.38,3.38,3.38,0,0,0-1.13-2A1.65,1.65,0,0,0,769,708.18Zm1.37,1.65a5,5,0,0,1,.24,2.27A3.77,3.77,0,0,1,770,714a4.59,4.59,0,0,1-.39.39c-.14-.27-.43-.85-.86-1.74a15,15,0,0,0-1-1.72,4.63,4.63,0,0,1,.27-.89,3.62,3.62,0,0,1,.44-.74,1.32,1.32,0,0,1,.67-.52.71.71,0,0,1,.65.16A2,2,0,0,1,770.39,709.83Z"/><path d="M772.84,708.46l.14-.25a14.88,14.88,0,0,1,1.11-1.91c.18-.23.37-.27.56-.13a.3.3,0,0,1,.13.34,1.26,1.26,0,0,1-.19.36,11.77,11.77,0,0,0-1.39,2.47,17.85,17.85,0,0,0,1,2.16,12.92,12.92,0,0,0,.9,1.53c0-.1.07-.21.11-.32a14.19,14.19,0,0,1,.59-1.5,6.41,6.41,0,0,1,.67-1.06,1.22,1.22,0,0,1,.42-.39.32.32,0,0,1,.34.06.27.27,0,0,1,.1.33,1.69,1.69,0,0,1-.24.37,7.59,7.59,0,0,0-1.34,3.21.89.89,0,0,1-.12.32.44.44,0,0,1-.38.16.57.57,0,0,1-.36-.11,8.05,8.05,0,0,1-.75-1.16,29.47,29.47,0,0,1-1.82-3.76c-.18-.44-.45-1.21-.82-2.33-.09-.25-.18-.5-.26-.74a.35.35,0,0,1-.47,0,.34.34,0,0,1-.13-.39,6.5,6.5,0,0,1,.61-1.32,17.86,17.86,0,0,1,1.46-2.24c.25-.33.46-.42.63-.29a.46.46,0,0,1,.18.41.72.72,0,0,1-.15.31l-.11.12-.14.19a12.56,12.56,0,0,0-.83,1.23,8.68,8.68,0,0,0-.68,1.3.32.32,0,0,1,.18.05,1.55,1.55,0,0,1,.23.6l.2.6C772.46,707.49,772.67,708.09,772.84,708.46Z"/><path d="M781.19,705a.32.32,0,0,1,.21-.21.39.39,0,0,1,.24,0,1.61,1.61,0,0,1,.62.39.57.57,0,0,1,.23.59c-.07.21-.21.28-.45.21a1.51,1.51,0,0,1-.65-.44A.55.55,0,0,1,781.19,705Zm-6.71-6.89a.26.26,0,0,1,.19-.19.43.43,0,0,1,.25,0,3.07,3.07,0,0,1,.92.73q2.63,2.64,4.3,4.62c.19.22.32.35.38.41s.26.35.22.47a.29.29,0,0,1-.23.19.44.44,0,0,1-.3,0,1.25,1.25,0,0,1-.47-.35l-.59-.71c-.5-.54-1-1.08-1.46-1.61L776.08,700l-.74-.77c-.21-.23-.44-.45-.67-.66S774.43,698.25,774.48,698.09Z"/><path d="M783.27,702.56a.29.29,0,0,1,.23-.18.37.37,0,0,1,.25,0,1.55,1.55,0,0,1,.56.45.58.58,0,0,1,.16.62c-.09.2-.24.25-.47.15a1.46,1.46,0,0,1-.6-.52A.56.56,0,0,1,783.27,702.56Zm-5.85-7.63a.25.25,0,0,1,.21-.17.43.43,0,0,1,.25,0,3.2,3.2,0,0,1,.83.83q2.29,2.93,3.72,5.1l.33.45c.17.21.22.37.17.49a.29.29,0,0,1-.25.16.47.47,0,0,1-.31,0,1.2,1.2,0,0,1-.42-.41l-.51-.77-1.25-1.78-1.4-1.82c-.28-.36-.49-.65-.65-.86s-.38-.49-.59-.73S777.35,695.07,777.42,694.93Z"/><path d="M768,712.7a4,4,0,0,1,.21.42Z"/></g><path class="cls-9" d="M161.93,103.14v27.73q0,15.82-6.4,27.88a45.21,45.21,0,0,1-18.11,18.65q-11.71,6.6-27.15,6.6t-27.39-6.2a44.42,44.42,0,0,1-18.36-17.53Q58,148.93,58,134V92.1q0-15.81,6.4-27.83a45.23,45.23,0,0,1,18.12-18.6q11.71-6.6,27.14-6.6a52.9,52.9,0,0,1,23.44,5.23A48.67,48.67,0,0,1,151,59.09a54.37,54.37,0,0,1,9.72,22.17H131.85A18.77,18.77,0,0,0,127,73.5a22.81,22.81,0,0,0-7.91-5,26.55,26.55,0,0,0-9.43-1.71,24.73,24.73,0,0,0-12.55,3.12,21.32,21.32,0,0,0-8.39,8.89,28.46,28.46,0,0,0-3,13.28V134a22.46,22.46,0,0,0,3,11.72,20,20,0,0,0,8.59,7.81,28.93,28.93,0,0,0,12.89,2.73,25.82,25.82,0,0,0,12.65-3,20.2,20.2,0,0,0,8.35-8.64,28.77,28.77,0,0,0,2.93-13.38v-2.34H112.71V103.14Z"/><path class="cls-9" d="M225,40.54h17l54.3,142H267.5l-34-97-34,97H170.72ZM196.79,134H271.5v25.78H196.79Z"/><path class="cls-9" d="M403.24,40.54h35.25v142H414.18V72.28l1,6.25L388,166.71H364.37L337.22,80.48l1-8.2V182.53H313.88v-142h35.26l27.05,95.7Z"/><path class="cls-9" d="M559.1,40.54h35.25v142H570V72.28l1,6.25-27.15,88.18H520.23L493.08,80.48l1-8.2V182.53H469.74v-142H505l27,95.7Z"/><path class="cls-9" d="M625.6,40.54h26.76v142H625.6Zm9.67,0h85.45V66.32H635.27Zm0,58.59H710v25.78H635.27Zm0,57.62h85.45v25.78H635.27Z"/><path class="cls-9" d="M61,222.54H87.71v142H61ZM74.43,338.75h34.08q13.18,0,20.41-6.35t7.23-18V272.64q0-11.62-7.23-18t-20.41-6.35H74.43V222.54h33.5q17.76,0,30.32,6a42.21,42.21,0,0,1,19.09,17.38q6.54,11.43,6.54,27.54v40.23q0,15.33-6.3,26.76a42.92,42.92,0,0,1-18.89,17.77q-12.6,6.36-30.86,6.35H74.43Z"/><path class="cls-9" d="M216,364.53H188.3v-142H216Z"/><path class="cls-9" d="M270.08,364a85.2,85.2,0,0,1-18.26-6,70.06,70.06,0,0,1-15.28-9.52l12.4-22.07a60,60,0,0,0,18.95,10.4A67.93,67.93,0,0,0,290,340.41q13.08,0,20.31-4.44t7.23-12.55v-.1q0-5.65-3.23-9a19.1,19.1,0,0,0-8.39-4.89,103,103,0,0,0-13.29-2.83,1.82,1.82,0,0,0-.53-.1,1.85,1.85,0,0,1-.54-.09l-2.15-.3a131.75,131.75,0,0,1-23.63-5.61,34.83,34.83,0,0,1-15.92-11.82q-6.54-8.44-6.54-24v-.1q0-13.77,6.15-23.54A38.84,38.84,0,0,1,267.3,226.2q11.71-5.13,28.32-5.13a72.28,72.28,0,0,1,15.58,1.76,84.54,84.54,0,0,1,15.57,5.08,86.39,86.39,0,0,1,14.46,8L329.9,258.57a71.87,71.87,0,0,0-17.14-8.78,51.72,51.72,0,0,0-17.14-3.13q-12.3,0-19,4.05t-6.74,11.38v.1q0,6.15,3.52,9.71a21,21,0,0,0,8.69,5.23,137.83,137.83,0,0,0,14.55,3.52,7.09,7.09,0,0,0,.78.14,5.36,5.36,0,0,1,.78.15,9.21,9.21,0,0,1,1.12.24c.36.1.74.18,1.13.25a119,119,0,0,1,22.51,6.39A35.08,35.08,0,0,1,338,299.93q6.06,8.35,6.06,22.8v.2q0,13.57-6.35,23.24t-18.5,14.75Q307,366,290,366A96.55,96.55,0,0,1,270.08,364Z"/><path class="cls-9" d="M385.27,359.8a41.43,41.43,0,0,1-17.58-18.07q-6.06-11.87-6.05-28.66v-39q0-16.8,6.05-28.66a41.7,41.7,0,0,1,17.58-18.12q11.52-6.24,27.73-6.25a49.11,49.11,0,0,1,23.93,5.77,47.12,47.12,0,0,1,17.43,16.74q6.88,11,9.52,26.52H436.15a35.61,35.61,0,0,0-4.84-12,23.14,23.14,0,0,0-7.91-7.62,20.62,20.62,0,0,0-10.4-2.64,25,25,0,0,0-12.79,3.08,20,20,0,0,0-8.06,9,33.22,33.22,0,0,0-2.78,14.21v39a32.89,32.89,0,0,0,2.78,14.16,20,20,0,0,0,8.06,8.93A25,25,0,0,0,413,339.24a21.39,21.39,0,0,0,10.55-2.59,22.12,22.12,0,0,0,7.91-7.57A35.1,35.1,0,0,0,436.15,317h27.73q-2.73,15.52-9.62,26.52a47.22,47.22,0,0,1-17.38,16.74A48.72,48.72,0,0,1,413,366Q396.8,366,385.27,359.8Z"/><path class="cls-9" d="M506.12,359.5a45.1,45.1,0,0,1-18.21-18.36q-6.45-11.86-6.45-27.49V273.42q0-15.63,6.45-27.49a45.1,45.1,0,0,1,18.21-18.36q11.76-6.49,27.2-6.5t27.19,6.5a45.18,45.18,0,0,1,18.22,18.36q6.43,11.87,6.44,27.49v40.23q0,15.63-6.44,27.49a45.18,45.18,0,0,1-18.22,18.36q-11.76,6.5-27.19,6.5T506.12,359.5ZM546,336.16a21,21,0,0,0,8.45-8.74,27.76,27.76,0,0,0,3-13.08V272.73a27.79,27.79,0,0,0-3-13.08,21,21,0,0,0-8.45-8.74,27.7,27.7,0,0,0-25.39,0,21,21,0,0,0-8.45,8.74,27.78,27.78,0,0,0-3,13.08v41.61a27.75,27.75,0,0,0,3,13.08,21,21,0,0,0,8.45,8.74,27.7,27.7,0,0,0,25.39,0Z"/><path class="cls-9" d="M598.84,222.54h27.54l30.18,94.73,30.17-94.73h27.54L667,364.53h-20.9Z"/><path class="cls-9" d="M731.85,222.54h26.76v142H731.85Zm9.67,0H827v25.78H741.52Zm0,58.59h74.71v25.78H741.52Zm0,57.62H827v25.78H741.52Z"/><path class="cls-9" d="M851.38,222.44h26.76V364.53H851.38ZM862,281.62h49.41a12.86,12.86,0,0,0,7.23-2.05,13.35,13.35,0,0,0,4.83-5.86,22.45,22.45,0,0,0,1.81-8.79,21.27,21.27,0,0,0-1.71-8.79,13.35,13.35,0,0,0-4.83-5.86,13.13,13.13,0,0,0-7.33-2.05H862V222.44h51.56a39.61,39.61,0,0,1,20.61,5.28A35.69,35.69,0,0,1,948,242.61a53.46,53.46,0,0,1,0,44.63,35.67,35.67,0,0,1-13.82,14.89,39.65,39.65,0,0,1-20.56,5.27H862ZM891.91,303l28.61-4.49,38.29,66H926.38Z"/><path class="cls-9" d="M1028.82,309.75v54.78h-26.75V309.75l-41.8-87.21h28l27.15,61.13,27.14-61.13h28Z"/><path d="M45.89,685.33h3.46l7.13,22.17,7.12-22.17h3.47l-9.07,27H55Z"/><path d="M72,711.6a6.49,6.49,0,0,1-2.72-2.86,10.18,10.18,0,0,1-.94-4.54v-3.14a10,10,0,0,1,.94-4.48A6.5,6.5,0,0,1,72,693.74a9.95,9.95,0,0,1,8.57,0,6.5,6.5,0,0,1,2.72,2.84,10,10,0,0,1,.94,4.48v3.2a10,10,0,0,1-.94,4.5,6.5,6.5,0,0,1-2.72,2.84,9.77,9.77,0,0,1-8.57,0Zm7.76-3.44a5.62,5.62,0,0,0,1.24-3.9v-3.2a5.56,5.56,0,0,0-1.24-3.87,5.08,5.08,0,0,0-7,0,5.6,5.6,0,0,0-1.23,3.87v3.2a5.67,5.67,0,0,0,1.23,3.9,5.08,5.08,0,0,0,7,0Z"/><path d="M88.15,693.05h8.69v2.86H88.15Zm3.07,18.06a5.81,5.81,0,0,1-1.08-3.81V687.45h3.23v19.89a2.41,2.41,0,0,0,.41,1.5,1.49,1.49,0,0,0,1.24.52h1.82v3H94.65A4.25,4.25,0,0,1,91.22,711.11Z"/><path d="M102,693.05h3.23v19.26H102Zm9.59,3.08a5.42,5.42,0,0,0-1.93-.32,4.46,4.46,0,0,0-3.27,1.14,4.28,4.28,0,0,0-1.16,3.17l-.39-3.71a7.11,7.11,0,0,1,2.53-2.68,6.5,6.5,0,0,1,3.45-1,7.16,7.16,0,0,1,2.38.38,5.32,5.32,0,0,1,1.86,1.12L113,697.06A3.38,3.38,0,0,0,111.62,696.13Z"/><path d="M121.2,711.58a6.86,6.86,0,0,1-2.89-3,10.19,10.19,0,0,1-1-4.67v-2.17a11.29,11.29,0,0,1,1-4.88,6.77,6.77,0,0,1,2.77-3.08,8.51,8.51,0,0,1,4.38-1.06,7.4,7.4,0,0,1,4.12,1.12,7.07,7.07,0,0,1,2.61,3.26,13.39,13.39,0,0,1,.9,5.14V704H119.6v-2.7H130v-.1a6.46,6.46,0,0,0-1.27-4.05,4.07,4.07,0,0,0-3.31-1.44,4.68,4.68,0,0,0-3.75,1.53,6.44,6.44,0,0,0-1.32,4.33V704a5.6,5.6,0,0,0,1.41,4.09,5.36,5.36,0,0,0,4,1.42,6.39,6.39,0,0,0,2.47-.51,6.88,6.88,0,0,0,2.17-1.43l2.15,2.11a10.31,10.31,0,0,1-3.19,2.13,9.15,9.15,0,0,1-3.6.75A9.6,9.6,0,0,1,121.2,711.58Z"/><path d="M151,711.69a5.87,5.87,0,0,1-2.28-2.67,10.31,10.31,0,0,1-.78-4.21V700.6a10.66,10.66,0,0,1,.76-4.25,5.8,5.8,0,0,1,2.22-2.68,6.42,6.42,0,0,1,3.49-.92,7.1,7.1,0,0,1,3.51.86,6.13,6.13,0,0,1,2.47,2.59L160,700a4.9,4.9,0,0,0-.51-2.25,3.87,3.87,0,0,0-1.49-1.59,4.51,4.51,0,0,0-2.34-.58,4.19,4.19,0,0,0-3.32,1.32,5.39,5.39,0,0,0-1.17,3.71v4.17a5.25,5.25,0,0,0,1.17,3.65,4.24,4.24,0,0,0,3.32,1.29,4.37,4.37,0,0,0,2.33-.6,4.1,4.1,0,0,0,1.49-1.63,4.91,4.91,0,0,0,.52-2.28l.26,4a4.91,4.91,0,0,1-2.09,2.46,7.63,7.63,0,0,1-7.17,0Zm9-26.36h3.23v27H160Z"/><path d="M172.26,711.58a6.78,6.78,0,0,1-2.88-3,10.06,10.06,0,0,1-1-4.67v-2.17a11.29,11.29,0,0,1,1-4.88,6.82,6.82,0,0,1,2.77-3.08,8.51,8.51,0,0,1,4.38-1.06,7.4,7.4,0,0,1,4.12,1.12,7.07,7.07,0,0,1,2.61,3.26,13.21,13.21,0,0,1,.9,5.14V704H170.67v-2.7h10.4v-.1a6.46,6.46,0,0,0-1.27-4.05,4.06,4.06,0,0,0-3.31-1.44,4.68,4.68,0,0,0-3.75,1.53,6.44,6.44,0,0,0-1.31,4.33V704a5.6,5.6,0,0,0,1.41,4.09,5.36,5.36,0,0,0,4,1.42,6.34,6.34,0,0,0,2.46-.51,6.88,6.88,0,0,0,2.17-1.43l2.16,2.11a10.36,10.36,0,0,1-3.2,2.13,9.14,9.14,0,0,1-3.59.75A9.61,9.61,0,0,1,172.26,711.58Zm2.19-23.84,5.31-6.59,2.35,2-5.66,6.24Z"/><path d="M189.31,693.05h3.23v27.09h-3.23Zm5.1,18.72a4.73,4.73,0,0,1-2.13-2.49l.26-4a4.84,4.84,0,0,0,.52,2.27,4,4,0,0,0,1.49,1.61,4.46,4.46,0,0,0,2.33.59,4.24,4.24,0,0,0,3.32-1.29,5.21,5.21,0,0,0,1.17-3.63v-4.17a5.35,5.35,0,0,0-1.17-3.7,4.19,4.19,0,0,0-3.32-1.31,4.55,4.55,0,0,0-2.33.57,3.91,3.91,0,0,0-1.49,1.58,4.73,4.73,0,0,0-.52,2.23l-.39-3.71a6.27,6.27,0,0,1,2.47-2.66,7,7,0,0,1,3.51-.87,6.42,6.42,0,0,1,3.49.92,5.8,5.8,0,0,1,2.22,2.68,10.66,10.66,0,0,1,.76,4.25v4.19a10.26,10.26,0,0,1-.78,4.2,5.8,5.8,0,0,1-2.28,2.66,6.78,6.78,0,0,1-3.6.92A7.14,7.14,0,0,1,194.41,711.77Z"/><path d="M210.86,711.06a5.47,5.47,0,0,1-1.81-4.43,5.38,5.38,0,0,1,1.67-4.25,7,7,0,0,1,4.83-1.46h5.94l.26,2.76h-6.18a3.78,3.78,0,0,0-2.54.75,3.1,3.1,0,0,0,.25,4.56,5.61,5.61,0,0,0,3.27.8,10.07,10.07,0,0,0,3.55-.49c.81-.32,1.22-.8,1.22-1.43l.39,2.62a4.68,4.68,0,0,1-1.36,1.16,6.38,6.38,0,0,1-1.87.71,11.18,11.18,0,0,1-2.34.23A8,8,0,0,1,210.86,711.06Zm10.46-11a4.56,4.56,0,0,0-1.13-3.29,4.31,4.31,0,0,0-3.21-1.16,7.8,7.8,0,0,0-2.48.4,6.92,6.92,0,0,0-2.14,1.12L210,695.55a7.29,7.29,0,0,1,2.89-2,10.57,10.57,0,0,1,4-.73,9.23,9.23,0,0,1,4.1.84,5.91,5.91,0,0,1,2.59,2.45,7.8,7.8,0,0,1,.9,3.87v12.38h-3.14Z"/><path d="M230.21,693.05h3.23v19.26h-3.23Zm9.59,3.08a5.46,5.46,0,0,0-1.93-.32A4.46,4.46,0,0,0,234.6,697a4.24,4.24,0,0,0-1.16,3.17l-.39-3.71a7,7,0,0,1,2.53-2.68,6.44,6.44,0,0,1,3.44-1,7.12,7.12,0,0,1,2.38.38,5.27,5.27,0,0,1,1.87,1.12l-2.1,2.79A3.34,3.34,0,0,0,239.8,696.13Z"/><path d="M244.94,693.05h8.68v2.86h-8.68ZM248,711.11a5.81,5.81,0,0,1-1.09-3.81V687.45h3.23v19.89a2.35,2.35,0,0,0,.42,1.5,1.48,1.48,0,0,0,1.23.52h1.82v3h-2.19A4.23,4.23,0,0,1,248,711.11Z"/><path d="M272.34,711.58a6.78,6.78,0,0,1-2.88-3,10.19,10.19,0,0,1-1-4.67v-2.17a11.45,11.45,0,0,1,.95-4.88,6.79,6.79,0,0,1,2.78-3.08,8.51,8.51,0,0,1,4.38-1.06,7.36,7.36,0,0,1,4.11,1.12,7.07,7.07,0,0,1,2.61,3.26,13.21,13.21,0,0,1,.9,5.14V704H270.75v-2.7h10.41v-.1a6.46,6.46,0,0,0-1.27-4.05,4.07,4.07,0,0,0-3.31-1.44,4.67,4.67,0,0,0-3.75,1.53,6.44,6.44,0,0,0-1.32,4.33V704a5.6,5.6,0,0,0,1.41,4.09,5.36,5.36,0,0,0,4,1.42,6.39,6.39,0,0,0,2.47-.51,7,7,0,0,0,2.17-1.43l2.15,2.11a10.31,10.31,0,0,1-3.19,2.13,9.22,9.22,0,0,1-3.6.75A9.67,9.67,0,0,1,272.34,711.58Z"/><path d="M293,712.27a11.47,11.47,0,0,1-2.77-.95,10.06,10.06,0,0,1-2.33-1.55l1.89-2.32a13,13,0,0,0,3.18,1.71,9.15,9.15,0,0,0,3.13.59,7.29,7.29,0,0,0,3.83-.82,2.62,2.62,0,0,0,1.31-2.37,2,2,0,0,0-.67-1.66,3.61,3.61,0,0,0-1.67-.74c-.68-.12-1.62-.23-2.83-.33h-.36c-.12,0-.24,0-.35,0h-.3a16,16,0,0,1-3.18-.55,4.29,4.29,0,0,1-2.15-1.45,4.69,4.69,0,0,1-.86-3,5.82,5.82,0,0,1,.87-3.27,5.31,5.31,0,0,1,2.56-2,11,11,0,0,1,4.16-.69,14.07,14.07,0,0,1,2.68.26,12.59,12.59,0,0,1,2.51.77,11.4,11.4,0,0,1,2.26,1.27l-1.91,2.3a12.23,12.23,0,0,0-2.84-1.31,9.25,9.25,0,0,0-2.76-.45,6,6,0,0,0-3.34.78,2.55,2.55,0,0,0-1.15,2.26,1.71,1.71,0,0,0,.63,1.46,3.61,3.61,0,0,0,1.61.63c.65.11,1.55.19,2.71.27h.51a.23.23,0,0,1,.11,0,17,17,0,0,1,3.44.52,4.71,4.71,0,0,1,2.38,1.58,5.23,5.23,0,0,1,1,3.41,5.63,5.63,0,0,1-.93,3.3,5.69,5.69,0,0,1-2.76,2,12.47,12.47,0,0,1-4.48.7A14.74,14.74,0,0,1,293,712.27Z"/><path d="M307.62,693.05h8.68v2.86h-8.68Zm3.07,18.06a5.75,5.75,0,0,1-1.09-3.81V687.45h3.23v19.89a2.35,2.35,0,0,0,.42,1.5,1.48,1.48,0,0,0,1.23.52h1.82v3h-2.19A4.22,4.22,0,0,1,310.69,711.11Z"/><path d="M332,685.33h3.23v3.23H332Zm0,7.72h3.23v19.26H332Z"/><path d="M341.24,693.05h3.23v19.26h-3.23ZM353,700.64a5.29,5.29,0,0,0-1.1-3.57,4,4,0,0,0-3.17-1.26,3.91,3.91,0,0,0-4.28,4.31l-.39-3.71a6.18,6.18,0,0,1,5.82-3.64,6.27,6.27,0,0,1,3.44.92,5.77,5.77,0,0,1,2.17,2.68,11,11,0,0,1,.74,4.25v11.69H353Zm11.78,0a5.15,5.15,0,0,0-1.14-3.57,4.1,4.1,0,0,0-3.2-1.26,4,4,0,0,0-3.12,1.23,5,5,0,0,0-1.09,3.45l-.95-3.25a7.77,7.77,0,0,1,2.49-3.31,6,6,0,0,1,3.64-1.16,6.66,6.66,0,0,1,3.56.92,5.82,5.82,0,0,1,2.26,2.68,10.47,10.47,0,0,1,.78,4.25v11.69H364.8Z"/><path d="M373.78,693.05H377v19.26h-3.23Zm11.79,7.59a5.25,5.25,0,0,0-1.11-3.57,4,4,0,0,0-3.16-1.26,3.91,3.91,0,0,0-4.29,4.31l-.39-3.71a6.18,6.18,0,0,1,5.83-3.64,6.23,6.23,0,0,1,3.43.92,5.71,5.71,0,0,1,2.17,2.68,10.85,10.85,0,0,1,.74,4.25v11.69h-3.22Zm11.78,0a5.15,5.15,0,0,0-1.14-3.57,4.1,4.1,0,0,0-3.2-1.26,4,4,0,0,0-3.12,1.23,5,5,0,0,0-1.1,3.45l-.94-3.25a7.67,7.67,0,0,1,2.48-3.31,6,6,0,0,1,3.64-1.16,6.64,6.64,0,0,1,3.56.92,5.84,5.84,0,0,1,2.27,2.68,10.47,10.47,0,0,1,.78,4.25v11.69h-3.23Z"/><path d="M406.61,685.33h3.22v3.23h-3.22Zm0,7.72h3.22v19.26h-3.22Z"/><path d="M415.87,693.05h3.22v19.26h-3.22Zm12.24,7.59a5,5,0,0,0-1.2-3.57,4.42,4.42,0,0,0-3.38-1.26,4.53,4.53,0,0,0-3.28,1.12,4.17,4.17,0,0,0-1.16,3.15l-.39-3.71a6.39,6.39,0,0,1,2.52-2.71,7.09,7.09,0,0,1,3.55-.89,6,6,0,0,1,4.85,2.05,8.76,8.76,0,0,1,1.72,5.8v11.69h-3.23Z"/><path d="M440.41,711.58a6.78,6.78,0,0,1-2.88-3,10.19,10.19,0,0,1-1-4.67v-2.17a11.3,11.3,0,0,1,.95-4.88,6.82,6.82,0,0,1,2.77-3.08,8.56,8.56,0,0,1,4.38-1.06,7.4,7.4,0,0,1,4.12,1.12,7.07,7.07,0,0,1,2.61,3.26,13.21,13.21,0,0,1,.9,5.14V704H438.82v-2.7h10.41v-.1a6.52,6.52,0,0,0-1.27-4.05,4.09,4.09,0,0,0-3.32-1.44,4.65,4.65,0,0,0-3.74,1.53,6.44,6.44,0,0,0-1.32,4.33V704a5.6,5.6,0,0,0,1.41,4.09,5.36,5.36,0,0,0,4,1.42,6.39,6.39,0,0,0,2.47-.51,7,7,0,0,0,2.17-1.43l2.15,2.11a10.43,10.43,0,0,1-3.19,2.13,9.22,9.22,0,0,1-3.6.75A9.64,9.64,0,0,1,440.41,711.58Z"/><path d="M457.46,693.05h3.23v19.26h-3.23Zm12.25,7.59a5,5,0,0,0-1.2-3.57,4.42,4.42,0,0,0-3.38-1.26,4.53,4.53,0,0,0-3.28,1.12,4.17,4.17,0,0,0-1.16,3.15l-.39-3.71a6.39,6.39,0,0,1,2.52-2.71,7.09,7.09,0,0,1,3.55-.89,6,6,0,0,1,4.85,2.05,8.76,8.76,0,0,1,1.72,5.8v11.69h-3.23Z"/><path d="M477.21,693.05h8.68v2.86h-8.68Zm3.07,18.06a5.75,5.75,0,0,1-1.09-3.81V687.45h3.23v19.89a2.35,2.35,0,0,0,.42,1.5,1.48,1.48,0,0,0,1.23.52h1.82v3H483.7A4.22,4.22,0,0,1,480.28,711.11Z"/><path d="M501.72,708.8h3.49v3.51h-3.49Zm.13-23.47h3.23v20.43h-3.23Z"/><path d="M519.36,685.33h3.47L530,707.5l7.12-22.17h3.47l-9.07,27h-3Z"/><path d="M545.73,711.58a6.86,6.86,0,0,1-2.89-3,10.19,10.19,0,0,1-1-4.67v-2.17a11.29,11.29,0,0,1,1-4.88,6.77,6.77,0,0,1,2.77-3.08,8.51,8.51,0,0,1,4.38-1.06,7.4,7.4,0,0,1,4.12,1.12,7.07,7.07,0,0,1,2.61,3.26,13.21,13.21,0,0,1,.9,5.14V704H544.13v-2.7h10.41v-.1a6.46,6.46,0,0,0-1.27-4.05,4.07,4.07,0,0,0-3.31-1.44,4.68,4.68,0,0,0-3.75,1.53,6.44,6.44,0,0,0-1.32,4.33V704a5.6,5.6,0,0,0,1.41,4.09,5.36,5.36,0,0,0,4,1.42,6.35,6.35,0,0,0,2.47-.51,6.88,6.88,0,0,0,2.17-1.43l2.15,2.11a10.31,10.31,0,0,1-3.19,2.13,9.15,9.15,0,0,1-3.6.75A9.6,9.6,0,0,1,545.73,711.58Z"/><path d="M562.78,693.05H566v19.26h-3.23ZM575,700.64a5,5,0,0,0-1.2-3.57,5.26,5.26,0,0,0-6.66-.14,4.17,4.17,0,0,0-1.16,3.15l-.39-3.71a6.43,6.43,0,0,1,2.51-2.71,7.13,7.13,0,0,1,3.56-.89,6,6,0,0,1,4.85,2.05,8.82,8.82,0,0,1,1.72,5.8v11.69H575Z"/><path d="M587.33,711.58a6.86,6.86,0,0,1-2.89-3,10.19,10.19,0,0,1-1-4.67v-2.17a11.29,11.29,0,0,1,1-4.88,6.77,6.77,0,0,1,2.77-3.08,8.51,8.51,0,0,1,4.38-1.06,7.4,7.4,0,0,1,4.12,1.12,7.07,7.07,0,0,1,2.61,3.26,13.21,13.21,0,0,1,.9,5.14V704H585.73v-2.7h10.41v-.1a6.46,6.46,0,0,0-1.27-4.05,4.07,4.07,0,0,0-3.31-1.44,4.68,4.68,0,0,0-3.75,1.53,6.44,6.44,0,0,0-1.32,4.33V704a5.6,5.6,0,0,0,1.41,4.09,5.36,5.36,0,0,0,4,1.42,6.39,6.39,0,0,0,2.47-.51,6.88,6.88,0,0,0,2.17-1.43l2.15,2.11a10.31,10.31,0,0,1-3.19,2.13,9.15,9.15,0,0,1-3.6.75A9.6,9.6,0,0,1,587.33,711.58Z"/><path d="M617.67,695.68l-9.82,13.68h10.32v2.95H603.82V709.6L613.88,696h-9.8v-3h13.59Z"/><path d="M48.3,742.05h3.23v27.09H48.3Zm5.09,18.72a4.72,4.72,0,0,1-2.12-2.49l.26-4a4.84,4.84,0,0,0,.52,2.27,3.92,3.92,0,0,0,1.49,1.61,4.43,4.43,0,0,0,2.33.59,4.26,4.26,0,0,0,3.32-1.29,5.21,5.21,0,0,0,1.17-3.63v-4.17a5.35,5.35,0,0,0-1.17-3.7,4.2,4.2,0,0,0-3.32-1.31,4.52,4.52,0,0,0-2.33.57,3.84,3.84,0,0,0-1.49,1.58,4.73,4.73,0,0,0-.52,2.23l-.39-3.71a6.25,6.25,0,0,1,2.46-2.66,7,7,0,0,1,3.51-.87,6.45,6.45,0,0,1,3.5.92,5.8,5.8,0,0,1,2.22,2.68,10.84,10.84,0,0,1,.76,4.25v4.19a10.26,10.26,0,0,1-.78,4.2,5.76,5.76,0,0,1-2.29,2.66,6.77,6.77,0,0,1-3.59.92A7.18,7.18,0,0,1,53.39,760.77Z"/><path d="M69,742.05H72.2v19.26H69Zm9.59,3.08a5.46,5.46,0,0,0-1.93-.32A4.46,4.46,0,0,0,73.36,746a4.24,4.24,0,0,0-1.16,3.17l-.39-3.71a7,7,0,0,1,2.53-2.68,6.44,6.44,0,0,1,3.44-1,7.22,7.22,0,0,1,2.39.38A5.32,5.32,0,0,1,82,743.27l-2.1,2.79A3.34,3.34,0,0,0,78.56,745.13Z"/><path d="M88.13,760.58a6.78,6.78,0,0,1-2.88-3,10.19,10.19,0,0,1-1-4.67v-2.17a11.3,11.3,0,0,1,.95-4.88A6.79,6.79,0,0,1,88,742.83a8.5,8.5,0,0,1,4.37-1.06,7.38,7.38,0,0,1,4.12,1.12,7.07,7.07,0,0,1,2.61,3.26,13.21,13.21,0,0,1,.9,5.14V753H86.54v-2.7H97v-.1a6.52,6.52,0,0,0-1.27-4.05,4.09,4.09,0,0,0-3.32-1.44,4.65,4.65,0,0,0-3.74,1.53,6.44,6.44,0,0,0-1.32,4.33V753a5.6,5.6,0,0,0,1.41,4.09,5.36,5.36,0,0,0,4,1.42,6.39,6.39,0,0,0,2.47-.51,7,7,0,0,0,2.17-1.43l2.15,2.11a10.31,10.31,0,0,1-3.19,2.13,9.22,9.22,0,0,1-3.6.75A9.67,9.67,0,0,1,88.13,760.58Zm2.19-23.84,5.31-6.59,2.36,2-5.66,6.24Z"/><path d="M105.19,742.05h3.22v27.09h-3.22Zm5.09,18.72a4.78,4.78,0,0,1-2.13-2.49l.26-4a5,5,0,0,0,.52,2.27,4,4,0,0,0,1.5,1.61,4.43,4.43,0,0,0,2.33.59,4.26,4.26,0,0,0,3.32-1.29,5.21,5.21,0,0,0,1.17-3.63v-4.17a5.35,5.35,0,0,0-1.17-3.7,4.2,4.2,0,0,0-3.32-1.31,4.52,4.52,0,0,0-2.33.57,3.93,3.93,0,0,0-1.5,1.58,4.85,4.85,0,0,0-.52,2.23L108,745.3a6.33,6.33,0,0,1,2.47-2.66,7,7,0,0,1,3.51-.87,6.45,6.45,0,0,1,3.5.92,5.73,5.73,0,0,1,2.21,2.68,10.65,10.65,0,0,1,.77,4.25v4.19a10.26,10.26,0,0,1-.78,4.2,5.76,5.76,0,0,1-2.29,2.66,6.78,6.78,0,0,1-3.6.92A7.17,7.17,0,0,1,110.28,760.77Z"/><path d="M126.74,760.06a5.44,5.44,0,0,1-1.81-4.43,5.37,5.37,0,0,1,1.66-4.25,7.08,7.08,0,0,1,4.83-1.46h5.94l.26,2.76h-6.18a3.79,3.79,0,0,0-2.54.75,2.75,2.75,0,0,0-.87,2.2,2.7,2.7,0,0,0,1.12,2.36,5.64,5.64,0,0,0,3.27.8,10.13,10.13,0,0,0,3.56-.49c.81-.32,1.21-.8,1.21-1.43l.39,2.62a4.77,4.77,0,0,1-1.35,1.16,6.56,6.56,0,0,1-1.88.71,11.15,11.15,0,0,1-2.33.23A8,8,0,0,1,126.74,760.06Zm10.45-11a4.52,4.52,0,0,0-1.13-3.29,4.28,4.28,0,0,0-3.21-1.16,7.8,7.8,0,0,0-2.48.4,6.92,6.92,0,0,0-2.14,1.12l-2.36-1.62a7.36,7.36,0,0,1,2.89-2,10.57,10.57,0,0,1,4-.73,9.2,9.2,0,0,1,4.1.84,5.93,5.93,0,0,1,2.6,2.45,7.91,7.91,0,0,1,.89,3.87v12.38h-3.14Z"/><path d="M146.08,742.05h3.23v19.26h-3.23Zm9.59,3.08a5.42,5.42,0,0,0-1.93-.32,4.46,4.46,0,0,0-3.27,1.14,4.28,4.28,0,0,0-1.16,3.17l-.39-3.71a7.11,7.11,0,0,1,2.53-2.68,6.47,6.47,0,0,1,3.44-1,7.18,7.18,0,0,1,2.39.38,5.32,5.32,0,0,1,1.86,1.12l-2.09,2.79A3.38,3.38,0,0,0,155.67,745.13Z"/><path d="M165.25,760.58a6.81,6.81,0,0,1-2.89-3,10.19,10.19,0,0,1-1-4.67v-2.17a11.29,11.29,0,0,1,1-4.88,6.77,6.77,0,0,1,2.77-3.08,8.51,8.51,0,0,1,4.38-1.06,7.4,7.4,0,0,1,4.12,1.12,7.11,7.11,0,0,1,2.6,3.26,13.21,13.21,0,0,1,.9,5.14V753H163.65v-2.7h10.41v-.1a6.46,6.46,0,0,0-1.27-4.05,4.07,4.07,0,0,0-3.31-1.44,4.68,4.68,0,0,0-3.75,1.53,6.44,6.44,0,0,0-1.32,4.33V753a5.6,5.6,0,0,0,1.41,4.09,5.36,5.36,0,0,0,4,1.42,6.39,6.39,0,0,0,2.47-.51,6.88,6.88,0,0,0,2.17-1.43l2.15,2.11a10.31,10.31,0,0,1-3.19,2.13,9.22,9.22,0,0,1-3.6.75A9.6,9.6,0,0,1,165.25,760.58Z"/><path d="M182.3,742.05h3.23v19.26H182.3Zm9.59,3.08a5.46,5.46,0,0,0-1.93-.32,4.46,4.46,0,0,0-3.27,1.14,4.24,4.24,0,0,0-1.16,3.17l-.39-3.71a7.11,7.11,0,0,1,2.53-2.68,6.47,6.47,0,0,1,3.44-1,7.18,7.18,0,0,1,2.39.38,5.32,5.32,0,0,1,1.86,1.12l-2.1,2.79A3.28,3.28,0,0,0,191.89,745.13Z"/><path d="M220.61,742.05H224l-7.42,19.26H214.1l-7.42-19.26h3.4l5.26,14.77Z"/><path d="M230.45,760.6a6.44,6.44,0,0,1-2.72-2.86,10,10,0,0,1-.94-4.54v-3.14a9.84,9.84,0,0,1,.94-4.48,6.44,6.44,0,0,1,2.72-2.84,9.95,9.95,0,0,1,8.57,0,6.5,6.5,0,0,1,2.72,2.84,10,10,0,0,1,.94,4.48v3.2a10,10,0,0,1-.94,4.5A6.5,6.5,0,0,1,239,760.6a9.77,9.77,0,0,1-8.57,0Zm7.76-3.44a5.62,5.62,0,0,0,1.24-3.9v-3.2a5.56,5.56,0,0,0-1.24-3.87,4.44,4.44,0,0,0-3.49-1.38,4.38,4.38,0,0,0-3.47,1.38,5.6,5.6,0,0,0-1.23,3.87v3.2a5.67,5.67,0,0,0,1.23,3.9,4.38,4.38,0,0,0,3.47,1.38A4.44,4.44,0,0,0,238.21,757.16Z"/><path d="M246.57,742.05h8.69v2.86h-8.69Zm3.07,18.06a5.81,5.81,0,0,1-1.08-3.81V736.45h3.23v19.89a2.41,2.41,0,0,0,.41,1.5,1.49,1.49,0,0,0,1.24.52h1.82v3h-2.19A4.25,4.25,0,0,1,249.64,760.11Z"/><path d="M260.45,742.05h3.23v19.26h-3.23Zm9.59,3.08a5.42,5.42,0,0,0-1.93-.32,4.46,4.46,0,0,0-3.27,1.14,4.28,4.28,0,0,0-1.16,3.17l-.39-3.71a7.11,7.11,0,0,1,2.53-2.68,6.49,6.49,0,0,1,3.44-1,7.18,7.18,0,0,1,2.39.38,5.32,5.32,0,0,1,1.86,1.12l-2.09,2.79A3.38,3.38,0,0,0,270,745.13Z"/><path d="M279.62,760.58a6.81,6.81,0,0,1-2.89-3,10.19,10.19,0,0,1-1-4.67v-2.17a11.29,11.29,0,0,1,1-4.88,6.77,6.77,0,0,1,2.77-3.08,8.51,8.51,0,0,1,4.38-1.06,7.4,7.4,0,0,1,4.12,1.12,7.05,7.05,0,0,1,2.6,3.26,13.21,13.21,0,0,1,.9,5.14V753H278v-2.7h10.41v-.1a6.46,6.46,0,0,0-1.27-4.05,4.07,4.07,0,0,0-3.31-1.44,4.68,4.68,0,0,0-3.75,1.53,6.44,6.44,0,0,0-1.32,4.33V753a5.6,5.6,0,0,0,1.41,4.09,5.36,5.36,0,0,0,4,1.42,6.39,6.39,0,0,0,2.47-.51,6.88,6.88,0,0,0,2.17-1.43l2.15,2.11a10.31,10.31,0,0,1-3.19,2.13,9.22,9.22,0,0,1-3.6.75A9.6,9.6,0,0,1,279.62,760.58Z"/><path d="M306.88,742.05h3.22v27.09h-3.22ZM312,760.77a4.78,4.78,0,0,1-2.13-2.49l.26-4a5,5,0,0,0,.52,2.27,4,4,0,0,0,1.5,1.61,4.43,4.43,0,0,0,2.33.59,4.26,4.26,0,0,0,3.32-1.29,5.21,5.21,0,0,0,1.17-3.63v-4.17a5.35,5.35,0,0,0-1.17-3.7,4.2,4.2,0,0,0-3.32-1.31,4.52,4.52,0,0,0-2.33.57,3.93,3.93,0,0,0-1.5,1.58,4.85,4.85,0,0,0-.52,2.23l-.39-3.71a6.27,6.27,0,0,1,2.47-2.66,7,7,0,0,1,3.51-.87,6.48,6.48,0,0,1,3.5.92,5.73,5.73,0,0,1,2.21,2.68,10.66,10.66,0,0,1,.76,4.25v4.19a10.26,10.26,0,0,1-.78,4.2,5.74,5.74,0,0,1-2.28,2.66,6.78,6.78,0,0,1-3.6.92A7.17,7.17,0,0,1,312,760.77Z"/><path d="M327.54,742.05h3.23v19.26h-3.23Zm9.6,3.08a5.46,5.46,0,0,0-1.93-.32,4.5,4.5,0,0,0-3.28,1.14,4.28,4.28,0,0,0-1.16,3.17l-.39-3.71a7.13,7.13,0,0,1,2.54-2.68,6.44,6.44,0,0,1,3.44-1,7.12,7.12,0,0,1,2.38.38,5.36,5.36,0,0,1,1.87,1.12l-2.1,2.79A3.41,3.41,0,0,0,337.14,745.13Z"/><path d="M346.71,760.58a6.78,6.78,0,0,1-2.88-3,10.06,10.06,0,0,1-1-4.67v-2.17a11.29,11.29,0,0,1,1-4.88,6.82,6.82,0,0,1,2.77-3.08,8.56,8.56,0,0,1,4.38-1.06,7.4,7.4,0,0,1,4.12,1.12,7.07,7.07,0,0,1,2.61,3.26,13.21,13.21,0,0,1,.9,5.14V753H345.12v-2.7h10.41v-.1a6.46,6.46,0,0,0-1.28-4.05,4.06,4.06,0,0,0-3.31-1.44,4.68,4.68,0,0,0-3.75,1.53,6.49,6.49,0,0,0-1.31,4.33V753a5.6,5.6,0,0,0,1.41,4.09,5.36,5.36,0,0,0,4,1.42,6.34,6.34,0,0,0,2.46-.51,7,7,0,0,0,2.18-1.43l2.15,2.11a10.43,10.43,0,0,1-3.19,2.13,9.22,9.22,0,0,1-3.6.75A9.64,9.64,0,0,1,346.71,760.58Z"/><path d="M363.76,742.05H367v19.26h-3.23Zm11.79,7.59a5.25,5.25,0,0,0-1.11-3.57,4,4,0,0,0-3.16-1.26,3.91,3.91,0,0,0-4.29,4.31l-.39-3.71a6.18,6.18,0,0,1,5.83-3.64,6.23,6.23,0,0,1,3.43.92,5.71,5.71,0,0,1,2.17,2.68,10.85,10.85,0,0,1,.74,4.25v11.69h-3.22Zm11.78,0a5.15,5.15,0,0,0-1.14-3.57,4.1,4.1,0,0,0-3.2-1.26,4,4,0,0,0-3.12,1.23,5,5,0,0,0-1.1,3.45l-.94-3.25a7.67,7.67,0,0,1,2.48-3.31,6,6,0,0,1,3.64-1.16,6.64,6.64,0,0,1,3.56.92,5.84,5.84,0,0,1,2.27,2.68,10.47,10.47,0,0,1,.78,4.25v11.69h-3.23Z"/><path d="M396.59,734.33h3.23v3.23h-3.23Zm0,7.72h3.23v19.26h-3.23Z"/><path d="M409.17,760.58a6.81,6.81,0,0,1-2.89-3,10.19,10.19,0,0,1-1-4.67v-2.17a11.45,11.45,0,0,1,.95-4.88,6.84,6.84,0,0,1,2.78-3.08,8.51,8.51,0,0,1,4.38-1.06,7.4,7.4,0,0,1,4.12,1.12,7.11,7.11,0,0,1,2.6,3.26,13.21,13.21,0,0,1,.9,5.14V753H407.57v-2.7H418v-.1a6.46,6.46,0,0,0-1.27-4.05,4.07,4.07,0,0,0-3.31-1.44,4.68,4.68,0,0,0-3.75,1.53,6.44,6.44,0,0,0-1.32,4.33V753a5.6,5.6,0,0,0,1.41,4.09,5.36,5.36,0,0,0,4,1.42,6.39,6.39,0,0,0,2.47-.51,6.88,6.88,0,0,0,2.17-1.43l2.15,2.11a10.31,10.31,0,0,1-3.19,2.13,9.22,9.22,0,0,1-3.6.75A9.6,9.6,0,0,1,409.17,760.58Z"/><path d="M426.22,742.05h3.23v19.26h-3.23Zm9.59,3.08a5.46,5.46,0,0,0-1.93-.32,4.46,4.46,0,0,0-3.27,1.14,4.24,4.24,0,0,0-1.16,3.17l-.39-3.71a7,7,0,0,1,2.53-2.68,6.47,6.47,0,0,1,3.44-1,7.18,7.18,0,0,1,2.39.38,5.32,5.32,0,0,1,1.86,1.12l-2.1,2.79A3.28,3.28,0,0,0,435.81,745.13Z"/><path d="M455.87,756.28a2.25,2.25,0,0,0,.45,1.51,1.58,1.58,0,0,0,1.27.53h1.79v3h-2.23a4.19,4.19,0,0,1-3.33-1.34,5.5,5.5,0,0,1-1.18-3.77V734.33h3.23Z"/><path d="M466.74,760.6a6.49,6.49,0,0,1-2.72-2.86,10.18,10.18,0,0,1-.93-4.54v-3.14a10,10,0,0,1,.93-4.48,6.5,6.5,0,0,1,2.72-2.84,9.95,9.95,0,0,1,8.57,0,6.44,6.44,0,0,1,2.72,2.84,9.84,9.84,0,0,1,.94,4.48v3.2a9.9,9.9,0,0,1-.94,4.5,6.44,6.44,0,0,1-2.72,2.84,9.77,9.77,0,0,1-8.57,0Zm7.77-3.44a5.67,5.67,0,0,0,1.23-3.9v-3.2a5.6,5.6,0,0,0-1.23-3.87,4.46,4.46,0,0,0-3.5-1.38,4.4,4.4,0,0,0-3.47,1.38,5.6,5.6,0,0,0-1.22,3.87v3.2a5.66,5.66,0,0,0,1.22,3.9,4.4,4.4,0,0,0,3.47,1.38A4.46,4.46,0,0,0,474.51,757.16Z"/><path d="M484.35,742.05h3.23v19.26h-3.23Zm12.25,7.59a5,5,0,0,0-1.2-3.57,5.26,5.26,0,0,0-6.66-.14,4.17,4.17,0,0,0-1.16,3.15l-.39-3.71a6.43,6.43,0,0,1,2.51-2.71,7.13,7.13,0,0,1,3.56-.89,6,6,0,0,1,4.85,2.05,8.82,8.82,0,0,1,1.72,5.8v11.69H496.6Z"/><path d="M508.08,760.69A5.87,5.87,0,0,1,505.8,758a10.31,10.31,0,0,1-.78-4.21V749.6a10.66,10.66,0,0,1,.76-4.25,5.8,5.8,0,0,1,2.22-2.68,6.45,6.45,0,0,1,3.5-.92,7.06,7.06,0,0,1,3.5.86,6.13,6.13,0,0,1,2.47,2.59l-.39,3.83a4.9,4.9,0,0,0-.51-2.25,3.87,3.87,0,0,0-1.49-1.59,4.51,4.51,0,0,0-2.34-.58,4.19,4.19,0,0,0-3.32,1.32,5.39,5.39,0,0,0-1.17,3.71v4.17a5.25,5.25,0,0,0,1.17,3.65,4.24,4.24,0,0,0,3.32,1.29,4.37,4.37,0,0,0,2.33-.6,4.1,4.1,0,0,0,1.49-1.63,4.91,4.91,0,0,0,.52-2.28l.26,4a4.91,4.91,0,0,1-2.09,2.46,7.63,7.63,0,0,1-7.17,0Zm.06,7.64a6.3,6.3,0,0,1-2.66-2.27l2.19-2a5.65,5.65,0,0,0,1.93,1.66,5.14,5.14,0,0,0,2.38.59,5.09,5.09,0,0,0,3.77-1.35,5.15,5.15,0,0,0,1.33-3.79V742.05h3.23v18.68a10,10,0,0,1-1,4.55,6.59,6.59,0,0,1-2.83,2.87,9.41,9.41,0,0,1-4.48,1A9,9,0,0,1,508.14,768.33Z"/><path d="M548.16,742.05h3.4l-7.43,19.26h-2.48l-7.42-19.26h3.39l5.27,14.77Z"/><path d="M558,760.6a6.47,6.47,0,0,1-2.71-2.86,10,10,0,0,1-.94-4.54v-3.14a9.84,9.84,0,0,1,.94-4.48,6.47,6.47,0,0,1,2.71-2.84,10,10,0,0,1,8.58,0,6.47,6.47,0,0,1,2.71,2.84,9.84,9.84,0,0,1,.94,4.48v3.2a9.9,9.9,0,0,1-.94,4.5,6.47,6.47,0,0,1-2.71,2.84,9.79,9.79,0,0,1-8.58,0Zm7.77-3.44a5.67,5.67,0,0,0,1.23-3.9v-3.2a5.6,5.6,0,0,0-1.23-3.87,4.45,4.45,0,0,0-3.5-1.38,4.4,4.4,0,0,0-3.47,1.38,5.65,5.65,0,0,0-1.22,3.87v3.2a5.71,5.71,0,0,0,1.22,3.9,4.4,4.4,0,0,0,3.47,1.38A4.45,4.45,0,0,0,565.76,757.16Z"/><path d="M572.82,742.05h3.3l6.13,17.31-1.75,3.53Zm17,0-8.2,23.77a5.65,5.65,0,0,1-1.17,2.08,4,4,0,0,1-1.78,1.11,8.84,8.84,0,0,1-2.6.33h-.76v-3.08h.76a3.4,3.4,0,0,0,2-.54,4.25,4.25,0,0,0,1.29-1.91l7.13-21.76Z"/><path d="M594.09,760.06a5.47,5.47,0,0,1-1.81-4.43,5.4,5.4,0,0,1,1.66-4.25,7.09,7.09,0,0,1,4.84-1.46h5.93l.26,2.76H598.8a3.8,3.8,0,0,0-2.55.75,2.75,2.75,0,0,0-.87,2.2A2.73,2.73,0,0,0,596.5,758a5.65,5.65,0,0,0,3.28.8,10.07,10.07,0,0,0,3.55-.49c.81-.32,1.22-.8,1.22-1.43l.39,2.62a4.68,4.68,0,0,1-1.36,1.16,6.49,6.49,0,0,1-1.87.71,11.32,11.32,0,0,1-2.34.23A8,8,0,0,1,594.09,760.06Zm10.46-11a4.56,4.56,0,0,0-1.13-3.29,4.31,4.31,0,0,0-3.21-1.16,7.76,7.76,0,0,0-2.48.4,6.81,6.81,0,0,0-2.14,1.12l-2.36-1.62a7.33,7.33,0,0,1,2.88-2,10.6,10.6,0,0,1,4-.73,9.24,9.24,0,0,1,4.11.84,5.91,5.91,0,0,1,2.59,2.45,7.8,7.8,0,0,1,.89,3.87v12.38h-3.13Z"/><path d="M615.94,760.69a5.87,5.87,0,0,1-2.28-2.67,10.31,10.31,0,0,1-.78-4.21V749.6a10.66,10.66,0,0,1,.76-4.25,5.8,5.8,0,0,1,2.22-2.68,6.42,6.42,0,0,1,3.49-.92,7.1,7.1,0,0,1,3.51.86,6.13,6.13,0,0,1,2.47,2.59l-.39,3.83a4.9,4.9,0,0,0-.51-2.25,3.87,3.87,0,0,0-1.49-1.59,4.51,4.51,0,0,0-2.34-.58,4.19,4.19,0,0,0-3.32,1.32,5.39,5.39,0,0,0-1.17,3.71v4.17a5.25,5.25,0,0,0,1.17,3.65,4.24,4.24,0,0,0,3.32,1.29,4.37,4.37,0,0,0,2.33-.6,4.1,4.1,0,0,0,1.49-1.63,4.91,4.91,0,0,0,.52-2.28l.26,4a4.91,4.91,0,0,1-2.09,2.46,7.63,7.63,0,0,1-7.17,0Zm.06,7.64a6.24,6.24,0,0,1-2.66-2.27l2.19-2a5.56,5.56,0,0,0,1.93,1.66,5.14,5.14,0,0,0,2.38.59A5,5,0,0,0,623.6,765a5.15,5.15,0,0,0,1.34-3.79V742.05h3.23v18.68a9.83,9.83,0,0,1-1,4.55,6.54,6.54,0,0,1-2.83,2.87,9.34,9.34,0,0,1-4.47,1A8.93,8.93,0,0,1,616,768.33Z"/><path d="M637.24,760.58a6.78,6.78,0,0,1-2.88-3,10.06,10.06,0,0,1-1-4.67v-2.17a11.29,11.29,0,0,1,1-4.88,6.82,6.82,0,0,1,2.77-3.08,8.51,8.51,0,0,1,4.38-1.06,7.4,7.4,0,0,1,4.12,1.12,7.07,7.07,0,0,1,2.61,3.26,13.21,13.21,0,0,1,.9,5.14V753H635.65v-2.7h10.4v-.1a6.46,6.46,0,0,0-1.27-4.05,4.06,4.06,0,0,0-3.31-1.44,4.68,4.68,0,0,0-3.75,1.53,6.49,6.49,0,0,0-1.31,4.33V753a5.6,5.6,0,0,0,1.41,4.09,5.36,5.36,0,0,0,4,1.42,6.34,6.34,0,0,0,2.46-.51,6.88,6.88,0,0,0,2.17-1.43l2.16,2.11a10.43,10.43,0,0,1-3.19,2.13,9.22,9.22,0,0,1-3.6.75A9.61,9.61,0,0,1,637.24,760.58Z"/><path d="M51.91,810.27a11.47,11.47,0,0,1-2.77-.95,10.28,10.28,0,0,1-2.33-1.55l1.9-2.32a12.75,12.75,0,0,0,3.17,1.71,9.15,9.15,0,0,0,3.13.59,7.29,7.29,0,0,0,3.83-.82,2.62,2.62,0,0,0,1.31-2.37,2,2,0,0,0-.66-1.66,3.69,3.69,0,0,0-1.68-.74c-.68-.12-1.62-.23-2.83-.33h-.36c-.12,0-.24,0-.35,0H54a16,16,0,0,1-3.19-.55,4.33,4.33,0,0,1-2.15-1.45,4.74,4.74,0,0,1-.86-3,5.82,5.82,0,0,1,.87-3.27,5.31,5.31,0,0,1,2.56-2,11,11,0,0,1,4.16-.69,14,14,0,0,1,2.68.26,12.59,12.59,0,0,1,2.51.77,11.47,11.47,0,0,1,2.27,1.27l-1.92,2.3a12.23,12.23,0,0,0-2.84-1.31,9.25,9.25,0,0,0-2.76-.45,6,6,0,0,0-3.34.78,2.55,2.55,0,0,0-1.15,2.26,1.71,1.71,0,0,0,.63,1.46,3.61,3.61,0,0,0,1.61.63c.65.11,1.55.19,2.71.27h.51a.23.23,0,0,1,.11,0,16.91,16.91,0,0,1,3.44.52,4.67,4.67,0,0,1,2.38,1.58,5.23,5.23,0,0,1,1,3.41,5.63,5.63,0,0,1-.93,3.3,5.71,5.71,0,0,1-2.75,2,12.56,12.56,0,0,1-4.49.7A14.81,14.81,0,0,1,51.91,810.27Z"/><path d="M68,791.05h3.23v27.09H68Zm5.1,18.72A4.73,4.73,0,0,1,71,807.28l.26-4a4.84,4.84,0,0,0,.52,2.27,4,4,0,0,0,1.49,1.61,4.46,4.46,0,0,0,2.33.59,4.24,4.24,0,0,0,3.32-1.29,5.21,5.21,0,0,0,1.17-3.63v-4.17a5.35,5.35,0,0,0-1.17-3.7,4.19,4.19,0,0,0-3.32-1.31,4.55,4.55,0,0,0-2.33.57,3.91,3.91,0,0,0-1.49,1.58,4.73,4.73,0,0,0-.52,2.23l-.39-3.71a6.27,6.27,0,0,1,2.47-2.66,7,7,0,0,1,3.51-.87,6.42,6.42,0,0,1,3.49.92,5.8,5.8,0,0,1,2.22,2.68,10.66,10.66,0,0,1,.76,4.25v4.19a10.26,10.26,0,0,1-.78,4.2,5.8,5.8,0,0,1-2.28,2.66,6.78,6.78,0,0,1-3.6.92A7.14,7.14,0,0,1,73.1,809.77Z"/><path d="M89.55,809.06a5.47,5.47,0,0,1-1.81-4.43,5.38,5.38,0,0,1,1.67-4.25,7,7,0,0,1,4.83-1.46h5.94l.26,2.76H94.26a3.78,3.78,0,0,0-2.54.75A3.1,3.1,0,0,0,92,807a5.61,5.61,0,0,0,3.27.8,10.07,10.07,0,0,0,3.55-.49c.81-.32,1.22-.8,1.22-1.43l.39,2.62A4.68,4.68,0,0,1,99,809.65a6.38,6.38,0,0,1-1.87.71,11.18,11.18,0,0,1-2.34.23A8,8,0,0,1,89.55,809.06Zm10.46-11a4.56,4.56,0,0,0-1.13-3.29,4.31,4.31,0,0,0-3.21-1.16,7.8,7.8,0,0,0-2.48.4,6.92,6.92,0,0,0-2.14,1.12l-2.36-1.62a7.29,7.29,0,0,1,2.89-2,10.57,10.57,0,0,1,4-.73,9.23,9.23,0,0,1,4.1.84,5.91,5.91,0,0,1,2.59,2.45,7.8,7.8,0,0,1,.9,3.87v12.38H100Z"/><path d="M107.41,791.05h8.69v2.86h-8.69Zm3.07,18.06a5.81,5.81,0,0,1-1.08-3.81V785.45h3.23v19.89a2.41,2.41,0,0,0,.41,1.5,1.49,1.49,0,0,0,1.24.52h1.82v3h-2.19A4.25,4.25,0,0,1,110.48,809.11Z"/><path d="M121.57,783.33h3.23v3.23h-3.23Zm0,7.72h3.23v19.26h-3.23Z"/><path d="M131.71,809.06a5.44,5.44,0,0,1-1.81-4.43,5.37,5.37,0,0,1,1.66-4.25,7.09,7.09,0,0,1,4.84-1.46h5.93l.26,2.76h-6.18a3.79,3.79,0,0,0-2.54.75,2.75,2.75,0,0,0-.87,2.2,2.7,2.7,0,0,0,1.12,2.36,5.65,5.65,0,0,0,3.28.8,10.07,10.07,0,0,0,3.55-.49c.81-.32,1.22-.8,1.22-1.43l.39,2.62a4.81,4.81,0,0,1-1.36,1.16,6.49,6.49,0,0,1-1.87.71,11.32,11.32,0,0,1-2.34.23A8,8,0,0,1,131.71,809.06Zm10.46-11a4.52,4.52,0,0,0-1.14-3.29,4.28,4.28,0,0,0-3.21-1.16,7.74,7.74,0,0,0-2.47.4,7,7,0,0,0-2.15,1.12l-2.35-1.62a7.33,7.33,0,0,1,2.88-2,10.6,10.6,0,0,1,4-.73,9.2,9.2,0,0,1,4.1.84,5.88,5.88,0,0,1,2.6,2.45,7.91,7.91,0,0,1,.89,3.87v12.38h-3.13Z"/><path d="M154.28,805.28a2.2,2.2,0,0,0,.46,1.51,1.55,1.55,0,0,0,1.27.53h1.78v3h-2.23a4.22,4.22,0,0,1-3.33-1.34,5.55,5.55,0,0,1-1.18-3.77V783.33h3.23Z"/><path d="M172.54,783.33h3.23v3.23h-3.23Zm0,7.72h3.23v19.26h-3.23Z"/><path d="M185,809.63a6.33,6.33,0,0,1-2.81-2.82,10.06,10.06,0,0,1-.95-4.59v-3.17a9.74,9.74,0,0,1,1-4.54,6.27,6.27,0,0,1,2.81-2.79,10,10,0,0,1,4.56-1,11.26,11.26,0,0,1,2.86.35,8.21,8.21,0,0,1,2.35,1,7,7,0,0,1,1.77,1.7l-2.36,2.1a5.82,5.82,0,0,0-4.56-2.14,5.18,5.18,0,0,0-3.85,1.33,5.35,5.35,0,0,0-1.31,3.91v3.17a5.51,5.51,0,0,0,1.31,4,5.11,5.11,0,0,0,3.85,1.35,6.23,6.23,0,0,0,2.59-.54,6.13,6.13,0,0,0,2.1-1.61l2.23,2.17a6.73,6.73,0,0,1-1.78,1.67,7.88,7.88,0,0,1-2.35,1,11.13,11.13,0,0,1-2.85.35A9.9,9.9,0,0,1,185,809.63Z"/><path d="M201,783.33h3.23v3.23H201Zm0,7.72h3.23v19.26H201Z"/></svg>