<?xml version="1.0" encoding="utf-8"?>
<!-- Generator: Adobe Illustrator 24.2.1, SVG Export Plug-In . SVG Version: 6.00 Build 0)  -->
<svg version="1.1" xmlns="http://www.w3.org/2000/svg" xmlns:xlink="http://www.w3.org/1999/xlink" x="0px" y="0px"
	 viewBox="0 0 77.2 55.9" style="enable-background:new 0 0 77.2 55.9;" xml:space="preserve">
<style type="text/css">
	.st0{fill:#FFFFFF;}
	.st1{fill:url(#XMLID_34_);}
	.st2{fill:url(#XMLID_35_);}
	.st3{fill:url(#XMLID_36_);}
	.st4{fill:url(#XMLID_37_);}
	.st5{fill:url(#XMLID_38_);}
	.st6{fill:url(#SVGID_1_);}
	.st7{opacity:0.32;}
	.st8{opacity:0.11;clip-path:url(#XMLID_39_);}
	.st9{fill:#A630B0;}
	.st10{fill:url(#SVGID_2_);}
	.st11{fill:none;}
	.st12{fill:#FEA7AF;}
	.st13{opacity:0.29;fill:#FFFFFF;}
	.st14{opacity:0.29;fill:#FEA7AF;}
	.st15{opacity:0.33;fill:#FEA7AF;}
	.st16{opacity:0.22;}
	.st17{fill:url(#XMLID_40_);}
	.st18{fill:url(#XMLID_41_);}
	.st19{fill:url(#XMLID_42_);}
	.st20{fill:url(#XMLID_43_);}
	.st21{opacity:0.33;}
	.st22{fill:url(#XMLID_44_);}
	.st23{fill:url(#XMLID_45_);}
	.st24{opacity:0.35;}
	.st25{fill:url(#XMLID_46_);}
	.st26{fill:url(#XMLID_47_);}
	.st27{fill:url(#XMLID_48_);}
	.st28{fill:url(#XMLID_49_);}
	.st29{fill:url(#XMLID_50_);}
	.st30{fill:url(#XMLID_51_);}
	.st31{fill:url(#XMLID_52_);}
	.st32{fill:url(#XMLID_53_);}
</style>
<g id="BACKGROUND">
</g>
<g id="OBJECTS">
	<g id="XMLID_601_">
		<path id="XMLID_607_" class="st0" d="M33.2,31.3c1,0.6,2.1,1,3.4,1c4.9,0,6.4-3.5,6.3-6.6c0.4-0.3,0.8-0.7,1.1-1.1
			c-0.4,0.2-0.8,0.3-1.2,0.4c0.5-0.3,0.8-0.7,0.9-1.2c-0.4,0.3-0.9,0.4-1.4,0.5c-0.4-0.4-1-0.7-1.6-0.7c-1.4,0-2.5,1.4-2.1,2.8
			c-1.8-0.1-3.5-1.1-4.6-2.4c-0.6,1-0.3,2.3,0.7,3c-0.4,0-0.7-0.1-1-0.3c0,1,0.7,2,1.8,2.2c-0.3,0.1-0.7,0.1-1,0
			c0.3,0.9,1.2,1.4,2.2,1.5C35.6,31.1,34.4,31.5,33.2,31.3z"/>
		<g id="XMLID_602_">
			<path id="XMLID_603_" class="st0" d="M38.6,40.2c-6.8,0-12.3-5.5-12.3-12.3c0-6.8,5.5-12.3,12.3-12.3c6.8,0,12.3,5.5,12.3,12.3
				C50.9,34.7,45.4,40.2,38.6,40.2z M38.6,17.1c-6,0-10.9,4.9-10.9,10.9c0,6,4.9,10.9,10.9,10.9c6,0,10.9-4.9,10.9-10.9
				C49.5,21.9,44.6,17.1,38.6,17.1z"/>
		</g>
	</g>
</g>
</svg>
