<?xml version="1.0" encoding="utf-8"?>
<!-- Generator: Adobe Illustrator 24.2.1, SVG Export Plug-In . SVG Version: 6.00 Build 0)  -->
<svg version="1.1" xmlns="http://www.w3.org/2000/svg" xmlns:xlink="http://www.w3.org/1999/xlink" x="0px" y="0px"
	 viewBox="0 0 77.2 55.9" style="enable-background:new 0 0 77.2 55.9;" xml:space="preserve">
<style type="text/css">
	.st0{fill:#FFFFFF;}
	.st1{fill:url(#XMLID_34_);}
	.st2{fill:url(#XMLID_35_);}
	.st3{fill:url(#XMLID_36_);}
	.st4{fill:url(#XMLID_37_);}
	.st5{fill:url(#XMLID_38_);}
	.st6{fill:url(#SVGID_1_);}
	.st7{opacity:0.32;}
	.st8{opacity:0.11;clip-path:url(#XMLID_39_);}
	.st9{fill:#A630B0;}
	.st10{fill:url(#SVGID_2_);}
	.st11{fill:none;}
	.st12{fill:#FEA7AF;}
	.st13{opacity:0.29;fill:#FFFFFF;}
	.st14{opacity:0.29;fill:#FEA7AF;}
	.st15{opacity:0.33;fill:#FEA7AF;}
	.st16{opacity:0.22;}
	.st17{fill:url(#XMLID_40_);}
	.st18{fill:url(#XMLID_41_);}
	.st19{fill:url(#XMLID_42_);}
	.st20{fill:url(#XMLID_43_);}
	.st21{opacity:0.33;}
	.st22{fill:url(#XMLID_44_);}
	.st23{fill:url(#XMLID_45_);}
	.st24{opacity:0.35;}
	.st25{fill:url(#XMLID_46_);}
	.st26{fill:url(#XMLID_47_);}
	.st27{fill:url(#XMLID_48_);}
	.st28{fill:url(#XMLID_49_);}
	.st29{fill:url(#XMLID_50_);}
	.st30{fill:url(#XMLID_51_);}
	.st31{fill:url(#XMLID_52_);}
	.st32{fill:url(#XMLID_53_);}
</style>
<g id="BACKGROUND">
</g>
<g id="OBJECTS">
	<g id="XMLID_608_">
		<path id="XMLID_613_" class="st0" d="M37,33.8h2.5v-5.7H41l0.4-2.1h-1.9c0,0,0-0.8,0-1.2c0-0.5,0.1-0.7,0.6-0.7c0.4,0,1.3,0,1.3,0
			V22c0,0-1.4,0-1.7,0c-1.8,0-2.7,0.8-2.7,2.4c0,1.3,0,1.7,0,1.7h-1.3v2.1H37V33.8z"/>
		<g id="XMLID_609_">
			<path id="XMLID_610_" class="st0" d="M38.6,40.2c-6.8,0-12.3-5.5-12.3-12.3c0-6.8,5.5-12.3,12.3-12.3c6.8,0,12.3,5.5,12.3,12.3
				C50.9,34.7,45.4,40.2,38.6,40.2z M38.6,17.1c-6,0-10.9,4.9-10.9,10.9s4.9,10.9,10.9,10.9c6,0,10.9-4.9,10.9-10.9
				S44.6,17.1,38.6,17.1z"/>
		</g>
	</g>
</g>
</svg>
