<?xml version="1.0" encoding="utf-8"?>
<!-- Generator: Adobe Illustrator 24.2.1, SVG Export Plug-In . SVG Version: 6.00 Build 0)  -->
<svg version="1.1" xmlns="http://www.w3.org/2000/svg" xmlns:xlink="http://www.w3.org/1999/xlink" x="0px" y="0px"
	 viewBox="0 0 77.2 55.9" style="enable-background:new 0 0 77.2 55.9;" xml:space="preserve">
<style type="text/css">
	.st0{fill:#FFFFFF;}
	.st1{fill:url(#XMLID_34_);}
	.st2{fill:url(#XMLID_35_);}
	.st3{fill:url(#XMLID_36_);}
	.st4{fill:url(#XMLID_37_);}
	.st5{fill:url(#XMLID_38_);}
	.st6{fill:url(#SVGID_1_);}
	.st7{opacity:0.32;}
	.st8{opacity:0.11;clip-path:url(#XMLID_39_);}
	.st9{fill:#A630B0;}
	.st10{fill:url(#SVGID_2_);}
	.st11{fill:none;}
	.st12{fill:#FEA7AF;}
	.st13{opacity:0.29;fill:#FFFFFF;}
	.st14{opacity:0.29;fill:#FEA7AF;}
	.st15{opacity:0.33;fill:#FEA7AF;}
	.st16{opacity:0.22;}
	.st17{fill:url(#XMLID_40_);}
	.st18{fill:url(#XMLID_41_);}
	.st19{fill:url(#XMLID_42_);}
	.st20{fill:url(#XMLID_43_);}
	.st21{opacity:0.33;}
	.st22{fill:url(#XMLID_44_);}
	.st23{fill:url(#XMLID_45_);}
	.st24{opacity:0.35;}
	.st25{fill:url(#XMLID_46_);}
	.st26{fill:url(#XMLID_47_);}
	.st27{fill:url(#XMLID_48_);}
	.st28{fill:url(#XMLID_49_);}
	.st29{fill:url(#XMLID_50_);}
	.st30{fill:url(#XMLID_51_);}
	.st31{fill:url(#XMLID_52_);}
	.st32{fill:url(#XMLID_53_);}
</style>
<g id="BACKGROUND">
</g>
<g id="OBJECTS">
	<g id="XMLID_575_">
		<g id="XMLID_588_">
			<g id="XMLID_598_">
				<rect id="XMLID_600_" x="40.1" y="26" class="st0" width="2.1" height="6.5"/>
				<path id="XMLID_599_" class="st0" d="M41.2,25.1c0.7,0,1.2-0.6,1.2-1.3c0-0.7-0.6-1.3-1.2-1.3c-0.7,0-1.2,0.6-1.2,1.3
					C39.9,24.6,40.5,25.1,41.2,25.1z"/>
			</g>
			<path id="XMLID_589_" class="st0" d="M45.6,29.3c0-1,0.4-1.5,1.3-1.5c0.8,0,1.1,0.5,1.1,1.5c0,1.8,0,3.2,0,3.2l2.1,0
				c0,0,0-2.2,0-4c0-1.8-1-2.7-2.5-2.7c-1.4,0-2,1.1-2,1.1V26h-2v6.5h2C45.6,32.5,45.6,30.3,45.6,29.3z"/>
		</g>
		<g id="XMLID_576_">
			<path id="XMLID_577_" class="st0" d="M45,40.2c-6.8,0-12.3-5.5-12.3-12.3c0-6.8,5.5-12.3,12.3-12.3c6.8,0,12.3,5.5,12.3,12.3
				C57.3,34.7,51.8,40.2,45,40.2z M45,17.1c-6,0-10.9,4.9-10.9,10.9c0,6,4.9,10.9,10.9,10.9c6,0,10.9-4.9,10.9-10.9
				C55.9,21.9,51,17.1,45,17.1z"/>
		</g>
	</g>
</g>
</svg>
