<?xml version="1.0" encoding="utf-8"?>
<!-- Generator: Adobe Illustrator 25.0.0, SVG Export Plug-In . SVG Version: 6.00 Build 0)  -->
<svg version="1.1" xmlns="http://www.w3.org/2000/svg" xmlns:xlink="http://www.w3.org/1999/xlink" x="0px" y="0px"
	 viewBox="0 0 182.3 52.8" style="enable-background:new 0 0 182.3 52.8;" xml:space="preserve">
<style type="text/css">
	.st0{fill:#FFFFFF;}
	.st1{fill:url(#XMLID_33_);}
	.st2{fill:url(#XMLID_35_);}
	.st3{fill:url(#XMLID_36_);}
	.st4{fill:url(#XMLID_37_);}
	.st5{fill:url(#XMLID_38_);}
	.st6{fill:url(#SVGID_1_);}
	.st7{opacity:0.32;}
	.st8{opacity:0.11;clip-path:url(#XMLID_39_);}
	.st9{fill:#A630B0;}
	.st10{fill:url(#SVGID_2_);}
	.st11{fill:none;}
	.st12{fill:#FEA7AF;}
	.st13{opacity:0.29;fill:#FFFFFF;}
	.st14{opacity:0.29;fill:#FEA7AF;}
	.st15{fill:url(#XMLID_40_);}
	.st16{opacity:0.33;fill:#FEA7AF;}
	.st17{fill:url(#XMLID_41_);}
	.st18{fill:url(#XMLID_42_);}
	.st19{fill:url(#XMLID_43_);}
	.st20{fill:url(#XMLID_44_);}
	.st21{fill:url(#XMLID_45_);}
	.st22{opacity:0.33;}
	.st23{fill:url(#XMLID_46_);}
	.st24{fill:url(#XMLID_47_);}
	.st25{opacity:0.35;}
	.st26{fill:url(#XMLID_48_);}
	.st27{fill:url(#XMLID_49_);}
	.st28{fill:url(#XMLID_50_);}
	.st29{fill:url(#XMLID_51_);}
	.st30{fill:url(#XMLID_52_);}
	.st31{fill:url(#XMLID_53_);}
	.st32{fill:url(#XMLID_54_);}
</style>
<g id="BACKGROUND">
</g>
<g id="OBJECTS">
	<g>
		<radialGradient id="XMLID_33_" cx="90.3913" cy="27.6356" r="32.0793" gradientUnits="userSpaceOnUse">
			<stop  offset="0" style="stop-color:#67219E"/>
			<stop  offset="1.126254e-02" style="stop-color:#6B27A1;stop-opacity:0.9887"/>
			<stop  offset="0.1127" style="stop-color:#8D59B7;stop-opacity:0.8873"/>
			<stop  offset="0.2192" style="stop-color:#AC86CA;stop-opacity:0.7808"/>
			<stop  offset="0.3287" style="stop-color:#C6ABDA;stop-opacity:0.6713"/>
			<stop  offset="0.4422" style="stop-color:#DACAE8;stop-opacity:0.5578"/>
			<stop  offset="0.5608" style="stop-color:#EBE1F2;stop-opacity:0.4392"/>
			<stop  offset="0.6868" style="stop-color:#F6F2F9;stop-opacity:0.3132"/>
			<stop  offset="0.8252" style="stop-color:#FDFCFE;stop-opacity:0.1748"/>
			<stop  offset="1" style="stop-color:#FFFFFF;stop-opacity:0"/>
		</radialGradient>
		<circle id="XMLID_32_" class="st1" cx="90.4" cy="27.6" r="32.1"/>
		<g id="XMLID_4_">
			<linearGradient id="XMLID_35_" gradientUnits="userSpaceOnUse" x1="74.5471" y1="27.882" x2="106.7302" y2="27.882">
				<stop  offset="5.376340e-03" style="stop-color:#FEA7AF"/>
				<stop  offset="0.9731" style="stop-color:#EA47AC"/>
			</linearGradient>
			<path id="XMLID_29_" class="st2" d="M106.7,27.9c0,1.5-0.2,3-0.6,4.4C104.2,39,98,44,90.6,44c-8.2,0-15-6.2-16-14.1
				c-0.1-0.7-0.1-1.3-0.1-2c0-2.6,0.6-5.1,1.7-7.3c2.7-5.2,8.1-8.8,14.4-8.8c6.6,0,12.2,3.9,14.7,9.6
				C106.2,23.3,106.7,25.6,106.7,27.9z"/>
			<linearGradient id="XMLID_36_" gradientUnits="userSpaceOnUse" x1="76.2832" y1="17.2677" x2="105.3497" y2="17.2677">
				<stop  offset="5.376340e-03" style="stop-color:#FEA7AF"/>
				<stop  offset="4.534078e-02" style="stop-color:#FDA1AF"/>
				<stop  offset="0.3245" style="stop-color:#F57AAE"/>
				<stop  offset="0.5813" style="stop-color:#EF5EAD"/>
				<stop  offset="0.8058" style="stop-color:#EB4DAC"/>
				<stop  offset="0.9731" style="stop-color:#EA47AC"/>
			</linearGradient>
			<path id="XMLID_26_" class="st3" d="M105.3,21.4c-7.8-4-10.4-2.3-18.8,0.6c-4.7,1.7-8.2,0.2-10.3-1.4c2.7-5.2,8.1-8.8,14.4-8.8
				C97.2,11.8,102.8,15.7,105.3,21.4z"/>
			<linearGradient id="XMLID_37_" gradientUnits="userSpaceOnUse" x1="74.6707" y1="36.9244" x2="106.1118" y2="36.9244">
				<stop  offset="5.376340e-03" style="stop-color:#FEA7AF"/>
				<stop  offset="0.126" style="stop-color:#FA93AE"/>
				<stop  offset="0.3615" style="stop-color:#F372AD"/>
				<stop  offset="0.5869" style="stop-color:#EE5AAD"/>
				<stop  offset="0.7962" style="stop-color:#EB4CAC"/>
				<stop  offset="0.9731" style="stop-color:#EA47AC"/>
			</linearGradient>
			<path id="XMLID_24_" class="st4" d="M106.1,32.3C104.2,39,98,44,90.6,44c-8.2,0-15-6.2-16-14.1c2.2,2,5.7,4.1,10.6,3.8
				C93.8,33.2,100.3,27.2,106.1,32.3z"/>
		</g>
		<g>
			<path d="M10.3,40.4l2.5-5.5c2.7,2,6.7,3.3,10.5,3.3c4.4,0,6.1-1.5,6.1-3.4c0-6-18.5-1.9-18.5-13.7c0-5.4,4.4-9.9,13.4-9.9
				c4,0,8.1,1,11,2.8l-2.3,5.6c-3-1.7-6-2.5-8.8-2.5c-4.4,0-6,1.6-6,3.6c0,5.9,18.5,1.8,18.5,13.5c0,5.3-4.4,9.9-13.5,9.9
				C18.2,44.1,13.1,42.6,10.3,40.4z"/>
			<path d="M39.8,27.6c0-9.6,7.4-16.5,17.3-16.5c5.5,0,10.1,2,13.1,5.6l-4.7,4.4c-2.1-2.5-4.8-3.7-8-3.7c-6,0-10.2,4.2-10.2,10.2
				c0,6,4.2,10.2,10.2,10.2c3.2,0,5.9-1.3,8-3.8l4.7,4.4c-3,3.7-7.6,5.7-13.1,5.7C47.2,44.1,39.8,37.2,39.8,27.6z"/>
			<path d="M141.4,23.3c0,7.1-5.3,11.5-13.8,11.5h-6.4v8.8h-7.4V11.7h13.8C136.1,11.7,141.4,16.1,141.4,23.3z M134,23.3
				c0-3.5-2.3-5.5-6.8-5.5h-6v11.1h6C131.7,28.8,134,26.7,134,23.3z"/>
			<path d="M171.3,37.6v5.9h-24.6V11.7h24.1v5.9H154v6.9h14.8v5.7H154v7.4H171.3z"/>
		</g>
	</g>
</g>
</svg>
