<?xml version="1.0" encoding="utf-8"?>
<!-- Generator: Adobe Illustrator 24.2.1, SVG Export Plug-In . SVG Version: 6.00 Build 0)  -->
<svg version="1.1" id="Calque_1" xmlns="http://www.w3.org/2000/svg" xmlns:xlink="http://www.w3.org/1999/xlink" x="0px" y="0px"
	 viewBox="0 0 512 640" style="enable-background:new 0 0 512 640;" xml:space="preserve">
<style type="text/css">
	.st0{fill:url(#SVGID_1_);}
	.st1{fill:url(#SVGID_2_);}
	.st2{fill:url(#SVGID_3_);}
	.st3{fill:url(#SVGID_4_);}
	.st4{fill:url(#SVGID_5_);}
	.st5{fill:url(#SVGID_6_);}
	.st6{fill:url(#SVGID_7_);}
	.st7{fill:url(#SVGID_8_);}
	.st8{fill:url(#SVGID_9_);}
	.st9{fill:url(#SVGID_10_);}
	.st10{fill:url(#SVGID_11_);}
	.st11{fill:url(#SVGID_12_);}
	.st12{fill:url(#SVGID_13_);}
	.st13{fill:url(#SVGID_14_);}
	.st14{fill:url(#SVGID_15_);}
	.st15{fill:url(#SVGID_16_);}
	.st16{fill:url(#SVGID_17_);}
	.st17{fill:url(#SVGID_18_);}
	.st18{fill:url(#SVGID_19_);}
	.st19{fill:url(#SVGID_20_);}
	.st20{fill:url(#SVGID_21_);}
	.st21{fill:url(#SVGID_22_);}
	.st22{fill:url(#SVGID_23_);}
	.st23{fill:url(#SVGID_24_);}
	.st24{fill:url(#SVGID_25_);}
	.st25{fill:url(#SVGID_26_);}
	.st26{fill:url(#SVGID_27_);}
	.st27{fill:url(#SVGID_28_);}
	.st28{fill:url(#SVGID_29_);}
	.st29{fill:url(#SVGID_30_);}
	.st30{fill:url(#SVGID_31_);}
	.st31{fill:url(#SVGID_32_);}
</style>
<g>
	<linearGradient id="SVGID_1_" gradientUnits="userSpaceOnUse" x1="815.9427" y1="691.7769" x2="-353.0623" y2="-72.3638">
		<stop  offset="0" style="stop-color:#5A79BA"/>
		<stop  offset="0.5235" style="stop-color:#A381E1"/>
		<stop  offset="1" style="stop-color:#172B79"/>
	</linearGradient>
	<path class="st0" d="M458.4,75.5c-21.7,0-39.3,17.6-39.3,39.3c0,2.1,0.2,4.2,0.5,6.2c-22.4,15.1-51.7,38.3-85.2,67.5
		c-22.9-10.9-48.5-17-75.5-17c-23.1,0-45.1,4.5-65.3,12.6c-46.8-23.7-82.7-26.6-101.2-8.1c-19.8,19.8-14,56.5,6.5,98.1
		c-10.4,22.4-16.2,47.3-16.2,73.6c0,27.1,6.2,52.8,17.2,75.8C-1.3,540.4,12.5,554.3,18.5,560.3c2.6,2.6,5.8,4.2,10.4,4.2
		c9.8,0,25.8-7.3,55.4-28.5c18.4-13.2,40.1-30.5,64.2-51.2c30.2,24.4,68.6,39,110.4,39c28.3,0,55.1-6.8,78.8-18.7
		c18.7,7.8,35.6,11.9,49.8,11.9c14.1,0,25.6-4,33.8-12.1c16.6-16.6,16.2-46.5-1.1-86.4c9.6-21.7,14.9-45.7,14.9-70.9
		c0-41.7-14.6-80-38.8-110.2c28.2-32.8,50.7-61.6,64.9-83.5c20.4-1.4,36.5-18.4,36.5-39.1C497.7,93.1,480.1,75.5,458.4,75.5z
		 M372.6,237.5c-30.7,35.1-67.4,74.2-107.1,113.8c-6.6,6.6-13.3,13.2-20,19.8c-7.7-5.4-17-8.6-27.1-8.6c-10.5,0-20.1,3.4-27.9,9.2
		c-32.7-35.3-56.5-68.9-71.8-97.7c26.5-50.4,79.4-84.8,140.2-84.8C303.5,189.3,343.8,207.8,372.6,237.5z M188.9,409.9
		c0-16.3,13.2-29.5,29.5-29.5c16.3,0,29.5,13.2,29.5,29.5c0,16.3-13.2,29.5-29.5,29.5S188.9,426.2,188.9,409.9z M104.9,188.5
		c10.9-10.9,35.8-8.8,68,5.4c-25.9,14.6-47.8,35.5-63.5,60.7C95.8,222.8,94.5,199,104.9,188.5z M178.3,384.9
		c-4.6,7.3-7.2,15.8-7.2,25c0,9.1,2.6,17.6,7.1,24.9c-10.4,9.5-20.3,18.3-29.6,26.4c-29.6-28.8-48.1-69-48.1-113.5
		c0-18.7,3.3-36.7,9.3-53.4C127.4,324.4,151.5,356,178.3,384.9z M32.9,546c3.6-11.4,22.4-43.1,76.2-105.8
		c7.4,11.9,16.1,22.9,26,32.7C78.6,521,45.3,542.2,32.9,546z M258.9,506c-36.4,0-69.9-12.4-96.7-33.1c9.1-7.9,18.5-16.3,28.1-25
		c7.9,5.8,17.6,9.3,28.1,9.3c10.4,0,20-3.4,27.8-9.1c24.7,19.8,48.5,35.6,70.3,47C298.6,502.1,279.2,506,258.9,506z M408.7,492.3
		c-8.3,8.3-26.2,9.2-50.9,1.1c20.7-14.1,38.3-32.5,51.4-54C417.8,464.3,417.8,483.2,408.7,492.3z M417.3,347.6
		c0,58.9-32.3,110.3-80.1,137.6c-22.7-10.3-49.4-26.8-78.8-50.1c4.6-7.3,7.3-15.9,7.3-25.2c0-9.6-2.9-18.5-7.8-26
		c6.8-6.7,13.6-13.3,20.2-20c39.2-39.2,75.5-77.9,106.2-112.8C405,277.9,417.3,311.3,417.3,347.6z M351.1,197.6
		c29.4-25.4,55.2-45.8,75.5-59.8c4,5.4,9.3,9.8,15.4,12.7c-13.6,20-33.5,45.2-57.8,73.6C374.4,214,363.2,205.1,351.1,197.6z
		 M458.4,136.3c-11.8,0-21.5-9.6-21.5-21.5s9.6-21.5,21.5-21.5c11.8,0,21.5,9.6,21.5,21.5S470.3,136.3,458.4,136.3z"/>
	<linearGradient id="SVGID_2_" gradientUnits="userSpaceOnUse" x1="911.1079" y1="546.1904" x2="-257.8971" y2="-217.9504">
		<stop  offset="0" style="stop-color:#5A79BA"/>
		<stop  offset="0.5235" style="stop-color:#A381E1"/>
		<stop  offset="1" style="stop-color:#172B79"/>
	</linearGradient>
	<circle class="st1" cx="457.7" cy="249.8" r="15.8"/>
	<linearGradient id="SVGID_3_" gradientUnits="userSpaceOnUse" x1="805.9573" y1="707.0529" x2="-363.0477" y2="-57.0878">
		<stop  offset="0" style="stop-color:#5A79BA"/>
		<stop  offset="0.5235" style="stop-color:#A381E1"/>
		<stop  offset="1" style="stop-color:#172B79"/>
	</linearGradient>
	<circle class="st2" cx="340.5" cy="402.8" r="32.5"/>
	<linearGradient id="SVGID_4_" gradientUnits="userSpaceOnUse" x1="737.9155" y1="811.1453" x2="-431.0896" y2="47.0046">
		<stop  offset="0" style="stop-color:#5A79BA"/>
		<stop  offset="0.5235" style="stop-color:#A381E1"/>
		<stop  offset="1" style="stop-color:#172B79"/>
	</linearGradient>
	<circle class="st3" cx="226.6" cy="476.9" r="6.8"/>
	<linearGradient id="SVGID_5_" gradientUnits="userSpaceOnUse" x1="861.0609" y1="622.7537" x2="-307.9441" y2="-141.387">
		<stop  offset="0" style="stop-color:#5A79BA"/>
		<stop  offset="0.5235" style="stop-color:#A381E1"/>
		<stop  offset="1" style="stop-color:#172B79"/>
	</linearGradient>
	<circle class="st4" cx="381.8" cy="309.5" r="6.8"/>
	<linearGradient id="SVGID_6_" gradientUnits="userSpaceOnUse" x1="849.2003" y1="640.8985" x2="-319.8048" y2="-123.2422">
		<stop  offset="0" style="stop-color:#5A79BA"/>
		<stop  offset="0.5235" style="stop-color:#A381E1"/>
		<stop  offset="1" style="stop-color:#172B79"/>
	</linearGradient>
	<circle class="st5" cx="219.8" cy="229.5" r="10.2"/>
	<linearGradient id="SVGID_7_" gradientUnits="userSpaceOnUse" x1="747.8759" y1="795.9075" x2="-421.1292" y2="31.7668">
		<stop  offset="0" style="stop-color:#5A79BA"/>
		<stop  offset="0.5235" style="stop-color:#A381E1"/>
		<stop  offset="1" style="stop-color:#172B79"/>
	</linearGradient>
	<circle class="st6" cx="130.9" cy="392.6" r="10.2"/>
	<linearGradient id="SVGID_8_" gradientUnits="userSpaceOnUse" x1="814.9564" y1="693.2858" x2="-354.0486" y2="-70.8549">
		<stop  offset="0" style="stop-color:#5A79BA"/>
		<stop  offset="0.5235" style="stop-color:#A381E1"/>
		<stop  offset="1" style="stop-color:#172B79"/>
	</linearGradient>
	<circle class="st7" cx="227.8" cy="309.5" r="18.2"/>
</g>
</svg>
