<?xml version="1.0" encoding="utf-8"?>
<!-- Generator: Adobe Illustrator 24.2.1, SVG Export Plug-In . SVG Version: 6.00 Build 0)  -->
<svg version="1.1" id="Calque_1" xmlns="http://www.w3.org/2000/svg" xmlns:xlink="http://www.w3.org/1999/xlink" x="0px" y="0px"
	 viewBox="0 0 512 640" style="enable-background:new 0 0 512 640;" xml:space="preserve">
<style type="text/css">
	.st0{fill:url(#SVGID_1_);}
	.st1{fill:url(#SVGID_2_);}
	.st2{fill:url(#SVGID_3_);}
	.st3{fill:url(#SVGID_4_);}
	.st4{fill:url(#SVGID_5_);}
	.st5{fill:url(#SVGID_6_);}
	.st6{fill:url(#SVGID_7_);}
	.st7{fill:url(#SVGID_8_);}
	.st8{fill:url(#SVGID_9_);}
	.st9{fill:url(#SVGID_10_);}
	.st10{fill:url(#SVGID_11_);}
	.st11{fill:url(#SVGID_12_);}
	.st12{fill:url(#SVGID_13_);}
	.st13{fill:url(#SVGID_14_);}
	.st14{fill:url(#SVGID_15_);}
	.st15{fill:url(#SVGID_16_);}
	.st16{fill:url(#SVGID_17_);}
	.st17{fill:url(#SVGID_18_);}
	.st18{fill:url(#SVGID_19_);}
	.st19{fill:url(#SVGID_20_);}
	.st20{fill:url(#SVGID_21_);}
	.st21{fill:url(#SVGID_22_);}
	.st22{fill:url(#SVGID_23_);}
	.st23{fill:url(#SVGID_24_);}
	.st24{fill:url(#SVGID_25_);}
	.st25{fill:url(#SVGID_26_);}
	.st26{fill:url(#SVGID_27_);}
	.st27{fill:url(#SVGID_28_);}
	.st28{fill:url(#SVGID_29_);}
	.st29{fill:url(#SVGID_30_);}
	.st30{fill:url(#SVGID_31_);}
	.st31{fill:url(#SVGID_32_);}
</style>
<g>
	<g>
		<g>
			<linearGradient id="SVGID_1_" gradientUnits="userSpaceOnUse" x1="489.2033" y1="368.5842" x2="-679.8017" y2="-395.5565">
				<stop  offset="0" style="stop-color:#5A79BA"/>
				<stop  offset="0.5235" style="stop-color:#A381E1"/>
				<stop  offset="1" style="stop-color:#172B79"/>
			</linearGradient>
			<rect x="206" y="180" class="st0" width="20" height="20"/>
			<linearGradient id="SVGID_2_" gradientUnits="userSpaceOnUse" x1="498.1844" y1="354.8447" x2="-670.8207" y2="-409.296">
				<stop  offset="0" style="stop-color:#5A79BA"/>
				<stop  offset="0.5235" style="stop-color:#A381E1"/>
				<stop  offset="1" style="stop-color:#172B79"/>
			</linearGradient>
			<rect x="236" y="180" class="st1" width="20" height="20"/>
			<linearGradient id="SVGID_3_" gradientUnits="userSpaceOnUse" x1="507.1654" y1="341.1053" x2="-661.8397" y2="-423.0354">
				<stop  offset="0" style="stop-color:#5A79BA"/>
				<stop  offset="0.5235" style="stop-color:#A381E1"/>
				<stop  offset="1" style="stop-color:#172B79"/>
			</linearGradient>
			<rect x="266" y="180" class="st2" width="20" height="20"/>
		</g>
		<g>
			<linearGradient id="SVGID_4_" gradientUnits="userSpaceOnUse" x1="415.1424" y1="481.8848" x2="-753.8627" y2="-282.2559">
				<stop  offset="0" style="stop-color:#5A79BA"/>
				<stop  offset="0.5235" style="stop-color:#A381E1"/>
				<stop  offset="1" style="stop-color:#172B79"/>
			</linearGradient>
			<path class="st3" d="M455.7,360v7.1c0,29.2-23.7,52.9-52.9,52.9H109.1c-29.2,0-52.9-23.7-52.9-52.9V360h20v7.1
				c0,18.1,14.7,32.9,32.9,32.9h293.7c18.1,0,32.9-14.8,32.9-32.9V360H455.7z"/>
		</g>
		<g>
			<linearGradient id="SVGID_5_" gradientUnits="userSpaceOnUse" x1="389.7657" y1="520.7068" x2="-779.2393" y2="-243.4339">
				<stop  offset="0" style="stop-color:#5A79BA"/>
				<stop  offset="0.5235" style="stop-color:#A381E1"/>
				<stop  offset="1" style="stop-color:#172B79"/>
			</linearGradient>
			<path class="st4" d="M356,460H146c-5.5,0-10-4.5-10-10v-40c0-5.5,4.5-10,10-10h210c5.5,0,10,4.5,10,10v40
				C366,455.5,361.5,460,356,460z M156,440h190v-20H156V440z"/>
		</g>
		<g>
			<linearGradient id="SVGID_6_" gradientUnits="userSpaceOnUse" x1="326.0949" y1="618.1122" x2="-842.9101" y2="-146.0285">
				<stop  offset="0" style="stop-color:#5A79BA"/>
				<stop  offset="0.5235" style="stop-color:#A381E1"/>
				<stop  offset="1" style="stop-color:#172B79"/>
			</linearGradient>
			<path class="st5" d="M176,560c-5.5,0-10-4.5-10-10v-60c0-5.5,4.5-10,10-10s10,4.5,10,10v60C186,555.5,181.5,560,176,560z"/>
		</g>
		<g>
			<linearGradient id="SVGID_7_" gradientUnits="userSpaceOnUse" x1="347.2292" y1="585.7803" x2="-821.7758" y2="-178.3604">
				<stop  offset="0" style="stop-color:#5A79BA"/>
				<stop  offset="0.5235" style="stop-color:#A381E1"/>
				<stop  offset="1" style="stop-color:#172B79"/>
			</linearGradient>
			<path class="st6" d="M216,530c-5.5,0-10-4.5-10-10v-40c0-5.5,4.5-10,10-10s10,4.5,10,10v40C226,525.5,221.5,530,216,530z"/>
		</g>
		<g>
			<linearGradient id="SVGID_8_" gradientUnits="userSpaceOnUse" x1="347.7543" y1="584.977" x2="-821.2507" y2="-179.1637">
				<stop  offset="0" style="stop-color:#5A79BA"/>
				<stop  offset="0.5235" style="stop-color:#A381E1"/>
				<stop  offset="1" style="stop-color:#172B79"/>
			</linearGradient>
			<path class="st7" d="M256,570c-5.5,0-10-4.5-10-10v-70c0-5.5,4.5-10,10-10c5.5,0,10,4.5,10,10v70C266,565.5,261.5,570,256,570z"
				/>
		</g>
		<g>
			<linearGradient id="SVGID_9_" gradientUnits="userSpaceOnUse" x1="366.5988" y1="556.1481" x2="-802.4062" y2="-207.9925">
				<stop  offset="0" style="stop-color:#5A79BA"/>
				<stop  offset="0.5235" style="stop-color:#A381E1"/>
				<stop  offset="1" style="stop-color:#172B79"/>
			</linearGradient>
			<path class="st8" d="M296,550c-5.5,0-10-4.5-10-10v-60c0-5.5,4.5-10,10-10s10,4.5,10,10v60C306,545.5,301.5,550,296,550z"/>
		</g>
		<g>
			<linearGradient id="SVGID_10_" gradientUnits="userSpaceOnUse" x1="378.5735" y1="537.8289" x2="-790.4315" y2="-226.3118">
				<stop  offset="0" style="stop-color:#5A79BA"/>
				<stop  offset="0.5235" style="stop-color:#A381E1"/>
				<stop  offset="1" style="stop-color:#172B79"/>
			</linearGradient>
			<path class="st9" d="M336,540c-5.5,0-10-4.5-10-10v-40c0-5.5,4.5-10,10-10s10,4.5,10,10v40C346,535.5,341.5,540,336,540z"/>
		</g>
		<g>
			<linearGradient id="SVGID_11_" gradientUnits="userSpaceOnUse" x1="465.7791" y1="404.4192" x2="-703.2259" y2="-359.7215">
				<stop  offset="0" style="stop-color:#5A79BA"/>
				<stop  offset="0.5235" style="stop-color:#A381E1"/>
				<stop  offset="1" style="stop-color:#172B79"/>
			</linearGradient>
			<path class="st10" d="M476,340h-60v-30h40c5.5,0,10-4.5,10-10c0-85.5-59.9-157.3-140-175.5V80c0-5.5-4.5-10-10-10H196
				c-5.5,0-10,4.5-10,10v44.5c-27.2,6.2-52.7,18.6-74.4,36.5c-4.3,3.5-4.9,9.8-1.4,14.1s9.8,4.9,14.1,1.4C152.8,153,189,140,226,140
				h60c84.9,0,154.5,66.4,159.7,150H66.3c0.4-6.7,1.3-13.4,2.5-20H356c5.5,0,10-4.5,10-10s-4.5-10-10-10H74
				c4.5-13.6,10.8-26.7,18.9-38.8c3.1-4.6,1.8-10.8-2.8-13.9c-4.6-3.1-10.8-1.8-13.9,2.8C56.5,229.7,46,264.3,46,300
				c0,5.5,4.5,10,10,10h40v30H36c-5.5,0-10,4.5-10,10s4.5,10,10,10h440c5.5,0,10-4.5,10-10S481.5,340,476,340z M306,120H206V90h100
				V120z M196,340h-30v-30h30V340z M216,340v-30h30v30H216z M266,340v-30h30v30H266z M316,340v-30h30v30H316z"/>
		</g>
	</g>
</g>
</svg>
