<?xml version="1.0" encoding="utf-8"?>
<!-- Generator: Adobe Illustrator 24.2.1, SVG Export Plug-In . SVG Version: 6.00 Build 0)  -->
<svg version="1.1" id="Calque_1" xmlns="http://www.w3.org/2000/svg" xmlns:xlink="http://www.w3.org/1999/xlink" x="0px" y="0px"
	 viewBox="0 0 512 640" style="enable-background:new 0 0 512 640;" xml:space="preserve">
<style type="text/css">
	.st0{fill:url(#SVGID_1_);}
	.st1{fill:url(#SVGID_2_);}
	.st2{fill:url(#SVGID_3_);}
	.st3{fill:url(#SVGID_4_);}
	.st4{fill:url(#SVGID_5_);}
	.st5{fill:url(#SVGID_6_);}
	.st6{fill:url(#SVGID_7_);}
	.st7{fill:url(#SVGID_8_);}
	.st8{fill:url(#SVGID_9_);}
	.st9{fill:url(#SVGID_10_);}
	.st10{fill:url(#SVGID_11_);}
	.st11{fill:url(#SVGID_12_);}
	.st12{fill:url(#SVGID_13_);}
	.st13{fill:url(#SVGID_14_);}
	.st14{fill:url(#SVGID_15_);}
	.st15{fill:url(#SVGID_16_);}
	.st16{fill:url(#SVGID_17_);}
	.st17{fill:url(#SVGID_18_);}
	.st18{fill:url(#SVGID_19_);}
	.st19{fill:url(#SVGID_20_);}
	.st20{fill:url(#SVGID_21_);}
	.st21{fill:url(#SVGID_22_);}
	.st22{fill:url(#SVGID_23_);}
	.st23{fill:url(#SVGID_24_);}
	.st24{fill:url(#SVGID_25_);}
	.st25{fill:url(#SVGID_26_);}
	.st26{fill:url(#SVGID_27_);}
	.st27{fill:url(#SVGID_28_);}
	.st28{fill:url(#SVGID_29_);}
	.st29{fill:url(#SVGID_30_);}
	.st30{fill:url(#SVGID_31_);}
	.st31{fill:url(#SVGID_32_);}
</style>
<g>
	<linearGradient id="SVGID_1_" gradientUnits="userSpaceOnUse" x1="1231.146" y1="867.3963" x2="62.1409" y2="103.2556">
		<stop  offset="0" style="stop-color:#5A79BA"/>
		<stop  offset="0.5235" style="stop-color:#A381E1"/>
		<stop  offset="1" style="stop-color:#172B79"/>
	</linearGradient>
	<path class="st0" d="M53.5,200.3c3.3,3.2,7.7,4.8,12.2,4.7c9-0.7,17.7-3.6,25.3-8.4c3.1-1.7,6.4-3.7,9.7-5.9
		c27.2,11.7,58.7-0.8,70.4-27.9c6-13.9,5.8-29.7-0.5-43.5c1.2-1.9,2.2-3.7,3.2-5.5c9.8-17.6,11.1-30.2,3.8-37.5
		c-11.2-11.2-33.2,0-49.7,11.4l-0.6,0.4c-1.8-0.2-3.7-0.3-5.6-0.3c-29.6,0-53.6,24-53.6,53.6c0,1.5,0.1,2.9,0.2,4.4
		C56.6,161.8,41,187.8,53.5,200.3z M159.4,141.3c0,20.7-16.8,37.5-37.5,37.5c-1.6-0.1-3.1-0.2-4.7-0.5c6.8-5.5,13.6-11.7,20.2-18.3
		c7.6-7.6,14.8-15.6,21.4-24.1C159.1,137.7,159.3,139.5,159.4,141.3z M166,87.2c1,2.3-0.7,8.4-5.4,17.1c-3.8-4-8.2-7.4-13-10.1
		C153.2,90.6,159.4,88.2,166,87.2z M121.8,103.8c11.7,0,22.7,5.6,29.7,14.9c-7.7,10.7-16.2,20.7-25.6,30
		c-8.2,8.2-16.9,15.9-26.2,22.9C83,159.4,79.3,136,91.4,119.2C98.5,109.5,109.8,103.7,121.8,103.8z M74.2,165.9
		c3,5.7,6.9,10.8,11.7,15.1c-6,4.6-13.2,7.5-20.7,8.2C64.3,187.2,66,179.1,74.2,165.9z"/>
	<linearGradient id="SVGID_2_" gradientUnits="userSpaceOnUse" x1="1259.6133" y1="823.8462" x2="90.6083" y2="59.7055">
		<stop  offset="0" style="stop-color:#5A79BA"/>
		<stop  offset="0.5235" style="stop-color:#A381E1"/>
		<stop  offset="1" style="stop-color:#172B79"/>
	</linearGradient>
	<path class="st1" d="M346.4,229.8c4.6,4.5,6.6,11.1,5.3,17.4l15.8,3.2c3.8-19.2-8.7-37.9-27.9-41.7c-4.6-0.9-9.3-0.9-13.9,0
		l3.2,15.8C335.3,223.2,341.9,225.2,346.4,229.8z"/>
	<linearGradient id="SVGID_3_" gradientUnits="userSpaceOnUse" x1="1183.9572" y1="939.5873" x2="14.9521" y2="175.4466">
		<stop  offset="0" style="stop-color:#5A79BA"/>
		<stop  offset="0.5235" style="stop-color:#A381E1"/>
		<stop  offset="1" style="stop-color:#172B79"/>
	</linearGradient>
	<polygon class="st2" points="249.1,339.9 265.2,323.8 276.6,335.1 260.5,351.3 	"/>
	<linearGradient id="SVGID_4_" gradientUnits="userSpaceOnUse" x1="1220.5818" y1="883.5577" x2="51.5767" y2="119.4171">
		<stop  offset="0" style="stop-color:#5A79BA"/>
		<stop  offset="0.5235" style="stop-color:#A381E1"/>
		<stop  offset="1" style="stop-color:#172B79"/>
	</linearGradient>
	<polygon class="st3" points="281.4,307.6 329.7,259.3 341.1,270.7 292.8,319 	"/>
	<linearGradient id="SVGID_5_" gradientUnits="userSpaceOnUse" x1="1201.0868" y1="913.3818" x2="32.0817" y2="149.2411">
		<stop  offset="0" style="stop-color:#5A79BA"/>
		<stop  offset="0.5235" style="stop-color:#A381E1"/>
		<stop  offset="1" style="stop-color:#172B79"/>
	</linearGradient>
	<path class="st4" d="M268.8,480l4.9-4.9l24,21.6c1.5,1.3,3.4,2.1,5.4,2.1c1.1,0,2.2-0.2,3.3-0.7c2.9-1.3,4.8-4.2,4.8-7.4V340.8
		l78.2-78.2c1.1-1.1,1.9-2.6,2.2-4.1l11.3-56.6c2.6-13.2-5.9-26.1-19.1-28.7c-3.2-0.6-6.4-0.6-9.6,0l-56.6,11.3
		c-1.6,0.3-3,1.1-4.1,2.2L266.3,234c24.6-47.1,63.2-85.4,110.4-109.7c4.6,19.5,24,31.5,43.5,27c19.5-4.6,31.5-24,27-43.5
		c-0.6-2.4-1.4-4.7-2.4-7c16.7-3.4,33.7-5.1,50.7-5.1V79.6c-117.3-0.3-221.8,74.1-259.9,185.1l-0.3,0.3H77.5c-4.5,0-8.1,3.6-8.1,8.1
		c0,2.1,0.8,4.2,2.4,5.7l26.5,26.5l-18.5,18.5c-3.1,3.1-3.1,8.2,0,11.4l24.2,24.2c3.1,3.1,8.2,3.1,11.4,0l18.5-18.5l18.5,18.5
		l10.4,10.4l-18.5,18.5c-1.1,1.1-1.8,2.6-2.1,4.1c-1.2,0.3-2.5,0.7-3.7,1.1c-0.8,0.3-1.5,0.8-2.2,1.2c-1.2,0.6-2.3,1.2-3.4,1.9
		c-0.7,0.5-1.4,1.1-2.1,1.6c-1,0.7-2,1.5-2.9,2.4c-0.7,0.6-1.2,1.4-1.8,2.1c-0.8,0.9-1.6,1.8-2.3,2.8c-0.5,0.8-1,1.6-1.5,2.4
		c-0.6,1-1.2,2-1.7,3.1c-0.4,0.9-0.7,1.9-1,2.8c-0.4,1.1-0.8,2.2-1,3.3c-0.2,1-0.3,2-0.5,3.1c-0.1,0.9-0.3,1.7-0.4,2.6l-86.4,86.4
		l11.4,11.4l88.7-88.7c1.5-1.5,2.4-3.6,2.4-5.7v-1.5c0-9.7,7.9-17.6,17.6-17.6v-0.2l17.7,17.7c0,0.1,0,0.1,0,0.2
		c0,9.7-7.9,17.6-17.6,17.6c0,0,0,0,0,0H150c-2.1,0-4.2,0.8-5.7,2.4l-88.7,88.7l11.4,11.4l86.4-86.4c14.3-0.8,26.5-10.6,30.5-24.4
		c1.6-0.3,3-1,4.1-2.1l18.4-18.5l10.4,10.4c0.1,0.1,0.1,0.1,0.2,0.1c0,0,0.1,0.1,0.1,0.2l19.1,17.2l-19.4,19.4
		c-3.1,3.1-3.1,8.2,0,11.4l24.2,24.2c3.1,3.1,8.2,3.1,11.4,0l4.5-4.5c16.8,29.4,39,55.3,65.3,76.6l10.2-12.5
		C306.5,535,284.9,509.2,268.8,480z M432.1,115.9c0.1,11.1-8.9,20.2-20,20.2c-10.7,0.1-19.5-8.2-20.2-18.8
		c11.9-5.1,24.1-9.4,36.7-12.7C430.9,107.9,432.1,111.8,432.1,115.9z M219.2,281.1l-61.1,61.1L97,281.1H219.2z M109.7,342.2
		L97,329.4l12.8-12.8l12.8,12.8L109.7,342.2z M182.3,414.8l-20.8-20.8l42.7-42.7c5.9-5.6,15.2-5.4,20.8,0.4c5.5,5.7,5.5,14.7,0,20.4
		L182.3,414.8z M236.3,383.5c12.1-12.1,12.1-31.6,0-43.6c-12.1-12.1-31.6-12.1-43.6,0l-18.5,18.5l-4.7-4.7l74.9-74.9l3.5-3.5
		l0.9,0.3c0.2-0.7,0.5-1.3,0.7-1.9l73.7-73.7l54.2-10.8c4.5-0.9,8.8,2,9.7,6.5c0.2,1.1,0.2,2.2,0,3.2l-10.8,54.2l-78.9,78.9
		l-74.9,74.9l-4.7-4.7L236.3,383.5z M295.1,357v115.6l-60.8-54.8L295.1,357z M234,466.5l14.3-14.3l13.5,12.1l-15,15L234,466.5z"/>
	<linearGradient id="SVGID_6_" gradientUnits="userSpaceOnUse" x1="1163.3582" y1="971.1002" x2="-5.6469" y2="206.9595">
		<stop  offset="0" style="stop-color:#5A79BA"/>
		<stop  offset="0.5235" style="stop-color:#A381E1"/>
		<stop  offset="1" style="stop-color:#172B79"/>
	</linearGradient>
	<path class="st5" d="M416,450.4c-17.8,0-32.2,14.4-32.2,32.2c0,17.8,14.4,32.2,32.2,32.2s32.2-14.4,32.2-32.2
		C448.3,464.8,433.8,450.4,416,450.4z M416,498.7c-8.9,0-16.1-7.2-16.1-16.1s7.2-16.1,16.1-16.1s16.1,7.2,16.1,16.1
		S424.9,498.7,416,498.7z"/>
	<linearGradient id="SVGID_7_" gradientUnits="userSpaceOnUse" x1="1239.4227" y1="854.7343" x2="70.4177" y2="90.5935">
		<stop  offset="0" style="stop-color:#5A79BA"/>
		<stop  offset="0.5235" style="stop-color:#A381E1"/>
		<stop  offset="1" style="stop-color:#172B79"/>
	</linearGradient>
	<path class="st6" d="M399.9,281.1h-16.1c0,40,32.5,72.5,72.5,72.5v-16.1C425.2,337.5,399.9,312.2,399.9,281.1z"/>
	<linearGradient id="SVGID_8_" gradientUnits="userSpaceOnUse" x1="1267.7019" y1="811.4719" x2="98.6969" y2="47.3312">
		<stop  offset="0" style="stop-color:#5A79BA"/>
		<stop  offset="0.5235" style="stop-color:#A381E1"/>
		<stop  offset="1" style="stop-color:#172B79"/>
	</linearGradient>
	<path class="st7" d="M456.3,240.8c-22.3,0-40.3,18-40.3,40.3c0,22.3,18,40.3,40.3,40.3s40.3-18,40.3-40.3
		C496.6,258.8,478.6,240.8,456.3,240.8z M456.3,305.3c-13.4,0-24.2-10.8-24.2-24.2c0-13.4,10.8-24.2,24.2-24.2
		c13.4,0,24.2,10.8,24.2,24.2C480.5,294.4,469.7,305.3,456.3,305.3z"/>
	<linearGradient id="SVGID_9_" gradientUnits="userSpaceOnUse" x1="1108.2263" y1="1055.4425" x2="-60.7787" y2="291.3018">
		<stop  offset="0" style="stop-color:#5A79BA"/>
		<stop  offset="0.5235" style="stop-color:#A381E1"/>
		<stop  offset="1" style="stop-color:#172B79"/>
	</linearGradient>
	<polygon class="st8" points="39.6,388.2 79.9,347.9 91.3,359.3 51,399.6 	"/>
	<linearGradient id="SVGID_10_" gradientUnits="userSpaceOnUse" x1="1080.7593" y1="1097.4624" x2="-88.2458" y2="333.3217">
		<stop  offset="0" style="stop-color:#5A79BA"/>
		<stop  offset="0.5235" style="stop-color:#A381E1"/>
		<stop  offset="1" style="stop-color:#172B79"/>
	</linearGradient>
	<polygon class="st9" points="15.4,412.4 31.5,396.3 42.9,407.7 26.8,423.8 	"/>
	<linearGradient id="SVGID_11_" gradientUnits="userSpaceOnUse" x1="1086.4919" y1="1088.6924" x2="-82.5131" y2="324.5517">
		<stop  offset="0" style="stop-color:#5A79BA"/>
		<stop  offset="0.5235" style="stop-color:#A381E1"/>
		<stop  offset="1" style="stop-color:#172B79"/>
	</linearGradient>
	<polygon class="st10" points="176.6,525.3 216.9,485 228.3,496.4 188,536.7 	"/>
	<linearGradient id="SVGID_12_" gradientUnits="userSpaceOnUse" x1="1059.0249" y1="1130.7123" x2="-109.9802" y2="366.5716">
		<stop  offset="0" style="stop-color:#5A79BA"/>
		<stop  offset="0.5235" style="stop-color:#A381E1"/>
		<stop  offset="1" style="stop-color:#172B79"/>
	</linearGradient>
	<polygon class="st11" points="152.4,549.4 168.5,533.3 179.9,544.7 163.8,560.8 	"/>
	<linearGradient id="SVGID_13_" gradientUnits="userSpaceOnUse" x1="1021.0609" y1="1188.7906" x2="-147.9441" y2="424.65">
		<stop  offset="0" style="stop-color:#5A79BA"/>
		<stop  offset="0.5235" style="stop-color:#A381E1"/>
		<stop  offset="1" style="stop-color:#172B79"/>
	</linearGradient>
	<polygon class="st12" points="15.4,549.4 39.6,525.2 51,536.6 26.8,560.8 	"/>
</g>
</svg>
